<?xml version="1.0" encoding="utf-8"?>
<!-- Generator: Adobe Illustrator 24.0.0, SVG Export Plug-In . SVG Version: 6.00 Build 0)  -->
<svg version="1.1" id="Layer_1" xmlns="http://www.w3.org/2000/svg" xmlns:xlink="http://www.w3.org/1999/xlink" x="0px" y="0px"
	 viewBox="0 0 79.3 101" style="enable-background:new 0 0 79.3 101;" xml:space="preserve">
<g>
	<g id="oIb6hi_1_">
		<g>
			<path style="fill:#FFFFFF;" d="M13.1,99.6c-0.2-0.1-0.4-0.2-0.5-0.3c-0.5-0.3-1-0.5-1.6-0.6c-0.5-0.1-1,0-1.5,0.1
				c-0.5,0.1-1.1,0.3-1.6,0.5c0,0-0.1,0-0.1,0c0.1-0.2,0.1-0.5,0.2-0.7c0.4-1.3,0.8-2.7,1.2-4c0,0,0-0.1,0.1-0.1
				c0.6-0.3,1.2-0.4,1.9-0.6c1.1-0.2,2,0,2.9,0.6c0.2,0.1,0.3,0.2,0.5,0.3c0,0,0.1,0.1,0,0.1C14.1,96.4,13.6,98,13.1,99.6
				C13.2,99.6,13.1,99.6,13.1,99.6z"/>
			<path style="fill:#FFFFFF;" d="M16.9,89.6c0.2,0.1,0.4,0.3,0.7,0.4c0.7,0.4,1.5,0.6,2.4,0.5c0.8-0.1,1.5-0.3,2.2-0.6
				c0,0,0.1,0,0.1,0c-0.1,0.2-0.1,0.4-0.2,0.6c-0.4,1.4-0.8,2.7-1.2,4.1c0,0.1,0,0.1-0.1,0.1c-0.5,0.2-1.1,0.4-1.7,0.5
				c-1.1,0.2-2.1,0-3.1-0.5c-0.2-0.1-0.3-0.2-0.5-0.3c0,0-0.1-0.1,0-0.1C16,92.8,16.4,91.3,16.9,89.6C16.9,89.7,16.9,89.7,16.9,89.6
				z"/>
			<path style="fill:#FFFFFF;" d="M15.3,95.3c0.2,0.1,0.4,0.2,0.6,0.4c0.8,0.5,1.6,0.7,2.6,0.6c0.6-0.1,1.1-0.2,1.6-0.4
				c0.2-0.1,0.4-0.1,0.6-0.2c0,0,0,0,0,0.1c-0.4,1.5-0.9,3.1-1.3,4.6c0,0.1,0,0.1-0.1,0.1c-0.6,0.3-1.3,0.5-1.9,0.6
				c-1,0.1-1.9,0-2.8-0.6c-0.2-0.1-0.3-0.2-0.5-0.3c0,0-0.1-0.1,0-0.1c0.4-1.4,0.8-2.9,1.2-4.3C15.2,95.6,15.2,95.4,15.3,95.3z"/>
			<path style="fill:#FFFFFF;" d="M16.2,89.1c-0.5,1.6-0.9,3.2-1.4,4.8c-0.1,0-0.1-0.1-0.2-0.1c-0.5-0.3-0.9-0.6-1.5-0.7
				c-0.5-0.2-1.1-0.2-1.7-0.1c-0.7,0.1-1.4,0.3-2,0.6c0,0-0.1,0-0.1,0c0-0.1,0-0.2,0.1-0.3c0.4-1.5,0.9-3,1.3-4.5
				c0-0.1,0-0.1,0.1-0.1c0.5-0.2,1-0.4,1.6-0.5c0.7-0.1,1.3-0.2,2,0c0.5,0.1,0.9,0.3,1.3,0.6C15.9,89,16,89,16.2,89.1z"/>
		</g>
	</g>
	<g id="_x36_rwSLh_1_">
		<g>
			<path style="fill:#FFFFFF;" d="M76.6,92c-0.1,0.1-0.1,0.2-0.2,0.3c-1.1,2.5-2.1,5-3.2,7.5c0,0.1-0.1,0.2-0.2,0.3
				c-0.1,0-0.3,0-0.4,0c0-0.1,0-0.2,0.1-0.3c1-2.3,1.9-4.6,2.9-6.9c0,0,0-0.1,0.1-0.1c0.1-0.3,0.1-0.3-0.2-0.3c-1.3,0-2.5,0-3.8,0
				c-0.3,0-0.3,0-0.3-0.3c0-0.3,0-0.3,0.3-0.3c1.5,0,3,0,4.5,0c0.1,0,0.3,0,0.4,0C76.6,91.8,76.6,91.9,76.6,92z"/>
			<path style="fill:#FFFFFF;" d="M33.6,100c-0.7,0-0.5,0.1-0.7-0.5c-0.5-1.7-1-3.5-1.5-5.2c-0.1-0.2-0.1-0.4-0.2-0.6
				c-0.1,0.2-0.1,0.4-0.2,0.6c-0.5,1.8-1,3.6-1.5,5.4c-0.1,0.3-0.1,0.3-0.4,0.3c-0.2,0-0.4,0-0.5,0c-0.2,0-0.3-0.1-0.3-0.3
				c-0.4-1.4-0.8-2.8-1.2-4.2c-0.3-1.1-0.6-2.2-1-3.3C26,92,26,91.9,26.3,91.9c0.2,0,0.6-0.1,0.7,0.1c0.2,0.1,0.2,0.4,0.2,0.7
				c0.5,1.9,1.1,3.9,1.6,5.8c0,0,0,0.1,0,0.1c0,0,0-0.1,0.1-0.1c0.6-2.1,1.2-4.1,1.8-6.2c0.1-0.4,0.1-0.3,0.4-0.3
				c0.7,0,0.6-0.1,0.8,0.6c0.5,1.8,1,3.6,1.5,5.4c0.1,0.2,0.1,0.4,0.1,0.6c0,0,0,0.1,0,0.1c0,0,0-0.1,0-0.1c0.2-0.8,0.4-1.7,0.7-2.5
				c0.3-1.3,0.7-2.5,1-3.8c0.1-0.3,0.1-0.3,0.4-0.3c0.2,0,0.5,0,0.7,0c-0.1,0.2-0.1,0.4-0.2,0.7c-0.6,2.3-1.3,4.6-2,6.9
				c-0.1,0.5-0.1,0.4-0.6,0.4C33.7,100,33.7,100,33.6,100z"/>
			<path style="fill:#FFFFFF;" d="M62.9,100c-0.6,0-0.5,0.1-0.6-0.5c-0.3-1.1-0.7-2.3-1-3.4c0-0.2-0.1-0.3-0.1-0.5
				c0,0,0-0.1-0.1-0.1c0,0,0,0.1,0,0.1c-0.4,1.3-0.8,2.7-1.2,4c-0.1,0.2-0.2,0.3-0.4,0.3c-0.8,0-0.6,0.1-0.8-0.6
				c-0.5-1.6-1-3.2-1.5-4.8c-0.1-0.3-0.1-0.3,0.2-0.3c0.8,0,0.6-0.1,0.8,0.6c0.3,1.1,0.6,2.3,0.9,3.5c0.1,0.2,0.1,0.4,0.1,0.6
				c0.1-0.2,0.1-0.4,0.2-0.6c0.4-1.3,0.8-2.5,1.2-3.8c0.1-0.3,0.1-0.3,0.4-0.3c0.7,0,0.5-0.1,0.7,0.5c0.3,1.2,0.7,2.4,1,3.6
				c0,0.1,0.1,0.3,0.1,0.4c0,0,0,0.1,0,0.1c0,0,0-0.1,0-0.1c0.4-1.4,0.8-2.8,1.1-4.2c0.1-0.2,0.2-0.3,0.4-0.3c0.7,0,0.7,0,0.5,0.6
				c-0.5,1.5-0.9,3.1-1.4,4.6C63.4,100,63.5,100,62.9,100z"/>
			<path style="fill:#FFFFFF;" d="M39.4,97.1c0-0.9,0-1.7,0-2.6c0-0.3,0-0.3,0.3-0.3c0.1,0,0.3,0,0.4,0c0.2,0,0.2,0.1,0.2,0.2
				c0,0.2,0,0.3,0,0.5c0,0,0,0.1,0,0.1c0,0,0.1-0.1,0.1-0.1c0.3-0.4,0.7-0.7,1.2-0.8c0.7-0.2,1.4-0.1,2,0.5c0.3,0.4,0.5,0.8,0.5,1.3
				c0,0.4,0,0.7,0,1.1c0,0.9,0,1.8,0,2.6c0,0.3,0,0.3-0.3,0.3c-0.1,0-0.2,0-0.4,0c-0.3,0-0.3,0-0.3-0.3c0-1.1,0-2.2,0-3.3
				c0-0.2,0-0.3-0.1-0.5c-0.2-0.9-1.1-1.3-1.9-0.8c-0.6,0.3-0.8,0.8-0.8,1.5c0,1,0,2,0,3c0,0.4,0,0.4-0.4,0.4
				c-0.7,0-0.6,0.1-0.6-0.5C39.4,98.6,39.4,97.9,39.4,97.1z"/>
			<path style="fill:#FFFFFF;" d="M65.3,99.3c0-0.2,0-0.3,0-0.5c0.1,0.1,0.3,0.1,0.4,0.2c0.5,0.3,1,0.3,1.5,0.2
				c0.3,0,0.5-0.2,0.6-0.5c0.1-0.3,0-0.6-0.3-0.8c-0.2-0.1-0.3-0.2-0.5-0.3c-0.3-0.2-0.6-0.3-0.9-0.5c-0.6-0.3-0.9-0.8-0.9-1.4
				c0-0.7,0.3-1.1,0.9-1.4c0.7-0.4,1.4-0.3,2.2-0.1c0.1,0.1,0.2,0.1,0.2,0.3c0,0.2,0,0.3,0,0.5c0,0.2,0,0.2-0.2,0.1
				C68,95,67.5,94.9,67,94.9c-0.3,0-0.6,0.3-0.7,0.5c-0.1,0.4,0,0.7,0.3,0.9c0.4,0.2,0.8,0.4,1.2,0.6c0.4,0.2,0.8,0.5,0.9,1
				c0.2,0.9-0.3,1.7-1.2,2c-0.6,0.2-1.2,0.2-1.7,0C65.3,99.8,65.3,99.8,65.3,99.3z"/>
			<path style="fill:#FFFFFF;" d="M38,97.1c0,0.8,0,1.7,0,2.5c0,0.3,0,0.3-0.3,0.3c-0.6,0-0.6,0-0.6-0.6c0-1.6,0-3.2,0-4.8
				c0-0.3,0-0.4,0.4-0.3c0.7,0,0.6-0.1,0.6,0.6C38,95.6,38,96.4,38,97.1z"/>
			<path style="fill:#FFFFFF;" d="M38.2,92.2c0,0.3-0.3,0.6-0.6,0.6c-0.4,0-0.6-0.3-0.6-0.6c0-0.3,0.3-0.6,0.6-0.6
				C37.9,91.6,38.2,91.9,38.2,92.2z"/>
			<path style="fill:#FFFFFF;" d="M49.7,91.5c-0.4,0-0.4,0-0.4,0.4c0,0.9,0,1.9,0,2.8c0,0.1,0,0.1,0,0.2c0,0-0.1-0.1-0.1-0.1
				c-0.4-0.4-0.8-0.6-1.4-0.7c-1.1-0.1-2.1,0.5-2.5,1.5c-0.4,0.9-0.4,1.8-0.2,2.8c0.4,1.4,1.7,2,3,1.6c0.5-0.1,0.8-0.4,1.1-0.8
				c0,0,0.1-0.1,0.1-0.1c0,0,0,0.1,0,0.1c0,0,0,0.1,0,0.1c0,0.6,0,0.6,0.6,0.6c0.3,0,0.3,0,0.3-0.3c0-1.3,0-2.6,0-3.9
				c0-1.2,0-2.4,0-3.7C50.3,91.4,50.4,91.5,49.7,91.5z M49.2,98.2c-0.2,0.7-0.9,1.1-1.6,1.1c-0.7,0-1.3-0.5-1.5-1.2
				c-0.2-0.7-0.2-1.4,0.1-2.1c0.3-0.7,0.9-1.1,1.8-1c0.7,0.1,1.2,0.6,1.3,1.2c0.1,0.3,0,0.6,0,0.8c0,0,0,0,0,0
				C49.3,97.4,49.3,97.8,49.2,98.2z"/>
			<path style="fill:#FFFFFF;" d="M56.8,96c-0.2-0.7-0.6-1.2-1.2-1.6c-0.9-0.4-1.8-0.4-2.7-0.1c-0.8,0.3-1.3,0.9-1.5,1.8
				c-0.1,0.6-0.2,1.1-0.1,1.7c0.2,0.9,0.6,1.6,1.4,2c0.5,0.3,1.1,0.3,1.7,0.3c0.7-0.1,1.3-0.4,1.8-0.9c0.5-0.6,0.7-1.3,0.7-2.1
				C56.9,96.7,56.9,96.3,56.8,96z M55.8,98.1c-0.3,0.9-0.9,1.2-1.7,1.1c-1.2,0-1.7-1-1.8-1.8c0-0.1,0-0.2,0-0.3
				c0-0.5,0.1-1.1,0.4-1.5c0.3-0.4,0.7-0.6,1.2-0.6c0.3,0,0.5,0,0.8,0c0.6,0.1,1,0.5,1.2,1.1C56,96.8,56,97.5,55.8,98.1z"/>
		</g>
	</g>
	
		<line style="fill:none;stroke:#FFFFFF;stroke-width:4;stroke-linecap:round;stroke-linejoin:round;stroke-miterlimit:10;" x1="39.1" y1="16.1" x2="39.1" y2="51.1"/>
	<circle style="fill:#FFFFFF;stroke:#FFFFFF;stroke-miterlimit:10;" cx="39.1" cy="59.1" r="3"/>
	<path style="fill:none;stroke:#FFFFFF;stroke-width:3.2905;stroke-linecap:round;stroke-linejoin:round;stroke-miterlimit:10;" d="
		M1.6,25.3V54c0,0.9,0.4,1.7,1,2.4l20.3,20.3c0.6,0.6,1.5,1,2.4,1H54c0.9,0,1.7-0.4,2.4-1l20.3-20.3c0.6-0.6,1-1.5,1-2.4V25.3
		c0-0.9-0.4-1.7-1-2.4L56.4,2.6c-0.6-0.6-1.5-1-2.4-1H25.3c-0.9,0-1.7,0.4-2.4,1L2.6,22.9C2,23.6,1.6,24.4,1.6,25.3z"/>
</g>
</svg>
