<?xml version="1.0" encoding="utf-8"?>
<!-- Generator: Adobe Illustrator 24.0.0, SVG Export Plug-In . SVG Version: 6.00 Build 0)  -->
<svg version="1.1" xmlns="http://www.w3.org/2000/svg" xmlns:xlink="http://www.w3.org/1999/xlink" x="0px" y="0px"
	 viewBox="0 0 818.2 356.3" style="enable-background:new 0 0 818.2 356.3;" xml:space="preserve">
<style type="text/css">
	
		.st0{fill:none;stroke:#E6E6E6;stroke-width:4;stroke-linecap:round;stroke-linejoin:round;stroke-miterlimit:10;stroke-dasharray:0.1,12;}
	.st1{fill:#FFFFFF;stroke:#09638A;stroke-width:2.5;stroke-miterlimit:10;}
	.st2{fill:#00ABE8;}
	.st3{fill:#28AAE1;}
	.st4{fill:#09638A;}
	
		.st5{fill:none;stroke:#E6E6E6;stroke-width:11.4259;stroke-linecap:round;stroke-linejoin:round;stroke-miterlimit:10;stroke-dasharray:1.7279,32.5322;}
	.st6{fill:none;stroke:#82342F;stroke-width:6.4709;stroke-linecap:round;stroke-linejoin:round;stroke-miterlimit:10;}
	.st7{fill:#FFFFFF;}
	.st8{fill:#82342F;}
	.st9{clip-path:url(#SVGID_2_);}
	.st10{fill:#FFFFFF;stroke:#82342F;stroke-width:5.9894;stroke-miterlimit:10;}
	.st11{font-family:'Navigo-Bold';}
	.st12{font-size:9.1555px;}
	.st13{fill:none;stroke:#82342F;stroke-width:3.3005;stroke-miterlimit:10;}
	.st14{font-size:11.6529px;}
	.st15{fill:#4D2319;}
	.st16{clip-path:url(#SVGID_4_);}
	.st17{font-size:7.0225px;}
	.st18{clip-path:url(#SVGID_6_);}
	.st19{clip-path:url(#SVGID_8_);}
	.st20{clip-path:url(#SVGID_10_);}
	.st21{clip-path:url(#SVGID_12_);}
	.st22{clip-path:url(#SVGID_14_);}
	.st23{clip-path:url(#SVGID_16_);}
	.st24{clip-path:url(#SVGID_18_);}
	.st25{clip-path:url(#SVGID_20_);}
	.st26{clip-path:url(#SVGID_22_);}
	.st27{clip-path:url(#SVGID_24_);}
	.st28{clip-path:url(#SVGID_26_);}
	.st29{clip-path:url(#SVGID_28_);}
	.st30{clip-path:url(#SVGID_30_);}
	.st31{clip-path:url(#SVGID_32_);}
	.st32{clip-path:url(#SVGID_34_);}
	.st33{clip-path:url(#SVGID_36_);}
	.st34{clip-path:url(#SVGID_38_);}
	.st35{clip-path:url(#SVGID_40_);}
	.st36{clip-path:url(#SVGID_42_);}
	.st37{clip-path:url(#SVGID_44_);}
	.st38{clip-path:url(#SVGID_46_);}
	.st39{fill:#C1272D;}
	.st40{fill:#8CC63F;}
	.st41{font-size:10.8518px;}
	.st42{fill:#F4EDED;stroke:#82342F;stroke-width:1.1159;stroke-miterlimit:10;}
	.st43{fill:none;stroke:#82342F;stroke-width:1.2044;stroke-miterlimit:10;}
	.st44{fill:#82342F;stroke:#82342F;stroke-width:1.2044;stroke-miterlimit:10;}
	.st45{fill:#F4EDED;}
	.st46{fill:none;stroke:#82342F;stroke-width:0.8927;stroke-miterlimit:10;}
	.st47{fill:#82342F;stroke:#82342F;stroke-width:1.1159;stroke-miterlimit:10;}
	.st48{fill:#82342F;stroke:#82342F;stroke-width:0.8927;stroke-miterlimit:10;}
	.st49{fill:#F4EDED;stroke:#82342F;stroke-width:1.1207;stroke-miterlimit:10;}
	.st50{fill:none;stroke:#82342F;stroke-width:1.2162;stroke-miterlimit:10;}
	.st51{fill:#F4EDED;stroke:#82342F;stroke-width:1.1058;stroke-miterlimit:10;}
	.st52{fill:#FFFFFF;stroke:#82342F;stroke-width:1.1829;stroke-miterlimit:10;}
	.st53{fill:#F4EDED;stroke:#82342F;stroke-width:1.1229;stroke-miterlimit:10;}
	.st54{fill:none;stroke:#82342F;stroke-width:1.1229;stroke-miterlimit:10;}
</style>
<g id="Layer_3">
	<line class="st0" x1="128.1" y1="82.6" x2="276.8" y2="82.6"/>
	<line class="st0" x1="128.1" y1="192" x2="276.8" y2="192"/>
	<line class="st0" x1="128.1" y1="294" x2="276.8" y2="294"/>
</g>
<g id="varo-docs-3">
	<g>
		<path class="st1" d="M207.6,281.5l0,32c0,1.5-1.2,2.8-2.8,2.8l-27.6,0c-1.5,0-2.8-1.2-2.8-2.8l0-38.3c0-1.5,1.2-2.8,2.8-2.8
			l23.2,0c1,0,1.7,0.4,2.2,1.2l1.8,2.5l2.7,3.7c0.1,0.1,0.1,0.3,0.3,0.5C207.6,280.6,207.6,281,207.6,281.5z"/>
		<path class="st1" d="M207.3,281.8l-5.5,0c-0.8,0-1.5-0.7-1.5-1.5l0-8"/>
		<path class="st2" d="M190.2,284.8c6.1,0.1,10.5,4.5,10.6,10.6c0,0.1-0.1,0.3-0.3,0.3l-2.1,0c-0.1,0-0.2-0.1-0.2-0.2
			c-0.1-4.3-3.7-7.9-8-8c-0.1,0-0.2-0.1-0.2-0.2l0-2.1C190,285,190.1,284.8,190.2,284.8z"/>
		<path class="st3" d="M190.1,292.7c-0.1,0-0.1,0.1-0.1,0.1l0,1.5l0,0.1l0,1c0,0.1,0.1,0.2,0.2,0.2l1.1,0l0,0c0.4,0,1.2,0,1.5,0
			c0.1,0,0.1-0.1,0.1-0.1C192.9,294.1,191.7,292.8,190.1,292.7z"/>
		<path class="st4" d="M190.4,288.5c3.8,0,6.9,3.2,6.9,6.8c0,3.8-3.1,6.8-6.9,6.9c-3.8,0-6.9-3.2-6.9-6.8
			C183.4,291.6,186.5,288.5,190.4,288.5z M190.4,298.7c1.8,0,3.2-1.5,3.2-3.4c0-1.8-1.5-3.3-3.2-3.3c-1.8,0-3.2,1.5-3.2,3.3
			C187.1,297.2,188.5,298.7,190.4,298.7z"/>
	</g>
</g>
<g id="varo-docs-2">
	<g>
		<path class="st1" d="M207.6,178.7l0,32c0,1.5-1.2,2.8-2.8,2.8l-27.6,0c-1.5,0-2.8-1.2-2.8-2.8l0-38.3c0-1.5,1.2-2.8,2.8-2.8
			l23.2,0c1,0,1.7,0.4,2.2,1.2l1.8,2.5l2.7,3.7c0.1,0.1,0.1,0.3,0.3,0.5C207.6,177.9,207.6,178.3,207.6,178.7z"/>
		<path class="st1" d="M207.3,179.1l-5.5,0c-0.8,0-1.5-0.7-1.5-1.5l0-8"/>
		<path class="st2" d="M190.2,182.1c6.1,0.1,10.5,4.5,10.6,10.6c0,0.1-0.1,0.3-0.3,0.3l-2.1,0c-0.1,0-0.2-0.1-0.2-0.2
			c-0.1-4.3-3.7-7.9-8-8c-0.1,0-0.2-0.1-0.2-0.2l0-2.1C190,182.3,190.1,182.1,190.2,182.1z"/>
		<path class="st3" d="M190.1,190c-0.1,0-0.1,0.1-0.1,0.1l0,1.5l0,0.1l0,1c0,0.1,0.1,0.2,0.2,0.2l1.1,0l0,0c0.4,0,1.2,0,1.5,0
			c0.1,0,0.1-0.1,0.1-0.1C192.9,191.3,191.7,190.1,190.1,190z"/>
		<path class="st4" d="M190.4,185.8c3.8,0,6.9,3.2,6.9,6.8c0,3.8-3.1,6.8-6.9,6.9s-6.9-3.2-6.9-6.8
			C183.4,188.9,186.5,185.8,190.4,185.8z M190.4,196c1.8,0,3.2-1.5,3.2-3.4c0-1.8-1.5-3.3-3.2-3.3c-1.8,0-3.2,1.5-3.2,3.3
			C187.1,194.5,188.5,196,190.4,196z"/>
	</g>
</g>
<g id="varo-docs">
	<g>
		<path class="st1" d="M207.6,68.9l0,32c0,1.5-1.2,2.8-2.8,2.8l-27.6,0c-1.5,0-2.8-1.2-2.8-2.8l0-38.3c0-1.5,1.2-2.8,2.8-2.8l23.2,0
			c1,0,1.7,0.4,2.2,1.2l1.8,2.5l2.7,3.7c0.1,0.1,0.1,0.3,0.3,0.5C207.6,68.1,207.6,68.5,207.6,68.9z"/>
		<path class="st1" d="M207.3,69.3l-5.5,0c-0.8,0-1.5-0.7-1.5-1.5l0-8"/>
		<path class="st2" d="M190.2,72.3c6.1,0.1,10.5,4.5,10.6,10.6c0,0.1-0.1,0.3-0.3,0.3l-2.1,0c-0.1,0-0.2-0.1-0.2-0.2
			c-0.1-4.3-3.7-7.9-8-8c-0.1,0-0.2-0.1-0.2-0.2l0-2.1C190,72.5,190.1,72.3,190.2,72.3z"/>
		<path class="st3" d="M190.1,80.2c-0.1,0-0.1,0.1-0.1,0.1l0,1.5l0,0.1l0,1c0,0.1,0.1,0.2,0.2,0.2l1.1,0l0,0c0.4,0,1.2,0,1.5,0
			c0.1,0,0.1-0.1,0.1-0.1C192.9,81.5,191.7,80.3,190.1,80.2z"/>
		<path class="st4" d="M190.4,76c3.8,0,6.9,3.2,6.9,6.8c0,3.8-3.1,6.8-6.9,6.9s-6.9-3.2-6.9-6.8C183.4,79.1,186.5,76,190.4,76z
			 M190.4,86.2c1.8,0,3.2-1.5,3.2-3.4c0-1.8-1.5-3.3-3.2-3.3c-1.8,0-3.2,1.5-3.2,3.3C187.1,84.7,188.5,86.2,190.4,86.2z"/>
	</g>
</g>
<g id="Layer_1">
	<path class="st5" d="M382.5,323.5"/>
	<path class="st6" d="M302.6,214.1"/>
	<g>
		<g>
			<path class="st7" d="M763.6,353.4H288.7V42.5c0-4.4,3.5-7.9,7.9-7.9h467L763.6,353.4L763.6,353.4z"/>
			<rect x="307.4" y="52" class="st8" width="436.6" height="264.8"/>
			<rect x="360.9" y="33.1" class="st8" width="16.5" height="3"/>
			<rect x="288.9" y="290.6" class="st8" width="3" height="41.9"/>
			<path class="st8" d="M742,36c10.1,0,18.3,8.1,18.3,18.2v278.2h3V54.3c0-11.8-9.5-21.3-21.3-21.3H380.4v3L742,36L742,36z"/>
			<rect x="288.9" y="195.6" class="st8" width="3" height="16.9"/>
			<rect x="288.9" y="215.5" class="st8" width="3" height="72.2"/>
			<path class="st8" d="M288.9,54.3v138.3h3V54.3c0-10.1,8.1-18.2,18.2-18.2h47.8v-3h-47.8C298.3,33.1,288.9,42.6,288.9,54.3z"/>
			<polygon class="st8" points="288.9,212.5 288.9,212.5 291.9,212.5 291.9,212.5 			"/>
			<rect x="377.4" y="33.1" class="st8" width="3" height="3"/>
			<polygon class="st8" points="288.9,215.5 288.9,215.5 291.9,215.5 291.9,215.5 			"/>
			<rect x="288.9" y="287.6" class="st8" width="3" height="3"/>
			<rect x="288.9" y="212.5" class="st8" width="3" height="3"/>
			<rect x="288.9" y="192.6" class="st8" width="3" height="3"/>
			<rect x="357.8" y="33.1" class="st8" width="3" height="3"/>
			<path class="st8" d="M763.3,332.5v3h51.3v4.4c0,7.4-6,13.4-13.4,13.4H250.9c-7.4,0-13.4-6-13.4-13.4v-4.4h51.3v-3h-54.3v7.4
				c0,9,7.3,16.4,16.3,16.4h550.3c9,0,16.4-7.3,16.4-16.4v-7.4H763.3z"/>
			<path class="st8" d="M481.3,335.4c-0.1-0.6-0.1-1.1-0.1-1.6v-1.4H291.8h-2.9v3H481.3z"/>
			<path class="st8" d="M571,332.5v1.4c0,0.5-0.1,1-0.2,1.6h192.4v-3h-2.9H571z"/>
			<rect x="307.1" y="215.5" class="st8" width="3" height="72.2"/>
			<rect x="307.1" y="195.6" class="st8" width="3" height="16.9"/>
			<polygon class="st8" points="742.1,52.8 742.1,315.7 310.1,315.7 310.1,290.6 307.1,290.6 307.1,318.7 745,318.7 745,49.8 
				380.4,49.8 380.4,52.8 			"/>
			<rect x="360.9" y="49.8" class="st8" width="16.5" height="3"/>
			<polygon class="st8" points="307.1,192.6 310.1,192.6 310.1,52.8 357.8,52.8 357.8,49.8 307.1,49.8 			"/>
			<rect x="377.4" y="49.8" class="st8" width="3" height="3"/>
			<polygon class="st8" points="307.1,212.5 310.1,212.5 310.1,212.5 			"/>
			<polygon class="st8" points="310.1,215.5 307.1,215.5 307.1,215.5 			"/>
			<rect x="307.1" y="287.6" class="st8" width="3" height="3"/>
			<rect x="307.1" y="212.5" class="st8" width="3" height="3"/>
			<rect x="357.8" y="49.8" class="st8" width="3" height="3"/>
			<rect x="307.1" y="192.6" class="st8" width="3" height="3"/>
			<path class="st8" d="M490.8,343.6h70.6c4.8,0,8.8-3.7,9.5-8.2h-3c-0.7,3-3.3,5.2-6.5,5.2h-70.6c-3.2,0-5.8-2.2-6.5-5.2h-3
				C482,339.9,486,343.6,490.8,343.6z"/>
			<path class="st8" d="M567.8,335.4h3c0.1-0.6,0.2-1.1,0.2-1.6v-1.4h-89.8v1.4c0,0.5,0,1,0.1,1.6h3H567.8z"/>
		</g>
		<g>
			<g>
				<g>
					<defs>
						<rect id="SVGID_1_" x="319.6" y="49.7" width="413.8" height="265.1"/>
					</defs>
					<clipPath id="SVGID_2_">
						<use xlink:href="#SVGID_1_"  style="overflow:visible;"/>
					</clipPath>
					<g class="st9">
						<g>
							<rect x="376.9" y="107.3" class="st8" width="51.8" height="18.7"/>
							<rect x="352.2" y="106.5" class="st7" width="345.8" height="21.1"/>
							<rect x="352.2" y="128.4" class="st7" width="345.8" height="21.1"/>
							<g>
								<path class="st10" d="M351.4,347V86.2c0-2.3,1.9-4.1,4.1-4.1h339.1c2.3,0,4.1,1.9,4.1,4.1V347"/>
								<g>
									<text transform="matrix(1 0 0 1 481.5506 99.3826)" class="st8 st11 st12">FACILITY</text>
								</g>
								<text transform="matrix(1 0 0 1 594.576 99.3826)" class="st8 st11 st12">MODEL</text>
								<g>
									<text transform="matrix(1 0 0 1 383.1932 98.699)" class="st8 st11 st12">ALARM RATE</text>
								</g>
								<g>
									<line class="st13" x1="352.4" y1="106.9" x2="697.9" y2="106.9"/>
								</g>
								<g>
									<text transform="matrix(1 0 0 1 382.3133 163.4646)" class="st8 st11 st14">20.8%</text>
								</g>
								<g>
									<text transform="matrix(1 0 0 1 382.3133 184.7166)" class="st8 st11 st14">00.3%</text>
								</g>
								<g>
									<text transform="matrix(1 0 0 1 382.3133 205.9636)" class="st8 st11 st14">00.4%</text>
								</g>
								<g>
									<text transform="matrix(1 0 0 1 382.3133 227.2146)" class="st8 st11 st14">0%</text>
								</g>
								<g>
									<text transform="matrix(1 0 0 1 382.3133 248.4646)" class="st8 st11 st14">0%</text>
								</g>
								<g>
									<text transform="matrix(1 0 0 1 382.3133 269.7126)" class="st8 st11 st14">0%</text>
								</g>
								<g>
									<text transform="matrix(1 0 0 1 382.3133 290.2771)" class="st8 st11 st14">0%</text>
								</g>
								<g>
									<text transform="matrix(1 0 0 1 382.3133 310.6638)" class="st15 st11 st14">0%</text>
								</g>
								<g>
									<text transform="matrix(1 0 0 1 382.3133 331.9128)" class="st8 st11 st14">0%</text>
									<rect x="482.7" y="324.9" class="st8" width="94.6" height="6.8"/>
								</g>
							</g>
						</g>
					</g>
				</g>
			</g>
			<g>
				<g>
					<defs>
						<rect id="SVGID_3_" x="319.6" y="49.7" width="413.8" height="265.1"/>
					</defs>
					<clipPath id="SVGID_4_">
						<use xlink:href="#SVGID_3_"  style="overflow:visible;"/>
					</clipPath>
					<g class="st16">
						<text transform="matrix(1 0 0 1 597.6898 246.3914)" class="st8 st11 st17">HP238 1112</text>
					</g>
				</g>
			</g>
			<g>
				<g>
					<defs>
						<rect id="SVGID_5_" x="319.6" y="49.7" width="413.8" height="265.1"/>
					</defs>
					<clipPath id="SVGID_6_">
						<use xlink:href="#SVGID_5_"  style="overflow:visible;"/>
					</clipPath>
					<g class="st18">
						<text transform="matrix(1 0 0 1 597.6898 268.4626)" class="st8 st11 st17">HP238 1112</text>
					</g>
				</g>
			</g>
			<g>
				<g>
					<defs>
						<rect id="SVGID_7_" x="319.6" y="49.7" width="413.8" height="265.1"/>
					</defs>
					<clipPath id="SVGID_8_">
						<use xlink:href="#SVGID_7_"  style="overflow:visible;"/>
					</clipPath>
					<g class="st19">
						<text transform="matrix(1 0 0 1 597.6898 289.53)" class="st8 st11 st17">HP238 1112</text>
					</g>
				</g>
			</g>
			<g>
				<g>
					<defs>
						<rect id="SVGID_9_" x="319.6" y="49.7" width="413.8" height="265.1"/>
					</defs>
					<clipPath id="SVGID_10_">
						<use xlink:href="#SVGID_9_"  style="overflow:visible;"/>
					</clipPath>
					<g class="st20">
						<text transform="matrix(1 0 0 1 597.6898 308.5886)" class="st8 st11 st17">HP238 1112</text>
					</g>
				</g>
			</g>
			<g>
				<g>
					<defs>
						<rect id="SVGID_11_" x="319.6" y="49.7" width="413.8" height="265.1"/>
					</defs>
					<clipPath id="SVGID_12_">
						<use xlink:href="#SVGID_11_"  style="overflow:visible;"/>
					</clipPath>
					<g class="st21">
						<text transform="matrix(1 0 0 1 597.6898 330.6599)" class="st8 st11 st17">HP238 1112</text>
					</g>
				</g>
			</g>
			<g>
				<g>
					<defs>
						<rect id="SVGID_13_" x="319.6" y="49.7" width="413.8" height="265.1"/>
					</defs>
					<clipPath id="SVGID_14_">
						<use xlink:href="#SVGID_13_"  style="overflow:visible;"/>
					</clipPath>
					<g class="st22">
						<text transform="matrix(1 0 0 1 597.6898 120.988)" class="st8 st11 st17">HP238 1112</text>
					</g>
				</g>
			</g>
			<g>
				<g>
					<defs>
						<rect id="SVGID_15_" x="319.6" y="49.7" width="413.8" height="265.1"/>
					</defs>
					<clipPath id="SVGID_16_">
						<use xlink:href="#SVGID_15_"  style="overflow:visible;"/>
					</clipPath>
					<g class="st23">
						<text transform="matrix(1 0 0 1 597.6898 140.0505)" class="st8 st11 st17">HP238 1112</text>
					</g>
				</g>
			</g>
			<g>
				<g>
					<defs>
						<rect id="SVGID_17_" x="319.6" y="49.7" width="413.8" height="265.1"/>
					</defs>
					<clipPath id="SVGID_18_">
						<use xlink:href="#SVGID_17_"  style="overflow:visible;"/>
					</clipPath>
					<g class="st24">
						<text transform="matrix(1 0 0 1 597.6898 162.1208)" class="st8 st11 st17">HP238 1112</text>
					</g>
				</g>
			</g>
			<g>
				<g>
					<defs>
						<rect id="SVGID_19_" x="319.6" y="49.7" width="413.8" height="265.1"/>
					</defs>
					<clipPath id="SVGID_20_">
						<use xlink:href="#SVGID_19_"  style="overflow:visible;"/>
					</clipPath>
					<g class="st25">
						<text transform="matrix(1 0 0 1 597.6898 183.1892)" class="st8 st11 st17">HP238 1112</text>
					</g>
				</g>
			</g>
			<g>
				<g>
					<defs>
						<rect id="SVGID_21_" x="319.6" y="49.7" width="413.8" height="265.1"/>
					</defs>
					<clipPath id="SVGID_22_">
						<use xlink:href="#SVGID_21_"  style="overflow:visible;"/>
					</clipPath>
					<g class="st26">
						<text transform="matrix(1 0 0 1 597.6898 205.2595)" class="st8 st11 st17">HP238 1112</text>
					</g>
				</g>
			</g>
			<g>
				<g>
					<defs>
						<rect id="SVGID_23_" x="319.6" y="49.7" width="413.8" height="265.1"/>
					</defs>
					<clipPath id="SVGID_24_">
						<use xlink:href="#SVGID_23_"  style="overflow:visible;"/>
					</clipPath>
					<g class="st27">
						<text transform="matrix(1 0 0 1 597.6898 226.325)" class="st8 st11 st17">HP238 1112</text>
					</g>
				</g>
			</g>
			<g>
				<g>
					<defs>
						<rect id="SVGID_25_" x="319.6" y="49.7" width="413.8" height="265.1"/>
					</defs>
					<clipPath id="SVGID_26_">
						<use xlink:href="#SVGID_25_"  style="overflow:visible;"/>
					</clipPath>
					<g class="st28">
						<text transform="matrix(1 0 0 1 482.8514 246.3914)" class="st8 st11 st17">HP238 1112</text>
					</g>
				</g>
			</g>
			<g>
				<g>
					<defs>
						<rect id="SVGID_27_" x="319.6" y="49.7" width="413.8" height="265.1"/>
					</defs>
					<clipPath id="SVGID_28_">
						<use xlink:href="#SVGID_27_"  style="overflow:visible;"/>
					</clipPath>
					<g class="st29">
						<text transform="matrix(1 0 0 1 482.8514 268.4626)" class="st8 st11 st17">HP238 1112</text>
					</g>
				</g>
			</g>
			<g>
				<g>
					<defs>
						<rect id="SVGID_29_" x="319.6" y="49.7" width="413.8" height="265.1"/>
					</defs>
					<clipPath id="SVGID_30_">
						<use xlink:href="#SVGID_29_"  style="overflow:visible;"/>
					</clipPath>
					<g class="st30">
						<text transform="matrix(1 0 0 1 482.8514 289.53)" class="st8 st11 st17">HP238 1112</text>
					</g>
				</g>
			</g>
			<g>
				<g>
					<defs>
						<rect id="SVGID_31_" x="319.6" y="49.7" width="413.8" height="265.1"/>
					</defs>
					<clipPath id="SVGID_32_">
						<use xlink:href="#SVGID_31_"  style="overflow:visible;"/>
					</clipPath>
					<g class="st31">
						<text transform="matrix(1 0 0 1 482.8514 308.5886)" class="st8 st11 st17">HP238 1112</text>
					</g>
				</g>
			</g>
			<g>
				<g>
					<defs>
						<rect id="SVGID_33_" x="319.6" y="49.7" width="413.8" height="265.1"/>
					</defs>
					<clipPath id="SVGID_34_">
						<use xlink:href="#SVGID_33_"  style="overflow:visible;"/>
					</clipPath>
					<g class="st32">
						<text transform="matrix(1 0 0 1 482.8514 330.6599)" class="st8 st11 st17">HP238 1112</text>
					</g>
				</g>
			</g>
			<g>
				<g>
					<defs>
						<rect id="SVGID_35_" x="319.6" y="49.7" width="413.8" height="265.1"/>
					</defs>
					<clipPath id="SVGID_36_">
						<use xlink:href="#SVGID_35_"  style="overflow:visible;"/>
					</clipPath>
					<g class="st33">
						<text transform="matrix(1 0 0 1 482.8514 120.988)" class="st8 st11 st17">CLINIC #222</text>
					</g>
				</g>
			</g>
			<g>
				<g>
					<defs>
						<rect id="SVGID_37_" x="319.6" y="49.7" width="413.8" height="265.1"/>
					</defs>
					<clipPath id="SVGID_38_">
						<use xlink:href="#SVGID_37_"  style="overflow:visible;"/>
					</clipPath>
					<g class="st34">
						<text transform="matrix(1 0 0 1 482.8514 140.0505)" class="st8 st11 st17">CLINIC #122</text>
					</g>
				</g>
			</g>
			<g>
				<g>
					<defs>
						<rect id="SVGID_39_" x="319.6" y="49.7" width="413.8" height="265.1"/>
					</defs>
					<clipPath id="SVGID_40_">
						<use xlink:href="#SVGID_39_"  style="overflow:visible;"/>
					</clipPath>
					<g class="st35">
						<text transform="matrix(1 0 0 1 482.8514 162.1208)" class="st8 st11 st17">CLINIC #41233</text>
					</g>
				</g>
			</g>
			<g>
				<g>
					<defs>
						<rect id="SVGID_41_" x="319.6" y="49.7" width="413.8" height="265.1"/>
					</defs>
					<clipPath id="SVGID_42_">
						<use xlink:href="#SVGID_41_"  style="overflow:visible;"/>
					</clipPath>
					<g class="st36">
						<text transform="matrix(1 0 0 1 482.8514 183.1892)" class="st8 st11 st17">CLINIC #4224</text>
					</g>
				</g>
			</g>
			<g>
				<g>
					<defs>
						<rect id="SVGID_43_" x="319.6" y="49.7" width="413.8" height="265.1"/>
					</defs>
					<clipPath id="SVGID_44_">
						<use xlink:href="#SVGID_43_"  style="overflow:visible;"/>
					</clipPath>
					<g class="st37">
						<text transform="matrix(1 0 0 1 482.8514 205.2595)" class="st8 st11 st17">CLINIC #420420</text>
					</g>
				</g>
			</g>
			<g>
				<g>
					<defs>
						<rect id="SVGID_45_" x="319.6" y="49.7" width="413.8" height="265.1"/>
					</defs>
					<clipPath id="SVGID_46_">
						<use xlink:href="#SVGID_45_"  style="overflow:visible;"/>
					</clipPath>
					<g class="st38">
						<text transform="matrix(1 0 0 1 482.8514 226.325)" class="st8 st11 st17">HP238 1112</text>
					</g>
				</g>
			</g>
		</g>
		<g>
			<circle class="st39" cx="366.3" cy="117.5" r="4.2"/>
			<circle class="st39" cx="366.3" cy="137.2" r="4.2"/>
			<circle class="st40" cx="366.5" cy="159.7" r="4.2"/>
			<circle class="st40" cx="366.5" cy="179.4" r="4.2"/>
			<circle class="st40" cx="366.5" cy="201.8" r="4.2"/>
			<circle class="st40" cx="366.5" cy="223.3" r="4.2"/>
			<circle class="st40" cx="366.5" cy="243.9" r="4.2"/>
			<circle class="st40" cx="366.5" cy="266.2" r="4.2"/>
			<circle class="st40" cx="366.5" cy="287.7" r="4.2"/>
		</g>
		<g>
			<text transform="matrix(1 0 0 1 382.1673 123.2654)" class="st8 st11 st41">90.5%</text>
		</g>
		<g>
			<text transform="matrix(1 0 0 1 382.1673 143.0544)" class="st8 st11 st41">56.3%</text>
		</g>
	</g>
</g>
<g id="fridges">
	<g>
		<g>
			<polygon class="st42" points="16,171.1 16.1,171.1 16,171.2 			"/>
			<polygon class="st42" points="114.3,171.1 114.3,171.2 114.3,171.1 			"/>
			<polygon class="st42" points="114.6,171.2 113.6,226.4 16.7,226.4 15.7,171.2 22.7,155.2 107.7,155.2 			"/>
		</g>
		<ellipse class="st43" cx="105.7" cy="191.7" rx="3.4" ry="2.9"/>
		<ellipse class="st44" cx="105.7" cy="199.7" rx="3.4" ry="2.9"/>
		<path class="st44" d="M109,191.7c0-1.6-1.5-2.9-3.4-2.9s-3.4,1.3-3.4,2.9H109z"/>
		<ellipse class="st8" cx="105.7" cy="187" rx="0.3" ry="0.2"/>
		<polygon class="st42" points="40.3,192.8 19.5,192.8 19.2,179.2 40.3,179.2 		"/>
		<rect x="104.1" y="182.3" class="st8" width="3.2" height="3.1"/>
		<line class="st42" x1="15.8" y1="171.5" x2="114.8" y2="171.5"/>
		<line class="st42" x1="114.2" y1="176.6" x2="16.1" y2="176.6"/>
		<path class="st42" d="M76.4,176.8c0,0-0.3,2.7,0.8,3.3c1.2,0.7,2.8-0.2,2.8-3.3"/>
		<g>
			<path class="st45" d="M65.5,176.9c-3.6,0-6.1,0-7.3-0.1c-3.7-0.3-4.9-1-5.2-1.2c-0.4-0.2-0.5-0.6-0.4-1c0.1-0.5,0.6-0.8,1.2-0.8
				h24c1.5,0,2.3,0.2,2.7,0.7c0.4,0.4,0.4,1,0.4,1.3l0,0.2c0,0.3-0.1,0.9-1.2,0.9l-0.1,0l-0.1-0.6l0,0.6c-5.1,0.1-9.4,0.1-12.9,0.1
				L65.5,176.9z"/>
			<path class="st8" d="M77.7,174.2c2.9,0,2.6,0.8,2.6,1.7c0,0.3-0.3,0.3-0.6,0.3c-0.1,0-0.2,0-0.2,0c0,0,0,0,0,0
				c-1.8,0-7.7,0.1-12.9,0.1c-0.3,0-0.7,0-1,0c-3.1,0-5.9,0-7.3-0.1c-4.1-0.3-4.9-1.1-4.9-1.1c-0.5-0.3-0.2-0.8,0.4-0.8h12.8H77.7
				 M77.7,173.1H66.5H53.7c-0.8,0-1.5,0.5-1.7,1.2c-0.2,0.6,0.1,1.3,0.6,1.6c0.5,0.4,1.8,1.1,5.5,1.3c1.2,0.1,3.7,0.1,7.3,0.1l1,0
				c4.8,0,10.1-0.1,12.9-0.1l0.1,0l0.1,0c1.7,0,1.7-1.3,1.7-1.4c0-0.1,0-0.1,0-0.2c0-0.4,0-1.2-0.5-1.7
				C80.3,173.4,79.4,173.1,77.7,173.1L77.7,173.1z"/>
		</g>
		<ellipse class="st8" cx="78" cy="178.1" rx="0.4" ry="0.4"/>
	</g>
	<g>
		<path class="st46" d="M24.5,68.9"/>
		<path class="st42" d="M101.6,44.5H29.2c-2.3,0-4.3,1.5-4.9,3.8l-4.1,15.6c-0.7,3.4-1,6.9-0.9,10.4l1.7,37.4
			c0.1,3.2,2.8,5.8,6.1,5.8h1.3c1.1,0,2.2-0.5,2.9-1.3l0.8-0.9c1.1-1.3,2.8-2,4.5-2h28.8h28.8c1.7,0,3.3,0.7,4.5,2l0.8,0.9
			c0.7,0.8,1.8,1.3,2.9,1.3h1.3c3.2,0,5.9-2.6,6.1-5.8l1.7-37.4c0.2-3.5-0.1-7-0.9-10.4l-4.2-15.6C105.8,46,103.8,44.5,101.6,44.5z"
			/>
		<path class="st42" d="M106.3,68.9c2.7,0,4.7-2.5,4.2-5.1c0,0,0,0,0-0.1l-4.2-15.6c-0.6-2.2-2.5-3.7-4.8-3.7H29.2
			c-2.3,0-4.3,1.5-4.9,3.8l-4.1,15.6c0,0,0,0,0,0.1c-0.6,2.6,1.5,5.1,4.2,5.1H106.3z"/>
		<path class="st46" d="M36,104.3"/>
		<path class="st47" d="M93.4,84.5h-16c-0.7,0-1.2,0.5-1.2,1.2v7.9c0,0.7,0.5,1.2,1.2,1.2h15.6c0.6,0,1.2-0.5,1.2-1.2l0.4-7.9
			C94.7,85.1,94.1,84.5,93.4,84.5z"/>
		<path class="st42" d="M76.2,89.7v3.9c0,0.7,0.5,1.2,1.2,1.2h15.6c0.6,0,1.2-0.5,1.2-1.2l0.2-4H76.2z"/>
		<polygon class="st48" points="32.4,80.4 32.6,83 48.6,83 48.6,80.6 		"/>
		<path class="st46" d="M56,82.1l-2.2,3.3c-0.6,0.8-1.5,1.3-2.5,1.3H35.9c-1.7,0-3.1,1.4-3,3.2l0.5,11.8c0.1,1.6,1.4,2.9,3,2.9h34.2
			c1,0,1.9-0.5,2.5-1.3l2.2-3.3c0.6-0.8,1.5-1.3,2.5-1.3h16.7c1.6,0,3-1.3,3-2.9l0.5-11.8c0.1-1.7-1.3-3.2-3-3.2H58.5
			C57.5,80.7,56.6,81.2,56,82.1z"/>
		<path class="st8" d="M99.4,116.1l-0.8-0.9c-1.1-1.3-2.8-2-4.5-2H65.4H36.6c-1.7,0-3.3,0.7-4.5,2l-0.8,0.9
			c-0.1,0.1-0.2,0.2-0.3,0.3h34.4h34.4C99.6,116.3,99.5,116.2,99.4,116.1z"/>
		<path class="st42" d="M106.3,68.9c2.7,0,4.7-2.5,4.2-5.1c0,0,0,0,0-0.1l-4.2-15.6c-0.6-2.2-2.5-3.7-4.8-3.7H29.2
			c-2.3,0-4.3,1.5-4.9,3.8l-4.1,15.6c0,0,0,0,0,0.1c-0.6,2.6,1.5,5.1,4.2,5.1H106.3z"/>
		<path class="st46" d="M67,65.2"/>
		<path class="st46" d="M19.9,65.2"/>
		<path class="st42" d="M68.6,43.1H28.2c-1.6,0-3,1.1-3.4,2.8l-4.4,17.7l-0.2,0.9c-0.5,2.3,1.2,4.5,3.5,4.5h44.8
			c1.9,0,3.5-1.7,3.5-3.7l0.1-18.4C72.1,44.8,70.5,43.1,68.6,43.1z"/>
		<g>
			<path class="st42" d="M77.4,43.1h25.3c1.6,0,3,1.1,3.4,2.8l4.4,17.7l0.2,0.9c0.5,2.3-1.2,4.5-3.5,4.5H77.5
				c-1.9,0-3.5-1.7-3.5-3.7l-0.1-18.4C73.8,44.8,75.4,43.1,77.4,43.1z"/>
		</g>
		<path class="st42" d="M67.9,64.1H25.1c-1.3,0-2.2-1.2-1.9-2.6l3.6-17c0.2-1,1-1.6,1.9-1.6h39.2c1.1,0,2,0.9,2,2.1v17
			C69.9,63.2,69,64.1,67.9,64.1z"/>
		<line class="st46" x1="23.2" y1="62.8" x2="20.8" y2="67.3"/>
		<line class="st46" x1="69.8" y1="62.7" x2="71" y2="67.7"/>
		<line class="st46" x1="75.9" y1="62.3" x2="74.9" y2="67.6"/>
		<path class="st42" d="M34.7,65.8h-1.1c-0.8,0-1.5,0.7-1.5,1.5v3.1h4v-3.1C36.2,66.4,35.5,65.8,34.7,65.8z"/>
		<path class="st42" d="M34.7,77.5h-1.1c-0.8,0-1.5-0.7-1.5-1.5v-5.7h4V76C36.2,76.8,35.5,77.5,34.7,77.5z"/>
		<path class="st8" d="M34.2,76.1L34.2,76.1c0.4,0,0.8-0.4,0.8-0.8v-7h-1.6v7C33.4,75.7,33.8,76.1,34.2,76.1z"/>
		<path class="st42" d="M56.9,66h-1.1c-0.8,0-1.5,0.7-1.5,1.5v2.9h4v-2.9C58.4,66.6,57.7,66,56.9,66z"/>
		<path class="st42" d="M56.9,77.5h-1.1c-0.8,0-1.5-0.7-1.5-1.5v-5.7h4V76C58.4,76.8,57.7,77.5,56.9,77.5z"/>
		<path class="st8" d="M56.4,76.1L56.4,76.1c0.4,0,0.8-0.4,0.8-0.8v-7h-1.6v7C55.6,75.7,55.9,76.1,56.4,76.1z"/>
		<path class="st42" d="M84.7,66h-1.1c-0.8,0-1.5,0.7-1.5,1.5v2.9h4v-2.9C86.1,66.6,85.5,66,84.7,66z"/>
		<path class="st42" d="M84.7,77.5h-1.1c-0.8,0-1.5-0.7-1.5-1.5v-5.7h4V76C86.1,76.8,85.5,77.5,84.7,77.5z"/>
		<path class="st8" d="M84.1,76.1L84.1,76.1c0.4,0,0.8-0.4,0.8-0.8v-7h-1.6v7C83.3,75.7,83.7,76.1,84.1,76.1z"/>
		<path class="st42" d="M100,66H99c-0.8,0-1.5,0.7-1.5,1.5v2.9h4v-2.9C101.5,66.6,100.9,66,100,66z"/>
		<path class="st42" d="M100,77.5H99c-0.8,0-1.5-0.7-1.5-1.5v-5.7h4V76C101.5,76.8,100.9,77.5,100,77.5z"/>
		<path class="st8" d="M99.5,76.1L99.5,76.1c0.4,0,0.8-0.4,0.8-0.8v-7h-1.6v7C98.7,75.7,99.1,76.1,99.5,76.1z"/>
		<line class="st46" x1="107.7" y1="63" x2="110" y2="67.5"/>
		<path class="st42" d="M77.9,64.1H106c1.3,0,2.2-1.2,1.9-2.6l-3.6-17c-0.2-1-1-1.6-1.9-1.6H77.9c-1.1,0-2,0.9-2,2.1v17
			C75.9,63.2,76.8,64.1,77.9,64.1z"/>
		<path class="st8" d="M52.8,55.6H42.1c-0.3,0-0.6-0.3-0.5-0.6l0.4-5.2c0-0.3,0.3-0.5,0.5-0.5h10.2c0.3,0,0.5,0.2,0.5,0.5l0,5.2
			C53.3,55.4,53.1,55.6,52.8,55.6z"/>
	</g>
	<g>
		<polygon class="st49" points="96.6,275.7 91.3,258.5 41.5,258.5 36.7,275.7 36.7,276 38.2,336.8 95.2,336.8 96.6,276 		"/>
		<line class="st50" x1="37.4" y1="286.9" x2="96.1" y2="286.9"/>
		<polygon class="st8" points="95.6,330.7 37.9,330.7 37.9,315.9 96,315.9 		"/>
		<g>
			<path class="st51" d="M47.1,282l-0.1-2.1c0-0.2,0.2-0.4,0.5-0.4h36.4c0.3,0,0.5,0.2,0.5,0.4v2.1c0,0.2-0.2,0.4-0.5,0.4H47.6
				C47.3,282.4,47.1,282.2,47.1,282z"/>
			<path class="st51" d="M80,290.3h-0.3c-1,0-1.7-0.8-1.7-1.7v-6.9c0-1,0.8-1.7,1.7-1.7H80c1,0,1.7,0.8,1.7,1.7v6.9
				C81.8,289.6,81,290.3,80,290.3z"/>
			<path class="st51" d="M84.3,283.3h-8.5c-0.2,0-0.3-0.1-0.3-0.3v-3.8c0-0.2,0.1-0.3,0.3-0.3h8.6c0.2,0,0.3,0.1,0.3,0.3l-0.1,3.8
				C84.6,283.1,84.5,283.3,84.3,283.3z"/>
			<ellipse class="st8" cx="79.9" cy="286.4" rx="0.5" ry="0.4"/>
		</g>
		<g>
			<path class="st52" d="M89.4,326.8H78.5c-1.1,0-2.1-0.9-2.1-2l-0.1-6c0-1.1,0.9-2,2.1-2h11.1c1.1,0,2.1,0.9,2.1,2l-0.2,6
				C91.5,325.9,90.5,326.8,89.4,326.8z"/>
			<polygon class="st8" points="89.5,321.1 82.1,321.1 82.1,319.2 89.6,319.2 			"/>
			<polygon class="st8" points="81.6,321.1 78.5,321.1 78.4,319.2 81.6,319.2 			"/>
		</g>
		<g>
			<ellipse class="st53" cx="83.9" cy="299.7" rx="4.7" ry="4.1"/>
			<path class="st8" d="M88.7,299.7h-9.4l0,0c0-2.2,2.1-4.1,4.7-4.1S88.6,297.4,88.7,299.7L88.7,299.7z"/>
		</g>
		<line class="st54" x1="36.7" y1="276" x2="96.1" y2="276"/>
	</g>
</g>
</svg>
