<?xml version="1.0" encoding="utf-8"?>
<!-- Generator: Adobe Illustrator 24.0.0, SVG Export Plug-In . SVG Version: 6.00 Build 0)  -->
<svg version="1.1" xmlns="http://www.w3.org/2000/svg" xmlns:xlink="http://www.w3.org/1999/xlink" x="0px" y="0px"
	 viewBox="0 0 307.5 330.9" style="enable-background:new 0 0 307.5 330.9;" xml:space="preserve">
<style type="text/css">
	
		.st0{fill:none;stroke:#E6E6E6;stroke-width:3;stroke-linecap:round;stroke-linejoin:round;stroke-miterlimit:10;stroke-dasharray:0.1,12;}
	.st1{fill:#FFFFFF;}
	.st2{fill:#82342F;}
	.st3{font-family:'Navigo-Bold';}
	.st4{font-size:5.6701px;}
	.st5{fill:#FFFFFF;stroke:#09638A;stroke-width:1.5;stroke-miterlimit:10;}
	.st6{fill:#00ABE8;}
	.st7{fill:#28AAE1;}
	.st8{fill:#09638A;}
	.st9{fill:#F4EDED;stroke:#82342F;stroke-width:0.7778;stroke-miterlimit:10;}
	.st10{fill:none;stroke:#82342F;stroke-width:0.8395;stroke-miterlimit:10;}
	.st11{fill:#82342F;stroke:#82342F;stroke-width:0.8395;stroke-miterlimit:10;}
	.st12{fill:#F4EDED;}
	.st13{fill:none;stroke:#82342F;stroke-width:0.6044;stroke-miterlimit:10;}
	.st14{fill:#F4EDED;stroke:#82342F;stroke-width:0.7555;stroke-miterlimit:10;}
	.st15{fill:#82342F;stroke:#82342F;stroke-width:0.7555;stroke-miterlimit:10;}
	.st16{fill:#82342F;stroke:#82342F;stroke-width:0.6044;stroke-miterlimit:10;}
	.st17{fill:#F4EDED;stroke:#82342F;stroke-width:0.7376;stroke-miterlimit:10;}
	.st18{fill:none;stroke:#82342F;stroke-width:0.8004;stroke-miterlimit:10;}
	.st19{fill:#F4EDED;stroke:#82342F;stroke-width:0.7278;stroke-miterlimit:10;}
	.st20{fill:#FFFFFF;stroke:#82342F;stroke-width:0.7785;stroke-miterlimit:10;}
	.st21{fill:#F4EDED;stroke:#82342F;stroke-width:0.739;stroke-miterlimit:10;}
	.st22{fill:none;stroke:#82342F;stroke-width:0.739;stroke-miterlimit:10;}
</style>
<g id="Layer_1">
	<g>
		<line class="st0" x1="164.4" y1="197.5" x2="266.4" y2="56.8"/>
		<line class="st0" x1="35.5" y1="59.6" x2="134.6" y2="199.1"/>
		<line class="st0" x1="148.6" y1="57.4" x2="148.6" y2="202.4"/>
	</g>
	<g>
		<g>
			<path class="st1" d="M275.1,329.4H27V178.6c0-8.7,7-15.7,15.7-15.7h232.4L275.1,329.4L275.1,329.4z"/>
			<rect x="36.8" y="172" class="st2" width="228.1" height="138.3"/>
			<rect x="64.7" y="162" class="st2" width="8.6" height="1.6"/>
			<rect x="27.1" y="296.6" class="st2" width="1.6" height="21.9"/>
			<path class="st2" d="M263.9,163.6c5.3,0,9.6,4.3,9.6,9.5v145.3h1.6V173.1c0-6.1-5-11.1-11.1-11.1H74.9v1.6H263.9z"/>
			<rect x="27.1" y="247" class="st2" width="1.6" height="8.8"/>
			<rect x="27.1" y="257.4" class="st2" width="1.6" height="37.7"/>
			<path class="st2" d="M27.1,173.1v72.3h1.6v-72.3c0-5.3,4.3-9.5,9.5-9.5h25V162h-25C32.1,162,27.1,167,27.1,173.1z"/>
			<polygon class="st2" points="27.1,255.8 27.1,255.8 28.7,255.8 28.7,255.8 			"/>
			<rect x="73.4" y="162" class="st2" width="1.6" height="1.6"/>
			<polygon class="st2" points="27.1,257.4 27.1,257.4 28.7,257.4 28.7,257.4 			"/>
			<rect x="27.1" y="295.1" class="st2" width="1.6" height="1.6"/>
			<rect x="27.1" y="255.8" class="st2" width="1.6" height="1.6"/>
			<rect x="27.1" y="245.4" class="st2" width="1.6" height="1.6"/>
			<rect x="63.2" y="162" class="st2" width="1.6" height="1.6"/>
			<path class="st2" d="M275,318.5v1.6h26.8v2.3c0,3.9-3.1,7-7,7H7.3c-3.9,0-7-3.1-7-7V320h26.8v-1.6H-1.3v3.9
				c0,4.7,3.8,8.6,8.5,8.6h287.5c4.7,0,8.6-3.8,8.6-8.6v-3.9H275V318.5z"/>
			<path class="st2" d="M127.6,320c0-0.3-0.1-0.5-0.1-0.8v-0.7h-99H27v1.6h100.6V320z"/>
			<path class="st2" d="M174.5,318.5v0.7c0,0.3,0,0.5-0.1,0.8h100.5v-1.6h-1.5h-98.9V318.5z"/>
			<rect x="36.6" y="257.4" class="st2" width="1.6" height="37.7"/>
			<rect x="36.6" y="247" class="st2" width="1.6" height="8.8"/>
			<polygon class="st2" points="263.9,172.3 263.9,309.7 38.2,309.7 38.2,296.6 36.6,296.6 36.6,311.3 265.5,311.3 265.5,170.8 
				74.9,170.8 74.9,172.3 			"/>
			<rect x="64.7" y="170.8" class="st2" width="8.6" height="1.6"/>
			<polygon class="st2" points="36.6,245.4 38.2,245.4 38.2,172.3 63.2,172.3 63.2,170.8 36.6,170.8 			"/>
			<rect x="73.4" y="170.8" class="st2" width="1.6" height="1.6"/>
			<polygon class="st2" points="36.6,255.8 38.2,255.8 38.2,255.8 			"/>
			<polygon class="st2" points="38.2,257.4 36.6,257.4 36.6,257.4 			"/>
			<rect x="36.6" y="295.1" class="st2" width="1.6" height="1.6"/>
			<rect x="36.6" y="255.8" class="st2" width="1.6" height="1.6"/>
			<rect x="63.2" y="170.8" class="st2" width="1.6" height="1.6"/>
			<rect x="36.6" y="245.4" class="st2" width="1.6" height="1.6"/>
			<path class="st2" d="M132.6,324.3h36.9c2.5,0,4.6-1.9,5-4.3h-1.6c-0.4,1.6-1.7,2.7-3.4,2.7h-36.9c-1.7,0-3-1.2-3.4-2.7h-1.6
				C128,322.4,130.1,324.3,132.6,324.3z"/>
			<path class="st2" d="M172.9,320h1.6c0-0.3,0.1-0.5,0.1-0.8v-0.7h-46.9v0.7c0,0.3,0,0.5,0.1,0.8h1.6H172.9z"/>
		</g>
		<g>
			<text transform="matrix(1 0 0 1 75.8302 209.1779)" class="st2 st3 st4">90.5%</text>
		</g>
		<g>
			<text transform="matrix(1 0 0 1 75.8302 219.5175)" class="st2 st3 st4">56.3%</text>
		</g>
	</g>
</g>
<g id="varo3">
	<g>
		<path class="st5" d="M78,88.8l0,27.5c0,1.3-1,2.4-2.4,2.4l-23.8,0c-1.3,0-2.4-1-2.4-2.4l0-33c0-1.3,1-2.4,2.4-2.4l20,0
			c0.8,0,1.5,0.3,1.9,1l1.6,2.2l2.3,3.2c0.1,0.1,0.1,0.3,0.3,0.4C78,88.1,78,88.4,78,88.8z"/>
		<path class="st5" d="M77.7,89.1l-4.8,0c-0.7,0-1.3-0.6-1.3-1.3l0-6.8"/>
		<path class="st6" d="M63,91.7c5.3,0.1,9,3.9,9.1,9.1c0,0.1-0.1,0.3-0.3,0.3l-1.8,0c-0.1,0-0.2-0.1-0.2-0.2
			c-0.1-3.7-3.2-6.8-6.9-6.9c-0.1,0-0.2-0.1-0.2-0.2l0-1.8C62.8,91.8,62.9,91.7,63,91.7z"/>
		<path class="st7" d="M63,98.5c-0.1,0-0.1,0.1-0.1,0.1l0,1.3l0,0.1l0,0.9c0,0.1,0.1,0.2,0.2,0.2l1,0l0,0c0.4,0,1,0,1.3,0
			c0.1,0,0.1-0.1,0.1-0.1C65.3,99.6,64.3,98.6,63,98.5z"/>
		<path class="st8" d="M63.2,94.9c3.3,0,6,2.7,6,5.9c0,3.2-2.7,5.9-6,5.9s-6-2.7-6-5.9C57.2,97.6,59.9,94.9,63.2,94.9z M63.2,103.6
			c1.5,0,2.8-1.3,2.8-2.9c0-1.6-1.3-2.9-2.8-2.9c-1.6,0-2.8,1.3-2.8,2.9C60.4,102.4,61.6,103.6,63.2,103.6z"/>
	</g>
</g>
<g id="varo2">
	<g>
		<path class="st5" d="M247.2,91.5l0,27.5c0,1.3-1,2.4-2.4,2.4l-23.8,0c-1.3,0-2.4-1-2.4-2.4l0-33c0-1.3,1-2.4,2.4-2.4l20,0
			c0.8,0,1.5,0.3,1.9,1l1.6,2.2l2.3,3.2c0.1,0.1,0.1,0.3,0.3,0.4C247.2,90.8,247.2,91.1,247.2,91.5z"/>
		<path class="st5" d="M247,91.8l-4.8,0c-0.7,0-1.3-0.6-1.3-1.3l0-6.8"/>
		<path class="st6" d="M232.3,94.4c5.3,0.1,9,3.9,9.1,9.1c0,0.1-0.1,0.3-0.3,0.3l-1.8,0c-0.1,0-0.2-0.1-0.2-0.2
			c-0.1-3.7-3.2-6.8-6.9-6.9c-0.1,0-0.2-0.1-0.2-0.2l0-1.8C232.1,94.6,232.2,94.4,232.3,94.4z"/>
		<path class="st7" d="M232.2,101.2c-0.1,0-0.1,0.1-0.1,0.1l0,1.3l0,0.1l0,0.9c0,0.1,0.1,0.2,0.2,0.2l1,0l0,0c0.4,0,1,0,1.3,0
			c0.1,0,0.1-0.1,0.1-0.1C234.6,102.4,233.6,101.3,232.2,101.2z"/>
		<path class="st8" d="M232.4,97.6c3.3,0,6,2.7,6,5.9c0,3.2-2.7,5.9-6,5.9s-6-2.7-6-5.9C226.5,100.3,229.1,97.6,232.4,97.6z
			 M232.4,106.4c1.5,0,2.8-1.3,2.8-2.9c0-1.6-1.3-2.9-2.8-2.9c-1.6,0-2.8,1.3-2.8,2.9C229.6,105.1,230.8,106.4,232.4,106.4z"/>
	</g>
</g>
<g id="varo1">
	<g>
		<path class="st5" d="M164.3,70.4l0,27.5c0,1.3-1,2.4-2.4,2.4l-23.8,0c-1.3,0-2.4-1-2.4-2.4l0-33c0-1.3,1-2.4,2.4-2.4l20,0
			c0.8,0,1.5,0.3,1.9,1l1.6,2.2l2.3,3.2c0.1,0.1,0.1,0.3,0.3,0.4C164.3,69.7,164.3,70,164.3,70.4z"/>
		<path class="st5" d="M164,70.7l-4.8,0c-0.7,0-1.3-0.6-1.3-1.3l0-6.8"/>
		<path class="st6" d="M149.3,73.3c5.3,0.1,9,3.9,9.1,9.1c0,0.1-0.1,0.3-0.3,0.3l-1.8,0c-0.1,0-0.2-0.1-0.2-0.2
			c-0.1-3.7-3.2-6.8-6.9-6.9c-0.1,0-0.2-0.1-0.2-0.2l0-1.8C149.1,73.4,149.2,73.3,149.3,73.3z"/>
		<path class="st7" d="M149.2,80.1c-0.1,0-0.1,0.1-0.1,0.1l0,1.3l0,0.1l0,0.9c0,0.1,0.1,0.2,0.2,0.2l1,0l0,0c0.4,0,1,0,1.3,0
			c0.1,0,0.1-0.1,0.1-0.1C151.6,81.2,150.6,80.2,149.2,80.1z"/>
		<path class="st8" d="M149.4,76.5c3.3,0,6,2.7,6,5.9c0,3.2-2.7,5.9-6,5.9s-6-2.7-6-5.9C143.5,79.1,146.1,76.5,149.4,76.5z
			 M149.4,85.2c1.5,0,2.8-1.3,2.8-2.9c0-1.6-1.3-2.9-2.8-2.9c-1.6,0-2.8,1.3-2.8,2.9C146.6,84,147.8,85.2,149.4,85.2z"/>
	</g>
</g>
<g id="fridges">
	<g>
		<g>
			<polygon class="st9" points="116.7,11.7 116.7,11.7 116.7,11.7 			"/>
			<polygon class="st9" points="185.2,11.7 185.2,11.7 185.1,11.7 			"/>
			<polygon class="st9" points="185.4,11.7 184.7,50.2 117.1,50.2 116.4,11.7 121.3,0.6 180.5,0.6 			"/>
		</g>
		<ellipse class="st10" cx="179.2" cy="26" rx="2.3" ry="2"/>
		<ellipse class="st11" cx="179.2" cy="31.6" rx="2.3" ry="2"/>
		<path class="st11" d="M181.5,26c0-1.1-1-2-2.3-2c-1.3,0-2.3,0.9-2.3,2H181.5z"/>
		<ellipse class="st2" cx="179.2" cy="22.7" rx="0.2" ry="0.2"/>
		<polygon class="st9" points="133.6,26.8 119.1,26.8 118.9,17.3 133.6,17.3 		"/>
		<rect x="178.1" y="19.5" class="st2" width="2.2" height="2.2"/>
		<line class="st9" x1="116.5" y1="11.9" x2="185.5" y2="11.9"/>
		<line class="st9" x1="185.1" y1="15.5" x2="116.7" y2="15.5"/>
		<path class="st9" d="M158.7,15.6c0,0-0.2,1.9,0.6,2.3c0.9,0.5,1.9-0.2,1.9-2.3"/>
		<g>
			<path class="st12" d="M151.1,15.7c-2.5,0-4.2,0-5.1-0.1c-2.6-0.2-3.4-0.7-3.6-0.9c-0.3-0.2-0.4-0.5-0.3-0.7
				c0.1-0.3,0.4-0.6,0.8-0.6h16.7c1,0,1.6,0.1,1.9,0.5c0.3,0.3,0.3,0.7,0.3,0.9l0,0.1c0,0.2-0.1,0.6-0.8,0.6l-0.2,0
				c-1.3,0-5.4,0.1-9,0.1L151.1,15.7z"/>
			<path class="st2" d="M159.7,13.8c2,0,1.8,0.6,1.8,1.2c0,0.2-0.2,0.2-0.4,0.2c-0.1,0-0.1,0-0.2,0c0,0,0,0,0,0
				c-1.2,0-5.3,0.1-9,0.1c-0.2,0-0.5,0-0.7,0c-2.2,0-4.1,0-5.1-0.1c-2.9-0.2-3.4-0.8-3.4-0.8c-0.3-0.2-0.1-0.6,0.3-0.6h8.9H159.7
				 M159.7,13.1h-7.8h-8.9c-0.6,0-1,0.3-1.2,0.8c-0.1,0.4,0.1,0.9,0.4,1.1c0.3,0.3,1.3,0.8,3.8,0.9c0.8,0.1,2.6,0.1,5.1,0.1l0.7,0
				c3.3,0,7.1-0.1,9-0.1l0.1,0l0.1,0c1.2,0,1.2-0.9,1.2-1l0-0.1c0-0.3,0-0.8-0.4-1.2C161.5,13.2,160.8,13.1,159.7,13.1L159.7,13.1z"
				/>
		</g>
		<ellipse class="st2" cx="159.9" cy="16.5" rx="0.3" ry="0.3"/>
	</g>
	<g>
		<path class="st13" d="M4.3,18.2"/>
		<path class="st14" d="M56.5,1.7h-49c-1.5,0-2.9,1-3.3,2.5L1.4,14.8c-0.5,2.3-0.7,4.7-0.6,7L2,47.2c0.1,2.2,1.9,3.9,4.1,3.9h0.9
			c0.7,0,1.5-0.3,2-0.9l0.6-0.6c0.8-0.9,1.9-1.3,3-1.3H32h19.5c1.2,0,2.2,0.5,3,1.3l0.6,0.6c0.5,0.6,1.2,0.9,2,0.9h0.9
			c2.2,0,4-1.7,4.1-3.9l1.2-25.3c0.1-2.4-0.1-4.7-0.6-7L59.7,4.2C59.3,2.7,58,1.7,56.5,1.7z"/>
		<path class="st14" d="M59.7,18.2c1.8,0,3.2-1.7,2.8-3.4c0,0,0,0,0,0L59.7,4.2c-0.4-1.5-1.7-2.5-3.2-2.5h-49c-1.5,0-2.9,1-3.3,2.5
			L1.4,14.8c0,0,0,0,0,0c-0.4,1.8,1,3.4,2.8,3.4H59.7z"/>
		<path class="st13" d="M12.1,42.2"/>
		<path class="st15" d="M51,28.8H40.2c-0.5,0-0.8,0.4-0.8,0.8V35c0,0.5,0.4,0.8,0.8,0.8h10.6c0.4,0,0.8-0.3,0.8-0.8l0.2-5.3
			C51.8,29.2,51.5,28.8,51,28.8z"/>
		<path class="st14" d="M39.3,32.3V35c0,0.5,0.4,0.8,0.8,0.8h10.6c0.4,0,0.8-0.3,0.8-0.8l0.1-2.7H39.3z"/>
		<polygon class="st16" points="9.7,26 9.8,27.8 20.6,27.8 20.6,26.1 		"/>
		<path class="st13" d="M25.6,27.1l-1.5,2.2c-0.4,0.6-1,0.9-1.7,0.9H12c-1.2,0-2.1,1-2.1,2.1l0.4,8c0.1,1.1,1,2,2.1,2h23.1
			c0.7,0,1.3-0.3,1.7-0.9l1.5-2.2c0.4-0.6,1-0.9,1.7-0.9h11.3c1.1,0,2-0.9,2.1-2l0.4-8c0.1-1.2-0.9-2.1-2.1-2.1H27.3
			C26.6,26.2,26,26.6,25.6,27.1z"/>
		<path class="st2" d="M55,50.2l-0.6-0.6c-0.8-0.9-1.9-1.3-3-1.3H32H12.5c-1.2,0-2.2,0.5-3,1.3l-0.6,0.6c-0.1,0.1-0.1,0.1-0.2,0.2
			H32h23.3C55.2,50.3,55.1,50.3,55,50.2z"/>
		<path class="st14" d="M59.7,18.2c1.8,0,3.2-1.7,2.8-3.4c0,0,0,0,0,0L59.7,4.2c-0.4-1.5-1.7-2.5-3.2-2.5h-49c-1.5,0-2.9,1-3.3,2.5
			L1.4,14.8c0,0,0,0,0,0c-0.4,1.8,1,3.4,2.8,3.4H59.7z"/>
		<path class="st13" d="M33.1,15.8"/>
		<path class="st13" d="M1.2,15.8"/>
		<path class="st14" d="M34.1,0.7H6.8c-1.1,0-2,0.8-2.3,1.9l-3,12l-0.1,0.6c-0.3,1.6,0.8,3.1,2.3,3.1h30.4c1.3,0,2.4-1.1,2.4-2.5
			l0.1-12.5C36.5,1.9,35.5,0.7,34.1,0.7z"/>
		<g>
			<path class="st14" d="M40.1,0.7h17.1c1.1,0,2,0.8,2.3,1.9l3,12l0.1,0.6c0.3,1.6-0.8,3.1-2.3,3.1H40.2c-1.3,0-2.4-1.1-2.4-2.5
				L37.7,3.3C37.7,1.9,38.8,0.7,40.1,0.7z"/>
		</g>
		<path class="st14" d="M33.7,15h-29c-0.9,0-1.5-0.8-1.3-1.7L5.9,1.8C6,1.1,6.5,0.7,7.2,0.7h26.6c0.7,0,1.3,0.6,1.3,1.4v11.5
			C35.1,14.4,34.5,15,33.7,15z"/>
		<line class="st13" x1="3.4" y1="14.1" x2="1.8" y2="17.2"/>
		<line class="st13" x1="35" y1="14" x2="35.8" y2="17.4"/>
		<line class="st13" x1="39.1" y1="13.8" x2="38.4" y2="17.3"/>
		<path class="st14" d="M11.1,16.1h-0.5c-0.6,0-1.1,0.5-1.1,1.1v2h2.7v-2C12.2,16.6,11.7,16.1,11.1,16.1z"/>
		<path class="st14" d="M11.1,24h-0.5c-0.6,0-1.1-0.5-1.1-1.1v-3.7h2.7l0,3.7C12.2,23.5,11.7,24,11.1,24z"/>
		<path class="st2" d="M10.8,23.1H11c0.2,0,0.4-0.2,0.4-0.4v-4.8h-1.1v4.8C10.3,22.9,10.5,23.1,10.8,23.1z"/>
		<path class="st14" d="M26.1,16.2h-0.5c-0.6,0-1.1,0.5-1.1,1.1v1.9h2.7v-1.9C27.3,16.7,26.8,16.2,26.1,16.2z"/>
		<path class="st14" d="M26.1,24h-0.5c-0.6,0-1.1-0.5-1.1-1.1v-3.7h2.7v3.7C27.3,23.5,26.8,24,26.1,24z"/>
		<path class="st2" d="M25.8,23.1H26c0.2,0,0.4-0.2,0.4-0.4v-4.8h-1.1v4.8C25.4,22.9,25.6,23.1,25.8,23.1z"/>
		<path class="st14" d="M44.9,16.2h-0.5c-0.6,0-1.1,0.5-1.1,1.1v1.9H46v-1.9C46,16.7,45.5,16.2,44.9,16.2z"/>
		<path class="st14" d="M44.9,24h-0.5c-0.6,0-1.1-0.5-1.1-1.1v-3.7H46v3.7C46,23.5,45.5,24,44.9,24z"/>
		<path class="st2" d="M44.6,23.1h0.2c0.2,0,0.4-0.2,0.4-0.4v-4.8h-1.1v4.8C44.1,22.9,44.3,23.1,44.6,23.1z"/>
		<path class="st14" d="M55.3,16.2h-0.5c-0.6,0-1.1,0.5-1.1,1.1v1.9h2.7v-1.9C56.5,16.7,56,16.2,55.3,16.2z"/>
		<path class="st14" d="M55.3,24h-0.5c-0.6,0-1.1-0.5-1.1-1.1v-3.7h2.7v3.7C56.5,23.5,56,24,55.3,24z"/>
		<path class="st2" d="M55,23.1h0.2c0.2,0,0.4-0.2,0.4-0.4v-4.8h-1.1v4.8C54.5,22.9,54.7,23.1,55,23.1z"/>
		<line class="st13" x1="60.6" y1="14.2" x2="62.2" y2="17.3"/>
		<path class="st14" d="M40.5,15h19c0.9,0,1.5-0.8,1.3-1.7L58.3,1.8c-0.1-0.6-0.7-1.1-1.3-1.1H40.5c-0.7,0-1.3,0.6-1.3,1.4v11.5
			C39.1,14.4,39.7,15,40.5,15z"/>
		<path class="st2" d="M23.4,9.2h-7.2c-0.2,0-0.4-0.2-0.4-0.4l0.3-3.5c0-0.2,0.2-0.3,0.4-0.3h6.9c0.2,0,0.4,0.2,0.4,0.4l0,3.5
			C23.8,9.1,23.6,9.2,23.4,9.2z"/>
	</g>
	<g>
		<polygon class="st17" points="295.8,11.9 292.3,0.6 259.6,0.6 256.4,11.9 256.4,12.1 257.4,52.2 294.9,52.2 295.8,12.1 		"/>
		<line class="st18" x1="256.8" y1="19.3" x2="295.5" y2="19.3"/>
		<polygon class="st2" points="295.1,48.1 257.2,48.1 257.2,38.4 295.4,38.4 		"/>
		<g>
			<path class="st19" d="M263.3,16.1l-0.1-1.4c0-0.1,0.1-0.3,0.3-0.3h24c0.2,0,0.3,0.1,0.3,0.3v1.4c0,0.1-0.1,0.3-0.3,0.3h-23.9
				C263.4,16.3,263.3,16.2,263.3,16.1z"/>
			<path class="st19" d="M285,21.6h-0.4c-0.6,0-1.1-0.5-1.1-1.1v-4.7c0-0.6,0.5-1.1,1.1-1.1h0.4c0.6,0,1.1,0.5,1.1,1.1v4.7
				C286.1,21.1,285.6,21.6,285,21.6z"/>
			<path class="st19" d="M287.8,16.9h-5.6c-0.1,0-0.2-0.1-0.2-0.2v-2.5c0-0.1,0.1-0.2,0.2-0.2h5.7c0.1,0,0.2,0.1,0.2,0.2l-0.1,2.5
				C288,16.8,287.9,16.9,287.8,16.9z"/>
			<ellipse class="st2" cx="284.8" cy="18.9" rx="0.3" ry="0.3"/>
		</g>
		<g>
			<path class="st20" d="M291.1,45.6h-7.1c-0.8,0-1.4-0.6-1.4-1.3l-0.1-3.9c0-0.7,0.6-1.3,1.4-1.3h7.3c0.8,0,1.4,0.6,1.4,1.3
				l-0.1,3.9C292.4,45,291.8,45.6,291.1,45.6z"/>
			<polygon class="st2" points="291.2,41.8 286.3,41.8 286.3,40.5 291.2,40.5 			"/>
			<polygon class="st2" points="286,41.8 283.9,41.8 283.9,40.5 286,40.5 			"/>
		</g>
		<g>
			<ellipse class="st21" cx="287.5" cy="27.7" rx="3.1" ry="2.7"/>
			<path class="st2" d="M290.6,27.7h-6.2l0,0c0-1.5,1.4-2.7,3.1-2.7C289.2,25,290.6,26.2,290.6,27.7L290.6,27.7z"/>
		</g>
		<line class="st22" x1="256.4" y1="12.1" x2="295.5" y2="12.1"/>
	</g>
</g>
</svg>
