<?xml version="1.0" encoding="utf-8"?>
<!-- Generator: Adobe Illustrator 24.0.0, SVG Export Plug-In . SVG Version: 6.00 Build 0)  -->
<svg version="1.1" id="Layer_1" xmlns="http://www.w3.org/2000/svg" xmlns:xlink="http://www.w3.org/1999/xlink" x="0px" y="0px"
	 viewBox="0 0 62.1 49.7" style="enable-background:new 0 0 62.1 49.7;" xml:space="preserve">
<g>
	
		<path style="fill:#F4EDED;stroke:#82342F;stroke-width:0.9972;stroke-linecap:round;stroke-linejoin:round;stroke-miterlimit:10;" d="
		M44.3,30.1H3.1c-1.4,0-2.6-1.1-2.6-2.6V3.1c0-1.4,1.1-2.6,2.6-2.6h41.2c1.4,0,2.6,1.1,2.6,2.6v24.5C46.9,29,45.7,30.1,44.3,30.1z"
		/>
	
		<line style="fill:none;stroke:#82342F;stroke-width:0.9972;stroke-linecap:round;stroke-linejoin:round;stroke-miterlimit:10;" x1="4.9" y1="26.7" x2="4.9" y2="7.9"/>
	
		<line style="fill:none;stroke:#82342F;stroke-width:0.9972;stroke-linecap:round;stroke-linejoin:round;stroke-miterlimit:10;" x1="42.5" y1="26.6" x2="42.5" y2="8.6"/>
	<path style="fill:none;stroke:#82342F;stroke-width:0.9972;stroke-linecap:round;stroke-linejoin:round;stroke-miterlimit:10;" d="
		M0.6,5.8l22.1,11.1c0.6,0.3,1.3,0.3,2,0L46.5,6.8"/>
	<path style="fill:none;stroke:#82342F;stroke-width:0.9972;stroke-linecap:round;stroke-linejoin:round;stroke-miterlimit:10;" d="
		M1.3,2l21.4,10.7c0.6,0.3,1.3,0.3,2,0L46.5,2.7"/>
	
		<path style="fill:#F4EDED;stroke:#82342F;stroke-width:1.1233;stroke-linecap:round;stroke-linejoin:round;stroke-miterlimit:10;" d="
		M61.5,36.4v-8h-4.4c-0.2-0.6-0.5-1.2-0.8-1.8l3.1-3.1l-5.7-5.7l-3.1,3.1c-0.6-0.3-1.2-0.6-1.9-0.8v-4.3h-8v4.3
		c-0.7,0.2-1.3,0.5-1.9,0.8l-3-3l-5.7,5.7l3,3c-0.3,0.6-0.6,1.2-0.8,1.9h-4.3v8h4.3c0.2,0.7,0.5,1.3,0.8,1.9l-3,3l5.7,5.7L39,44
		c0.6,0.3,1.2,0.6,1.9,0.8v4.3h8v-4.4c0.6-0.2,1.3-0.5,1.8-0.8l3.1,3.1l5.7-5.7l-3.1-3.1c0.3-0.6,0.5-1.2,0.8-1.8H61.5z"/>
	
		<circle style="fill:#FFFFFF;stroke:#82342F;stroke-width:1.1233;stroke-linecap:round;stroke-linejoin:round;stroke-miterlimit:10;" cx="44.8" cy="32.4" r="4.3"/>
</g>
</svg>
