<?xml version="1.0" encoding="utf-8"?>
<!-- Generator: Adobe Illustrator 24.0.3, SVG Export Plug-In . SVG Version: 6.00 Build 0)  -->
<svg version="1.1" id="Layer_1" xmlns="http://www.w3.org/2000/svg" xmlns:xlink="http://www.w3.org/1999/xlink" x="0px" y="0px"
	 viewBox="0 0 166.6 166.6" style="enable-background:new 0 0 166.6 166.6;" xml:space="preserve">
<style type="text/css">
	.st0{fill:#F4EDED;stroke:#82342F;stroke-width:1.594;stroke-miterlimit:10;}
	.st1{fill:#82342F;}
	.st2{fill:#FFFFFF;stroke:#82342F;stroke-width:1.2752;stroke-linecap:round;stroke-linejoin:round;stroke-miterlimit:10;}
	.st3{fill:none;stroke:#82342F;stroke-width:1.2752;stroke-miterlimit:10;}
</style>
<g>
	<circle class="st0" cx="83.3" cy="83.3" r="82.5"/>
	<g>
		<path class="st1" d="M49.1,8.5c-0.3,0.1-0.6,0.3-0.8,0.4C48,9,47.9,9.1,47.7,9.2v1.3h1.4V8.5z"/>
		<path class="st1" d="M56,10.7c1.7,0,2.8-1.3,2.8-2.9V5.5c0-0.3,0-0.5-0.1-0.8v0c-0.1,0-0.2,0.1-0.2,0.1c-0.3,0.1-0.6,0.2-1,0.3
			c-0.1,0-0.1,0-0.1,0v0c0,0.1,0,0.2,0,0.3v2.3c0,0.9-0.4,1.7-1.5,1.7c-1,0-1.5-0.8-1.5-1.7V6.2c-0.2,0.1-0.5,0.2-0.7,0.3
			c-0.2,0.1-0.4,0.1-0.5,0.2v1.1C53.2,9.3,54.2,10.7,56,10.7z"/>
		<polygon class="st1" points="61.3,4.3 61.3,10.6 62.7,10.6 62.7,2.8 61.5,2.8 59.6,4.2 59.6,4.9 60.6,4.9 		"/>
		<polygon class="st1" points="65.5,4.3 65.5,10.6 66.9,10.6 66.9,2.8 65.7,2.8 63.9,4.2 63.9,4.9 64.8,4.9 		"/>
		<polygon class="st1" points="69.8,4.3 69.8,10.6 71.2,10.6 71.2,2.8 70,2.8 68.1,4.2 68.1,4.9 69.1,4.9 		"/>
		<polygon class="st1" points="74.1,4.3 74.1,10.6 75.5,10.6 75.5,2.8 74.3,2.8 72.4,4.2 72.4,4.9 73.4,4.9 		"/>
		<path class="st1" d="M79.9,10.7c1.7,0,2.8-1.3,2.8-2.9V5.5c0-1.6-1-2.9-2.8-2.9c-1.7,0-2.8,1.3-2.8,2.9v2.3
			C77.1,9.3,78.1,10.7,79.9,10.7z M78.3,5.5c0-1,0.6-1.7,1.5-1.7c1,0,1.5,0.8,1.5,1.7v2.3c0,0.9-0.5,1.7-1.5,1.7s-1.5-0.8-1.5-1.7
			V5.5z"/>
		<path class="st1" d="M86.7,10.7c1.7,0,2.8-1.3,2.8-2.9V5.5c0-1.6-1-2.9-2.8-2.9c-1.7,0-2.8,1.3-2.8,2.9v2.3
			C83.9,9.3,84.9,10.7,86.7,10.7z M85.2,5.5c0-1,0.6-1.7,1.5-1.7c1,0,1.5,0.8,1.5,1.7v2.3c0,0.9-0.5,1.7-1.5,1.7s-1.5-0.8-1.5-1.7
			V5.5z"/>
		<path class="st1" d="M93.5,10.7c1.7,0,2.8-1.3,2.8-2.9V5.5c0-1.6-1-2.9-2.8-2.9c-1.7,0-2.8,1.3-2.8,2.9v2.3
			C90.7,9.3,91.7,10.7,93.5,10.7z M92,5.5c0-1,0.6-1.7,1.5-1.7c1,0,1.5,0.8,1.5,1.7v2.3c0,0.9-0.5,1.7-1.5,1.7c-1,0-1.5-0.8-1.5-1.7
			V5.5z"/>
		<path class="st1" d="M102.9,10.7c1.7,0,2.8-1.3,2.8-2.9V5.5c0-0.8-0.2-1.5-0.7-2c0,0,0,0,0,0c-0.5-0.5-1.2-0.9-2.1-0.9
			c-0.3,0-0.6,0-0.9,0.1c0,0,0,0,0,0c-1.2,0.4-1.9,1.4-1.9,2.7v2.3C100.1,9.3,101.2,10.7,102.9,10.7z M101.4,5.5
			c0-1,0.6-1.7,1.5-1.7c1,0,1.5,0.8,1.5,1.7v2.3c0,0.9-0.5,1.7-1.5,1.7c-1,0-1.5-0.8-1.5-1.7V5.5z"/>
		<path class="st1" d="M108.1,4.4L108.1,4.4c-0.4-0.1-0.9-0.3-1.3-0.4l-0.3,0.2v0.8h1L108.1,4.4z"/>
		<path class="st1" d="M109.6,4.8C109.5,4.8,109.5,4.8,109.6,4.8c-0.5-0.2-1-0.3-1.4-0.4v6.2h1.4V4.8z"/>
		<path class="st1" d="M113.8,6.4c-0.5-0.2-0.9-0.4-1.4-0.5v4.7h1.4V6.4z"/>
		<path class="st1" d="M118.2,10.7c1.1,0,1.9-0.5,2.4-1.3v0c-0.1,0-0.1-0.1-0.2-0.1c-0.3-0.2-0.6-0.3-1-0.5
			c-0.2,0.4-0.7,0.7-1.2,0.7c-1,0-1.5-0.8-1.5-1.7V7.6c-0.2-0.1-0.3-0.1-0.5-0.2c-0.3-0.1-0.6-0.2-0.9-0.4v0.8
			C115.4,9.3,116.5,10.7,118.2,10.7z"/>
		<path class="st1" d="M28.9,21.9C28.9,21.9,28.9,21.9,28.9,21.9L28.9,21.9L28.9,21.9z"/>
		<path class="st1" d="M33.4,22c1.7,0,2.8-1.3,2.8-2.9v-2.3c0-0.3,0-0.5-0.1-0.7c-0.4,0.3-0.9,0.6-1.3,1v2.1c0,0.9-0.5,1.7-1.5,1.7
			c-0.9,0-1.4-0.7-1.5-1.5v0c-0.1,0.1-0.2,0.2-0.3,0.3c-0.3,0.2-0.5,0.4-0.8,0.6C31.1,21.3,32.1,22,33.4,22z"/>
		<polygon class="st1" points="38.6,15.7 38.6,21.9 40,21.9 40,14.1 38.8,14.1 36.9,15.5 36.9,16.3 37.9,16.3 		"/>
		<polygon class="st1" points="42.9,15.7 42.9,21.9 44.3,21.9 44.3,14.1 43.1,14.1 41.2,15.5 41.2,16.3 42.2,16.3 		"/>
		<path class="st1" d="M48.7,22c1.7,0,2.8-1.3,2.8-2.9v-2.3c0-1.6-1-2.9-2.8-2.9c-1.7,0-2.8,1.3-2.8,2.9v2.3
			C45.9,20.7,46.9,22,48.7,22z M47.2,16.9c0-1,0.6-1.7,1.5-1.7c1,0,1.5,0.8,1.5,1.7v2.3c0,0.9-0.5,1.7-1.5,1.7c-1,0-1.5-0.8-1.5-1.7
			V16.9z"/>
		<polygon class="st1" points="54,15.7 54,21.9 55.4,21.9 55.4,14.1 54.2,14.1 52.3,15.5 52.3,16.3 53.3,16.3 		"/>
		<path class="st1" d="M62.3,22c1.7,0,2.8-1.3,2.8-2.9v-2.3c0-1.6-1-2.9-2.8-2.9c-1.7,0-2.8,1.3-2.8,2.9v2.3
			C59.5,20.7,60.5,22,62.3,22z M60.9,16.9c0-1,0.6-1.7,1.5-1.7c1,0,1.5,0.8,1.5,1.7v2.3c0,0.9-0.5,1.7-1.5,1.7c-1,0-1.5-0.8-1.5-1.7
			V16.9z"/>
		<polygon class="st1" points="66,16.3 66.9,16.3 67.6,15.7 67.6,21.9 69,21.9 69,14.1 67.8,14.1 66,15.5 		"/>
		<polygon class="st1" points="70.2,16.3 71.2,16.3 71.9,15.7 71.9,21.9 73.3,21.9 73.3,14.1 72.1,14.1 70.2,15.5 		"/>
		<polygon class="st1" points="74.4,16.3 75.4,16.3 76.1,15.7 76.1,21.9 77.5,21.9 77.5,14.1 76.3,14.1 74.4,15.5 		"/>
		<path class="st1" d="M82,14c-1.7,0-2.8,1.3-2.8,2.9v2.3c0,1.5,1,2.8,2.8,2.9c1.7,0,2.8-1.3,2.8-2.9v-2.3C84.8,15.3,83.8,14,82,14z
			 M83.4,19.2c0,0.9-0.5,1.7-1.5,1.7c-1,0-1.5-0.8-1.5-1.7v-2.3c0-1,0.6-1.7,1.5-1.7c1,0,1.5,0.8,1.5,1.7V19.2z"/>
		<path class="st1" d="M88.8,14c-1.7,0-2.8,1.3-2.8,2.9v2.3c0,1.5,1,2.8,2.8,2.9c1.7,0,2.8-1.3,2.8-2.9v-2.3
			C91.6,15.3,90.6,14,88.8,14z M90.2,19.2c0,0.9-0.5,1.7-1.5,1.7c-1,0-1.5-0.8-1.5-1.7v-2.3c0-1,0.6-1.7,1.5-1.7
			c1,0,1.5,0.8,1.5,1.7V19.2z"/>
		<path class="st1" d="M92.8,16.9v2.3c0,1.5,1,2.8,2.8,2.9c1.7,0,2.8-1.3,2.8-2.9v-2.3c0-1.6-1-2.9-2.8-2.9
			C93.9,14,92.8,15.3,92.8,16.9z M97,16.9v2.3c0,0.9-0.4,1.7-1.5,1.7c-1,0-1.5-0.8-1.5-1.7v-2.3c0-1,0.6-1.7,1.5-1.7
			C96.6,15.1,97,15.9,97,16.9z"/>
		<path class="st1" d="M102.4,22c1.7,0,2.8-1.3,2.8-2.9v-2.3c0-1.6-1-2.9-2.8-2.9c-1.7,0-2.8,1.3-2.8,2.9v2.3
			C99.6,20.7,100.6,22,102.4,22z M101,16.9c0-1,0.6-1.7,1.5-1.7c1,0,1.5,0.8,1.5,1.7v2.3c0,0.9-0.5,1.7-1.5,1.7
			c-1,0-1.5-0.8-1.5-1.7V16.9z"/>
		<path class="st1" d="M109,19.2c0,1.5,1,2.8,2.8,2.9c1.7,0,2.8-1.3,2.8-2.9v-2.3c0-1.6-1-2.9-2.8-2.9c-1.7,0-2.8,1.3-2.8,2.9V19.2z
			 M110.3,16.9c0-1,0.6-1.7,1.5-1.7c1,0,1.5,0.8,1.5,1.7v2.3c0,0.9-0.5,1.7-1.5,1.7c-1,0-1.5-0.8-1.5-1.7V16.9z"/>
		<polygon class="st1" points="117.1,15.7 117.1,21.9 118.5,21.9 118.5,14.1 117.3,14.1 115.4,15.5 115.4,16.3 116.4,16.3 		"/>
		<polygon class="st1" points="119.7,16.3 120.7,16.3 121.4,15.7 121.4,21.9 122.8,21.9 122.8,14.1 121.6,14.1 119.7,15.5 		"/>
		<path class="st1" d="M127.2,22c1.7,0,2.8-1.3,2.8-2.9v-2.3c0-1.6-1-2.9-2.8-2.9c-1.7,0-2.8,1.3-2.8,2.9v2.3
			C124.4,20.7,125.4,22,127.2,22z M125.6,16.9c0-1,0.6-1.7,1.5-1.7c1,0,1.5,0.8,1.5,1.7v2.3c0,0.9-0.4,1.7-1.5,1.7
			c-1,0-1.5-0.8-1.5-1.7V16.9z"/>
		<path class="st1" d="M131.9,16.1c-0.3-0.2-0.7-0.5-1-0.7l-0.1,0.1v0.8h1L131.9,16.1z"/>
		<path class="st1" d="M133.9,17.6c-0.5-0.4-0.9-0.7-1.4-1v5.4h1.4V17.6z"/>
		<path class="st1" d="M138.1,21c-0.5-0.4-0.9-0.8-1.4-1.2v2.1h1.4V21z"/>
		<path class="st1" d="M22.3,30.4v-1.9c-0.5,0.5-0.9,1.1-1.4,1.6v0.3c0,1-0.5,1.7-1.5,1.7c-0.1,0-0.1,0-0.2,0
			c-0.3,0.3-0.5,0.7-0.8,1c0.3,0.1,0.6,0.2,1,0.2C21.2,33.3,22.3,32,22.3,30.4z"/>
		<path class="st1" d="M26.3,33.3c1.7,0,2.8-1.3,2.8-2.9v-2.3c0-1.6-1-2.9-2.8-2.9c-0.4,0-0.8,0.1-1.2,0.2c-0.7,0.3-1.2,0.8-1.4,1.5
			c-0.1,0.4-0.2,0.8-0.2,1.2v2.3C23.5,32,24.5,33.3,26.3,33.3z M24.8,28.2c0-1,0.6-1.7,1.5-1.7c1,0,1.5,0.8,1.5,1.7v2.3
			c0,1-0.5,1.7-1.5,1.7c-1,0-1.5-0.8-1.5-1.7V28.2z"/>
		<path class="st1" d="M33.1,33.3c1.7,0,2.8-1.3,2.8-2.9v-2.3c0-1.6-1-2.9-2.8-2.9c-1.7,0-2.8,1.3-2.8,2.9v2.3
			C30.3,32,31.3,33.3,33.1,33.3z M31.7,28.2c0-1,0.6-1.7,1.5-1.7c1,0,1.5,0.8,1.5,1.7v2.3c0,1-0.5,1.7-1.5,1.7c-1,0-1.5-0.8-1.5-1.7
			V28.2z"/>
		<path class="st1" d="M40,25.3c-1.7,0-2.8,1.3-2.8,2.9v2.3c0,1.6,1,2.9,2.8,2.9c1.7,0,2.8-1.3,2.8-2.9v-2.3
			C42.8,26.6,41.8,25.3,40,25.3z M41.4,30.4c0,1-0.5,1.7-1.5,1.7c-1,0-1.5-0.8-1.5-1.7v-2.3c0-1,0.6-1.7,1.5-1.7
			c1,0,1.5,0.8,1.5,1.7V30.4z"/>
		<polygon class="st1" points="43.6,27.6 44.5,27.6 45.2,26.9 45.2,33.2 46.6,33.2 46.6,25.4 45.4,25.4 43.6,26.8 		"/>
		<path class="st1" d="M50.8,30.4c0,1.6,1.1,2.9,2.8,2.9s2.8-1.3,2.8-2.9v-2.3c0-1.6-1-2.9-2.8-2.9c-1.7,0-2.8,1.3-2.8,2.9V30.4z
			 M52.1,28.2c0-1,0.6-1.7,1.5-1.7c1,0,1.5,0.8,1.5,1.7v2.3c0,1-0.5,1.7-1.5,1.7c-1,0-1.5-0.8-1.5-1.7V28.2z"/>
		<polygon class="st1" points="57.2,27.6 58.2,27.6 58.9,26.9 58.9,33.2 60.3,33.2 60.3,25.4 59.1,25.4 57.2,26.8 		"/>
		<polygon class="st1" points="61.5,26.8 61.5,27.6 62.5,27.6 63.2,26.9 63.2,33.2 64.6,33.2 64.6,25.4 63.3,25.4 		"/>
		<path class="st1" d="M69,25.3c-1.7,0-2.8,1.3-2.8,2.9v2.3c0,1.6,1,2.9,2.8,2.9c1.7,0,2.8-1.3,2.8-2.9v-2.3
			C71.8,26.6,70.7,25.3,69,25.3z M70.4,30.4c0,1-0.5,1.7-1.5,1.7c-1,0-1.5-0.8-1.5-1.7v-2.3c0-1,0.6-1.7,1.5-1.7
			c1,0,1.5,0.8,1.5,1.7V30.4z"/>
		<polygon class="st1" points="72.6,26.8 72.6,27.6 73.5,27.6 74.3,26.9 74.3,33.2 75.7,33.2 75.7,25.4 74.4,25.4 		"/>
		<polygon class="st1" points="76.8,26.8 76.8,27.6 77.8,27.6 78.5,26.9 78.5,33.2 79.9,33.2 79.9,25.4 78.6,25.4 		"/>
		<path class="st1" d="M81.5,28.2v2.3c0,1.6,1,2.9,2.8,2.9c1.7,0,2.8-1.3,2.8-2.9v-2.3c0-1.6-1-2.9-2.8-2.9
			C82.6,25.3,81.5,26.6,81.5,28.2z M85.7,28.2v2.3c0,1-0.5,1.7-1.5,1.7s-1.5-0.8-1.5-1.7v-2.3c0-1,0.6-1.7,1.5-1.7
			C85.3,26.4,85.7,27.2,85.7,28.2z"/>
		<polygon class="st1" points="91,33.2 91,25.4 89.7,25.4 87.9,26.8 87.9,27.6 88.9,27.6 89.6,26.9 89.6,33.2 		"/>
		<path class="st1" d="M98,25.3c-1.7,0-2.8,1.3-2.8,2.9v2.3c0,1.6,1,2.9,2.8,2.9c1.7,0,2.8-1.3,2.8-2.9v-2.3
			C100.8,26.6,99.8,25.3,98,25.3z M99.4,30.4c0,1-0.5,1.7-1.5,1.7s-1.5-0.8-1.5-1.7v-2.3c0-1,0.6-1.7,1.5-1.7c1,0,1.5,0.8,1.5,1.7
			V30.4z"/>
		<polygon class="st1" points="104.6,33.2 104.6,25.4 103.4,25.4 101.5,26.8 101.5,27.6 102.5,27.6 103.2,26.9 103.2,33.2 		"/>
		<polygon class="st1" points="107.5,26.9 107.5,33.2 108.9,33.2 108.9,25.4 107.7,25.4 105.8,26.8 105.8,27.6 106.8,27.6 		"/>
		<polygon class="st1" points="110.1,26.8 110.1,27.6 111,27.6 111.7,26.9 111.7,33.2 113.1,33.2 113.1,25.4 111.9,25.4 		"/>
		<path class="st1" d="M117.5,33.3c1.7,0,2.8-1.3,2.8-2.9v-2.3c0-1.6-1-2.9-2.8-2.9c-1.7,0-2.8,1.3-2.8,2.9v2.3
			C114.7,32,115.8,33.3,117.5,33.3z M116,28.2c0-1,0.6-1.7,1.5-1.7c1,0,1.5,0.8,1.5,1.7v2.3c0,1-0.5,1.7-1.5,1.7s-1.5-0.8-1.5-1.7
			V28.2z"/>
		<path class="st1" d="M121.6,28.2v2.3c0,1.6,1,2.9,2.8,2.9c1.7,0,2.8-1.3,2.8-2.9v-2.3c0-1.6-1-2.9-2.8-2.9
			C122.6,25.3,121.6,26.6,121.6,28.2z M122.9,28.2c0-1,0.6-1.7,1.5-1.7c1,0,1.5,0.8,1.5,1.7v2.3c0,1-0.5,1.7-1.5,1.7
			c-1,0-1.5-0.8-1.5-1.7V28.2z"/>
		<path class="st1" d="M134,30.4v-2.3c0-1.6-1-2.9-2.8-2.9c-1.7,0-2.8,1.3-2.8,2.9v2.3c0,1.6,1,2.9,2.8,2.9
			C132.9,33.3,134,32,134,30.4z M129.7,30.4v-2.3c0-1,0.6-1.7,1.5-1.7c1,0,1.5,0.8,1.5,1.7v2.3c0,1-0.5,1.7-1.5,1.7
			S129.7,31.4,129.7,30.4z"/>
		<path class="st1" d="M138,33.3c1.7,0,2.8-1.3,2.8-2.9v-2.3c0-1.6-1-2.9-2.8-2.9c-1.7,0-2.8,1.3-2.8,2.9v2.3
			C135.2,32,136.3,33.3,138,33.3z M136.5,28.2c0-1,0.6-1.7,1.5-1.7c1,0,1.5,0.8,1.5,1.7v2.3c0,1-0.5,1.7-1.5,1.7s-1.5-0.8-1.5-1.7
			V28.2z"/>
		<path class="st1" d="M147.4,33.3c0.7,0,1.3-0.2,1.8-0.6c-0.3-0.3-0.5-0.7-0.8-1c-0.2,0.3-0.6,0.4-1,0.4c-1,0-1.5-0.8-1.5-1.7v-1.7
			c-0.2-0.2-0.4-0.4-0.6-0.7c-0.2-0.2-0.4-0.4-0.6-0.7c-0.1,0.2-0.1,0.5-0.1,0.7v2.3C144.6,32,145.7,33.3,147.4,33.3z"/>
		<path class="st1" d="M13.5,40.5c-0.5,0.8-1,1.6-1.4,2.4v1.7h1.4V40.5z"/>
		<path class="st1" d="M20.4,44.7c1.7,0,2.8-1.3,2.8-2.9v-2.3c0-1.6-1-2.9-2.8-2.9c-1.7,0-2.8,1.3-2.8,2.9v2.3
			C17.6,43.4,18.7,44.7,20.4,44.7z M18.9,39.5c0-1,0.6-1.7,1.5-1.7c1,0,1.5,0.8,1.5,1.7v2.3c0,1-0.5,1.7-1.5,1.7
			c-1,0-1.5-0.8-1.5-1.7V39.5z"/>
		<polygon class="st1" points="27.1,44.5 27.1,36.8 25.9,36.8 24,38.2 24,38.9 25,38.9 25.7,38.3 25.7,44.5 		"/>
		<polygon class="st1" points="28.3,38.9 29.2,38.9 29.9,38.3 29.9,44.5 31.3,44.5 31.3,36.8 30.1,36.8 28.3,38.2 		"/>
		<polygon class="st1" points="35.6,44.5 35.6,36.8 34.4,36.8 32.6,38.2 32.6,38.9 33.5,38.9 34.2,38.3 34.2,44.5 		"/>
		<polygon class="st1" points="38.5,38.3 38.5,44.5 39.9,44.5 39.9,36.8 38.7,36.8 36.8,38.2 36.8,38.9 37.8,38.9 		"/>
		<path class="st1" d="M44.3,36.6c-1.7,0-2.8,1.3-2.8,2.9v2.3c0,1.6,1,2.9,2.8,2.9c1.7,0,2.8-1.3,2.8-2.9v-2.3
			C47.1,37.9,46.1,36.6,44.3,36.6z M45.7,41.8c0,1-0.5,1.7-1.5,1.7c-1,0-1.5-0.8-1.5-1.7v-2.3c0-1,0.6-1.7,1.5-1.7
			c1,0,1.5,0.8,1.5,1.7V41.8z"/>
		<path class="st1" d="M51.1,36.6c-1.7,0-2.8,1.3-2.8,2.9v2.3c0,1.6,1,2.9,2.8,2.9c1.7,0,2.8-1.3,2.8-2.9v-2.3
			C53.9,37.9,52.9,36.6,51.1,36.6z M52.5,41.8c0,1-0.5,1.7-1.5,1.7c-1,0-1.5-0.8-1.5-1.7v-2.3c0-1,0.6-1.7,1.5-1.7
			c1,0,1.5,0.8,1.5,1.7V41.8z"/>
		<path class="st1" d="M57.9,36.6c-1.7,0-2.8,1.3-2.8,2.9v2.3c0,1.6,1,2.9,2.8,2.9c1.7,0,2.8-1.3,2.8-2.9v-2.3
			C60.7,37.9,59.7,36.6,57.9,36.6z M59.4,41.8c0,1-0.5,1.7-1.5,1.7c-1,0-1.5-0.8-1.5-1.7v-2.3c0-1,0.6-1.7,1.5-1.7
			c1,0,1.5,0.8,1.5,1.7V41.8z"/>
		<path class="st1" d="M64.5,39.5v2.3c0,1.6,1,2.9,2.8,2.9c1.7,0,2.8-1.3,2.8-2.9v-2.3c0-1.6-1-2.9-2.8-2.9
			C65.6,36.6,64.5,37.9,64.5,39.5z M65.8,39.5c0-1,0.6-1.7,1.5-1.7c1,0,1.5,0.8,1.5,1.7v2.3c0,1-0.5,1.7-1.5,1.7
			c-1,0-1.5-0.8-1.5-1.7V39.5z"/>
		<polygon class="st1" points="70.9,38.9 71.9,38.9 72.6,38.3 72.6,44.5 74,44.5 74,36.8 72.8,36.8 70.9,38.2 		"/>
		<polygon class="st1" points="75.2,38.9 76.2,38.9 76.9,38.3 76.9,44.5 78.3,44.5 78.3,36.8 77.1,36.8 75.2,38.2 		"/>
		<path class="st1" d="M82.7,36.6c-1.7,0-2.8,1.3-2.8,2.9v2.3c0,1.6,1,2.9,2.8,2.9c1.7,0,2.8-1.3,2.8-2.9v-2.3
			C85.5,37.9,84.5,36.6,82.7,36.6z M84.1,41.8c0,1-0.5,1.7-1.5,1.7c-1,0-1.5-0.8-1.5-1.7v-2.3c0-1,0.6-1.7,1.5-1.7
			c1,0,1.5,0.8,1.5,1.7V41.8z"/>
		<path class="st1" d="M89.5,36.6c-1.7,0-2.8,1.3-2.8,2.9v2.3c0,1.6,1,2.9,2.8,2.9c1.7,0,2.8-1.3,2.8-2.9v-2.3
			C92.3,37.9,91.3,36.6,89.5,36.6z M91,41.8c0,1-0.5,1.7-1.5,1.7c-1,0-1.5-0.8-1.5-1.7v-2.3c0-1,0.6-1.7,1.5-1.7
			c1,0,1.5,0.8,1.5,1.7V41.8z"/>
		<path class="st1" d="M93.5,39.5v2.3c0,1.6,1,2.9,2.8,2.9c1.7,0,2.8-1.3,2.8-2.9v-2.3c0-1.6-1-2.9-2.8-2.9
			C94.6,36.6,93.5,37.9,93.5,39.5z M94.8,39.5c0-1,0.6-1.7,1.5-1.7c1,0,1.5,0.8,1.5,1.7v2.3c0,1-0.5,1.7-1.5,1.7s-1.5-0.8-1.5-1.7
			V39.5z"/>
		<path class="st1" d="M100.3,39.5v2.3c0,1.6,1.1,2.9,2.8,2.9c1.7,0,2.8-1.3,2.8-2.9v-2.3c0-1.6-1-2.9-2.8-2.9
			C101.4,36.6,100.3,37.9,100.3,39.5z M101.7,39.5c0-1,0.6-1.7,1.5-1.7c1,0,1.5,0.8,1.5,1.7v2.3c0,1-0.5,1.7-1.5,1.7
			s-1.5-0.8-1.5-1.7V39.5z"/>
		<polygon class="st1" points="106.8,38.2 106.8,38.9 107.7,38.9 108.4,38.3 108.4,44.5 109.8,44.5 109.8,36.8 108.6,36.8 		"/>
		<path class="st1" d="M114,41.8c0,1.6,1.1,2.9,2.8,2.9c1.7,0,2.8-1.3,2.8-2.9v-2.3c0-1.6-1-2.9-2.8-2.9c-1.7,0-2.8,1.3-2.8,2.9
			V41.8z M115.3,39.5c0-1,0.6-1.7,1.5-1.7c1,0,1.5,0.8,1.5,1.7v2.3c0,1-0.5,1.7-1.5,1.7s-1.5-0.8-1.5-1.7V39.5z"/>
		<polygon class="st1" points="120.4,38.2 120.4,38.9 121.4,38.9 122.1,38.3 122.1,44.5 123.5,44.5 123.5,36.8 122.3,36.8 		"/>
		<polygon class="st1" points="127.7,44.5 127.7,36.8 126.5,36.8 124.7,38.2 124.7,38.9 125.6,38.9 126.3,38.3 126.3,44.5 		"/>
		<path class="st1" d="M132.1,36.6c-1.7,0-2.8,1.3-2.8,2.9v2.3c0,1.6,1,2.9,2.8,2.9c1.7,0,2.8-1.3,2.8-2.9v-2.3
			C135,37.9,133.9,36.6,132.1,36.6z M133.6,41.8c0,1-0.5,1.7-1.5,1.7s-1.5-0.8-1.5-1.7v-2.3c0-1,0.6-1.7,1.5-1.7
			c1,0,1.5,0.8,1.5,1.7V41.8z"/>
		<polygon class="st1" points="138.8,44.5 138.8,36.8 137.6,36.8 135.8,38.2 135.8,38.9 136.7,38.9 137.4,38.3 137.4,44.5 		"/>
		<polygon class="st1" points="140,38.9 140.9,38.9 141.6,38.3 141.6,44.5 143,44.5 143,36.8 141.8,36.8 140,38.2 		"/>
		<path class="st1" d="M144.7,39.5v2.3c0,1.6,1,2.9,2.8,2.9c1.7,0,2.8-1.3,2.8-2.9v-2.3c0-1.6-1-2.9-2.8-2.9
			C145.8,36.6,144.7,37.9,144.7,39.5z M148.9,39.5v2.3c0,1-0.5,1.7-1.5,1.7s-1.5-0.8-1.5-1.7v-2.3c0-1,0.6-1.7,1.5-1.7
			C148.5,37.8,148.9,38.5,148.9,39.5z"/>
		<path class="st1" d="M152.7,38.3v6.2h1.4v-4.7c-0.6-0.9-1.1-1.8-1.7-2.7l-1.3,1v0.8h1L152.7,38.3z"/>
		<path class="st1" d="M9.3,53.1v-2.3c0-0.6-0.2-1.2-0.5-1.7c-0.3,0.7-0.6,1.4-0.9,2.1v1.8c0,0.9-0.5,1.7-1.4,1.7
			c-0.1,0.4-0.3,0.7-0.4,1.1c0.1,0,0.3,0,0.4,0C8.3,56,9.3,54.7,9.3,53.1z"/>
		<polygon class="st1" points="11.8,49.6 11.8,55.9 13.2,55.9 13.2,48.1 12,48.1 10.2,49.5 10.2,50.3 11.1,50.3 		"/>
		<path class="st1" d="M17.6,56c1.7,0,2.8-1.3,2.8-2.9v-2.3c0-1.6-1-2.9-2.8-2.9c-1.7,0-2.8,1.3-2.8,2.9v2.3
			C14.8,54.7,15.8,56,17.6,56z M16.1,50.8c0-1,0.6-1.7,1.5-1.7c1,0,1.5,0.8,1.5,1.7v2.3c0,1-0.5,1.7-1.5,1.7s-1.5-0.8-1.5-1.7V50.8z
			"/>
		<path class="st1" d="M21.6,50.8v2.3c0,1.6,1,2.9,2.8,2.9c1.7,0,2.8-1.3,2.8-2.9v-2.3c0-1.6-1-2.9-2.8-2.9
			C22.7,48,21.6,49.3,21.6,50.8z M22.9,50.8c0-1,0.6-1.7,1.5-1.7c1,0,1.5,0.8,1.5,1.7v2.3c0,1-0.5,1.7-1.5,1.7s-1.5-0.8-1.5-1.7
			V50.8z"/>
		<path class="st1" d="M28.5,50.8v2.3c0,1.6,1,2.9,2.8,2.9c1.7,0,2.8-1.3,2.8-2.9v-2.3c0-1.6-1-2.9-2.8-2.9
			C29.6,48,28.5,49.3,28.5,50.8z M32.7,50.8v2.3c0,1-0.5,1.7-1.5,1.7c-1,0-1.5-0.8-1.5-1.7v-2.3c0-1,0.6-1.7,1.5-1.7
			C32.3,49.1,32.7,49.9,32.7,50.8z"/>
		<polygon class="st1" points="34.9,50.3 35.9,50.3 36.6,49.6 36.6,55.9 38,55.9 38,48.1 36.8,48.1 34.9,49.5 		"/>
		<path class="st1" d="M39.6,53.1c0,1.6,1,2.9,2.8,2.9c1.7,0,2.8-1.3,2.8-2.9v-2.3c0-1.6-1-2.9-2.8-2.9c-1.7,0-2.8,1.3-2.8,2.9V53.1
			z M40.9,50.8c0-1,0.6-1.7,1.5-1.7c1,0,1.5,0.8,1.5,1.7v2.3c0,1-0.5,1.7-1.5,1.7c-1,0-1.5-0.8-1.5-1.7V50.8z"/>
		<polygon class="st1" points="46,49.5 46,50.3 47,50.3 47.7,49.6 47.7,55.9 49.1,55.9 49.1,48.1 47.9,48.1 		"/>
		<path class="st1" d="M53.2,50.8v2.3c0,1.6,1,2.9,2.8,2.9c1.7,0,2.8-1.3,2.8-2.9v-2.3c0-1.6-1-2.9-2.8-2.9
			C54.3,48,53.2,49.3,53.2,50.8z M54.5,50.8c0-1,0.6-1.7,1.5-1.7c1,0,1.5,0.8,1.5,1.7v2.3c0,1-0.4,1.7-1.5,1.7c-1,0-1.5-0.8-1.5-1.7
			V50.8z"/>
		<polygon class="st1" points="59.6,50.3 60.6,50.3 61.3,49.6 61.3,55.9 62.7,55.9 62.7,48.1 61.5,48.1 59.6,49.5 		"/>
		<polygon class="st1" points="66.9,55.9 66.9,48.1 65.7,48.1 63.9,49.5 63.9,50.3 64.8,50.3 65.5,49.6 65.5,55.9 		"/>
		<polygon class="st1" points="68.1,49.5 68.1,50.3 69.1,50.3 69.8,49.6 69.8,55.9 71.2,55.9 71.2,48.1 70,48.1 		"/>
		<polygon class="st1" points="72.4,49.5 72.4,50.3 73.4,50.3 74.1,49.6 74.1,55.9 75.5,55.9 75.5,48.1 74.3,48.1 		"/>
		<path class="st1" d="M77.1,50.8v2.3c0,1.6,1,2.9,2.8,2.9c1.7,0,2.8-1.3,2.8-2.9v-2.3c0-1.6-1-2.9-2.8-2.9
			C78.1,48,77.1,49.3,77.1,50.8z M81.3,50.8v2.3c0,1-0.5,1.7-1.5,1.7s-1.5-0.8-1.5-1.7v-2.3c0-1,0.6-1.7,1.5-1.7
			C80.8,49.1,81.3,49.9,81.3,50.8z"/>
		<path class="st1" d="M86.7,48c-1.7,0-2.8,1.3-2.8,2.9v2.3c0,1.6,1,2.9,2.8,2.9c1.7,0,2.8-1.3,2.8-2.9v-2.3
			C89.5,49.3,88.5,48,86.7,48z M88.2,53.1c0,1-0.5,1.7-1.5,1.7s-1.5-0.8-1.5-1.7v-2.3c0-1,0.6-1.7,1.5-1.7c1,0,1.5,0.8,1.5,1.7V53.1
			z"/>
		<path class="st1" d="M90.7,50.8v2.3c0,1.6,1,2.9,2.8,2.9c1.7,0,2.8-1.3,2.8-2.9v-2.3c0-1.6-1-2.9-2.8-2.9
			C91.8,48,90.7,49.3,90.7,50.8z M95,50.8v2.3c0,1-0.5,1.7-1.5,1.7c-1,0-1.5-0.8-1.5-1.7v-2.3c0-1,0.6-1.7,1.5-1.7
			C94.5,49.1,95,49.9,95,50.8z"/>
		<path class="st1" d="M105.7,53.1v-2.3c0-1.6-1-2.9-2.8-2.9c-1.7,0-2.8,1.3-2.8,2.9v2.3c0,1.6,1,2.9,2.8,2.9
			C104.7,56,105.7,54.7,105.7,53.1z M101.4,53.1v-2.3c0-1,0.6-1.7,1.5-1.7c1,0,1.5,0.8,1.5,1.7v2.3c0,1-0.5,1.7-1.5,1.7
			C101.9,54.9,101.4,54.1,101.4,53.1z"/>
		<polygon class="st1" points="106.5,50.3 107.5,50.3 108.2,49.6 108.2,55.9 109.6,55.9 109.6,48.1 108.4,48.1 106.5,49.5 		"/>
		<polygon class="st1" points="113.8,55.9 113.8,48.1 112.6,48.1 110.8,49.5 110.8,50.3 111.7,50.3 112.4,49.6 112.4,55.9 		"/>
		<path class="st1" d="M118.2,48c-1.7,0-2.8,1.3-2.8,2.9v2.3c0,1.6,1,2.9,2.8,2.9c1.7,0,2.8-1.3,2.8-2.9v-2.3
			C121.1,49.3,120,48,118.2,48z M119.7,53.1c0,1-0.5,1.7-1.5,1.7s-1.5-0.8-1.5-1.7v-2.3c0-1,0.6-1.7,1.5-1.7c1,0,1.5,0.8,1.5,1.7
			V53.1z"/>
		<path class="st1" d="M122.3,50.8v2.3c0,1.6,1,2.9,2.8,2.9c1.7,0,2.8-1.3,2.8-2.9v-2.3c0-1.6-1-2.9-2.8-2.9
			C123.3,48,122.3,49.3,122.3,50.8z M123.6,50.8c0-1,0.6-1.7,1.5-1.7c1,0,1.5,0.8,1.5,1.7v2.3c0,1-0.5,1.7-1.5,1.7
			c-1,0-1.5-0.8-1.5-1.7V50.8z"/>
		<path class="st1" d="M134.8,50.8c0-1.6-1-2.9-2.8-2.9c-1.7,0-2.8,1.3-2.8,2.9v2.3c0,1.6,1,2.9,2.8,2.9c1.7,0,2.8-1.3,2.8-2.9V50.8
			z M133.4,53.1c0,1-0.5,1.7-1.5,1.7s-1.5-0.8-1.5-1.7v-2.3c0-1,0.6-1.7,1.5-1.7c1,0,1.5,0.8,1.5,1.7V53.1z"/>
		<path class="st1" d="M141.6,53.1v-2.3c0-1.6-1-2.9-2.8-2.9c-1.7,0-2.8,1.3-2.8,2.9v2.3c0,1.6,1,2.9,2.8,2.9
			C140.5,56,141.6,54.7,141.6,53.1z M137.2,53.1v-2.3c0-1,0.6-1.7,1.5-1.7c1,0,1.5,0.8,1.5,1.7v2.3c0,1-0.5,1.7-1.5,1.7
			S137.2,54.1,137.2,53.1z"/>
		<polygon class="st1" points="142.3,50.3 143.3,50.3 144,49.6 144,55.9 145.4,55.9 145.4,48.1 144.2,48.1 142.3,49.5 		"/>
		<path class="st1" d="M152.4,48c-1.7,0-2.8,1.3-2.8,2.9v2.3c0,1.6,1,2.9,2.8,2.9c1.7,0,2.8-1.3,2.8-2.9v-2.3
			C155.2,49.3,154.2,48,152.4,48z M153.8,53.1c0,1-0.5,1.7-1.5,1.7s-1.5-0.8-1.5-1.7v-2.3c0-1,0.6-1.7,1.5-1.7c1,0,1.5,0.8,1.5,1.7
			V53.1z"/>
		<polygon class="st1" points="157.7,49.6 157.7,55.9 159.1,55.9 159.1,48.1 157.8,48.1 156,49.5 156,50.3 156.9,50.3 		"/>
		<path class="st1" d="M6.7,67.4c1.7,0,2.8-1.3,2.8-2.9v-2.3c0-1.6-1-2.9-2.8-2.9c-0.7,0-1.3,0.2-1.8,0.6c0,0,0,0,0,0
			c-0.6,0.5-1,1.3-1,2.2v1.4c0,0,0,0,0,0v0.9C3.9,66,4.9,67.4,6.7,67.4z M5.1,62.2c0-1,0.6-1.7,1.5-1.7c1,0,1.5,0.8,1.5,1.7v2.3
			c0,0.9-0.5,1.7-1.5,1.7s-1.5-0.8-1.5-1.7V62.2z"/>
		<path class="st1" d="M16.3,64.5v-2.3c0-1.6-1-2.9-2.8-2.9c-1.7,0-2.8,1.3-2.8,2.9v2.3c0,1.5,1,2.9,2.8,2.9
			C15.2,67.4,16.3,66.1,16.3,64.5z M12,64.5v-2.3c0-1,0.6-1.7,1.5-1.7c1,0,1.5,0.8,1.5,1.7v2.3c0,0.9-0.5,1.7-1.5,1.7
			S12,65.5,12,64.5z"/>
		<path class="st1" d="M17.5,62.2v2.3c0,1.5,1,2.9,2.8,2.9c1.7,0,2.8-1.3,2.8-2.9v-2.3c0-1.6-1-2.9-2.8-2.9
			C18.6,59.3,17.5,60.6,17.5,62.2z M21.8,62.2v2.3c0,0.9-0.5,1.7-1.5,1.7s-1.5-0.8-1.5-1.7v-2.3c0-1,0.6-1.7,1.5-1.7
			C21.3,60.5,21.8,61.2,21.8,62.2z"/>
		<polygon class="st1" points="27,67.2 27,59.5 25.8,59.5 23.9,60.9 23.9,61.6 24.9,61.6 25.6,61 25.6,67.2 		"/>
		<path class="st1" d="M36.8,64.5v-2.3c0-1.6-1-2.9-2.8-2.9c-1.7,0-2.8,1.3-2.8,2.9v2.3c0,1.5,1,2.9,2.8,2.9
			C35.7,67.4,36.8,66.1,36.8,64.5z M35.4,64.5c0,0.9-0.5,1.7-1.5,1.7c-1,0-1.5-0.8-1.5-1.7v-2.3c0-1,0.6-1.7,1.5-1.7
			c1,0,1.5,0.8,1.5,1.7V64.5z"/>
		<polygon class="st1" points="37.6,60.9 37.6,61.6 38.5,61.6 39.2,61 39.2,67.2 40.6,67.2 40.6,59.5 39.4,59.5 		"/>
		<polygon class="st1" points="41.9,60.9 41.9,61.6 42.8,61.6 43.5,61 43.5,67.2 44.9,67.2 44.9,59.5 43.7,59.5 		"/>
		<path class="st1" d="M49.3,59.3c-1.7,0-2.8,1.3-2.8,2.9v2.3c0,1.5,1,2.9,2.8,2.9c1.7,0,2.8-1.3,2.8-2.9v-2.3
			C52.1,60.6,51.1,59.3,49.3,59.3z M50.7,64.5c0,0.9-0.5,1.7-1.5,1.7c-1,0-1.5-0.8-1.5-1.7v-2.3c0-1,0.6-1.7,1.5-1.7
			c1,0,1.5,0.8,1.5,1.7V64.5z"/>
		<polygon class="st1" points="56,67.2 56,59.5 54.7,59.5 52.9,60.9 52.9,61.6 53.8,61.6 54.5,61 54.5,67.2 		"/>
		<polygon class="st1" points="57.2,60.9 57.2,61.6 58.1,61.6 58.8,61 58.8,67.2 60.2,67.2 60.2,59.5 59,59.5 		"/>
		<path class="st1" d="M61.8,62.2v2.3c0,1.5,1,2.9,2.8,2.9c1.7,0,2.8-1.3,2.8-2.9v-2.3c0-1.6-1-2.9-2.8-2.9
			C62.9,59.3,61.8,60.6,61.8,62.2z M63.2,62.2c0-1,0.6-1.7,1.5-1.7c1,0,1.5,0.8,1.5,1.7v2.3c0,0.9-0.5,1.7-1.5,1.7
			c-1,0-1.5-0.8-1.5-1.7V62.2z"/>
		<polygon class="st1" points="71.3,67.2 71.3,59.5 70.1,59.5 68.3,60.9 68.3,61.6 69.2,61.6 69.9,61 69.9,67.2 		"/>
		<path class="st1" d="M75.5,62.2v2.3c0,1.5,1,2.9,2.8,2.9c1.7,0,2.8-1.3,2.8-2.9v-2.3c0-1.6-1-2.9-2.8-2.9
			C76.5,59.3,75.5,60.6,75.5,62.2z M76.8,62.2c0-1,0.6-1.7,1.5-1.7c1,0,1.5,0.8,1.5,1.7v2.3c0,0.9-0.5,1.7-1.5,1.7s-1.5-0.8-1.5-1.7
			V62.2z"/>
		<polygon class="st1" points="85,67.2 85,59.5 83.8,59.5 81.9,60.9 81.9,61.6 82.9,61.6 83.6,61 83.6,67.2 		"/>
		<polygon class="st1" points="89.2,67.2 89.2,59.5 88,59.5 86.2,60.9 86.2,61.6 87.1,61.6 87.8,61 87.8,67.2 		"/>
		<polygon class="st1" points="93.4,59.5 92.2,59.5 90.4,60.9 90.4,61.6 91.3,61.6 92,61 92,67.2 93.4,67.2 		"/>
		<path class="st1" d="M97.9,59.3c-1.7,0-2.8,1.3-2.8,2.9v2.3c0,1.5,1,2.9,2.8,2.9c1.7,0,2.8-1.3,2.8-2.9v-2.3
			C100.7,60.6,99.7,59.3,97.9,59.3z M99.3,64.5c0,0.9-0.5,1.7-1.5,1.7c-1,0-1.5-0.8-1.5-1.7v-2.3c0-1,0.6-1.7,1.5-1.7
			c1,0,1.5,0.8,1.5,1.7V64.5z"/>
		<path class="st1" d="M101.9,62.2v2.3c0,1.5,1,2.9,2.8,2.9c1.7,0,2.8-1.3,2.8-2.9v-2.3c0-1.6-1-2.9-2.8-2.9
			C103,59.3,101.9,60.6,101.9,62.2z M106.1,62.2v2.3c0,0.9-0.5,1.7-1.5,1.7s-1.5-0.8-1.5-1.7v-2.3c0-1,0.6-1.7,1.5-1.7
			C105.7,60.5,106.1,61.2,106.1,62.2z"/>
		<path class="st1" d="M108.7,62.2v2.3c0,1.5,1,2.9,2.8,2.9c1.7,0,2.8-1.3,2.8-2.9v-2.3c0-1.6-1-2.9-2.8-2.9
			C109.8,59.3,108.7,60.6,108.7,62.2z M110,62.2c0-1,0.6-1.7,1.5-1.7c1,0,1.5,0.8,1.5,1.7v2.3c0,0.9-0.4,1.7-1.5,1.7
			c-1,0-1.5-0.8-1.5-1.7V62.2z"/>
		<path class="st1" d="M121.2,64.5v-2.3c0-1.6-1-2.9-2.8-2.9c-1.7,0-2.8,1.3-2.8,2.9v2.3c0,1.5,1,2.9,2.8,2.9
			C120.1,67.4,121.2,66.1,121.2,64.5z M119.8,64.5c0,0.9-0.5,1.7-1.5,1.7c-1,0-1.5-0.8-1.5-1.7v-2.3c0-1,0.6-1.7,1.5-1.7
			c1,0,1.5,0.8,1.5,1.7V64.5z"/>
		<path class="st1" d="M130.6,64.5v-2.3c0-1.6-1-2.9-2.8-2.9c-1.7,0-2.8,1.3-2.8,2.9v2.3c0,1.5,1,2.9,2.8,2.9
			C129.5,67.4,130.6,66.1,130.6,64.5z M129.2,64.5c0,0.9-0.5,1.7-1.5,1.7s-1.5-0.8-1.5-1.7v-2.3c0-1,0.6-1.7,1.5-1.7
			c1,0,1.5,0.8,1.5,1.7V64.5z"/>
		<polygon class="st1" points="134.4,59.5 133.2,59.5 131.4,60.9 131.4,61.6 132.3,61.6 133,61 133,67.2 134.4,67.2 		"/>
		<polygon class="st1" points="138.7,67.2 138.7,59.5 137.5,59.5 135.7,60.9 135.7,61.6 136.6,61.6 137.3,61 137.3,67.2 		"/>
		<path class="st1" d="M143.1,67.4c1.7,0,2.8-1.3,2.8-2.9v-2.3c0-1.6-1-2.9-2.8-2.9c-1.7,0-2.8,1.3-2.8,2.9v2.3
			C140.3,66,141.3,67.4,143.1,67.4z M141.6,62.2c0-1,0.6-1.7,1.5-1.7c1,0,1.5,0.8,1.5,1.7v2.3c0,0.9-0.4,1.7-1.5,1.7
			c-1,0-1.5-0.8-1.5-1.7V62.2z"/>
		<polygon class="st1" points="146.7,60.9 146.7,61.6 147.7,61.6 148.4,61 148.4,67.2 149.8,67.2 149.8,59.5 148.6,59.5 		"/>
		<polygon class="st1" points="151,60.9 151,61.6 151.9,61.6 152.6,61 152.6,67.2 154,67.2 154,59.5 152.8,59.5 		"/>
		<path class="st1" d="M158.5,67.4c1.7,0,2.8-1.3,2.8-2.9v-2.3c0-1.6-1-2.9-2.8-2.9c-1.7,0-2.8,1.3-2.8,2.9v2.3
			C155.7,66,156.7,67.4,158.5,67.4z M156.9,62.2c0-1,0.6-1.7,1.5-1.7c1,0,1.5,0.8,1.5,1.7v2.3c0,0.9-0.5,1.7-1.5,1.7
			s-1.5-0.8-1.5-1.7V62.2z"/>
		<path class="st1" d="M165,67.4c-0.1-0.4-0.2-0.8-0.2-1.2c-0.6-0.2-1-0.9-1-1.6v-2.4c-0.2-0.7-0.4-1.3-0.5-1.9
			c-0.5,0.5-0.7,1.2-0.7,2v2.3C162.5,65.9,163.4,67.2,165,67.4z"/>
		<path class="st1" d="M4.1,78.7c1.7,0,2.8-1.3,2.8-2.9v-2.3c0-1.6-1-2.9-2.8-2.9c-0.7,0-1.3,0.2-1.7,0.6c-0.7,0.5-1.1,1.4-1.1,2.3
			v2.3c0,0.6,0.1,1.1,0.4,1.5C2.2,78.1,3,78.7,4.1,78.7z M2.6,73.5c0-1,0.6-1.7,1.5-1.7c1,0,1.5,0.8,1.5,1.7v2.3
			c0,0.9-0.5,1.7-1.5,1.7c-1,0-1.5-0.8-1.5-1.7V73.5z"/>
		<polygon class="st1" points="7.7,73 8.7,73 9.4,72.3 9.4,78.5 10.8,78.5 10.8,70.7 9.6,70.7 7.7,72.1 		"/>
		<polygon class="st1" points="15.1,78.5 15.1,70.7 13.9,70.7 12,72.1 12,73 13,73 13.7,72.3 13.7,78.5 		"/>
		<path class="st1" d="M16.7,73.5v2.3c0,1.5,1,2.8,2.8,2.9c1.7,0,2.8-1.3,2.8-2.9v-2.3c0-1.6-1-2.9-2.8-2.9
			C17.8,70.7,16.7,72,16.7,73.5z M17.9,73.5c0-1,0.6-1.7,1.5-1.7c1,0,1.5,0.8,1.5,1.7v2.3c0,0.9-0.5,1.7-1.5,1.7
			c-1,0-1.5-0.8-1.5-1.7V73.5z"/>
		<path class="st1" d="M26.3,70.7c-1.7,0-2.8,1.3-2.8,2.9v2.3c0,1.5,1,2.8,2.8,2.9c1.7,0,2.8-1.3,2.8-2.9v-2.3
			C29.1,72,28.1,70.7,26.3,70.7z M27.8,75.8c0,0.9-0.5,1.7-1.5,1.7c-1,0-1.5-0.8-1.5-1.7v-2.3c0-1,0.6-1.7,1.5-1.7
			c1,0,1.5,0.8,1.5,1.7V75.8z"/>
		<path class="st1" d="M35.9,73.5c0-1.6-1-2.9-2.8-2.9c-1.7,0-2.8,1.3-2.8,2.9v2.3c0,1.5,1,2.8,2.8,2.9c1.7,0,2.8-1.3,2.8-2.9V73.5z
			 M34.6,75.8c0,0.9-0.5,1.7-1.5,1.7c-1,0-1.5-0.8-1.5-1.7v-2.3c0-1,0.6-1.7,1.5-1.7c1,0,1.5,0.8,1.5,1.7V75.8z"/>
		<path class="st1" d="M37.2,75.8c0,1.5,1,2.8,2.8,2.9c1.7,0,2.8-1.3,2.8-2.9v-2.3c0-1.6-1-2.9-2.8-2.9c-1.7,0-2.8,1.3-2.8,2.9V75.8
			z M38.5,73.5c0-1,0.6-1.7,1.5-1.7c1,0,1.5,0.8,1.5,1.7v2.3c0,0.9-0.5,1.7-1.5,1.7c-1,0-1.5-0.8-1.5-1.7V73.5z"/>
		<polygon class="st1" points="43.6,72.1 43.6,73 44.5,73 45.2,72.3 45.2,78.5 46.6,78.5 46.6,70.7 45.4,70.7 		"/>
		<path class="st1" d="M50.8,73.5v2.3c0,1.5,1.1,2.8,2.8,2.9c1.7,0,2.8-1.3,2.8-2.9v-2.3c0-1.6-1-2.9-2.8-2.9
			C51.9,70.7,50.8,72,50.8,73.5z M52.1,73.5c0-1,0.6-1.7,1.5-1.7c1,0,1.5,0.8,1.5,1.7v2.3c0,0.9-0.5,1.7-1.5,1.7
			c-1,0-1.5-0.8-1.5-1.7V73.5z"/>
		<polygon class="st1" points="60.3,78.5 60.3,70.7 59.1,70.7 57.2,72.1 57.2,73 58.2,73 58.9,72.3 58.9,78.5 		"/>
		<polygon class="st1" points="61.5,73 62.5,73 63.2,72.3 63.2,78.5 64.6,78.5 64.6,70.7 63.3,70.7 61.5,72.1 		"/>
		<path class="st1" d="M66.2,73.5v2.3c0,1.5,1,2.8,2.8,2.9c1.7,0,2.8-1.3,2.8-2.9v-2.3c0-1.6-1-2.9-2.8-2.9
			C67.2,70.7,66.2,72,66.2,73.5z M67.5,73.5c0-1,0.6-1.7,1.5-1.7c1,0,1.5,0.8,1.5,1.7v2.3c0,0.9-0.5,1.7-1.5,1.7
			c-1,0-1.5-0.8-1.5-1.7V73.5z"/>
		<polygon class="st1" points="75.7,70.7 74.4,70.7 72.6,72.1 72.6,73 73.5,73 74.3,72.3 74.3,78.5 75.7,78.5 		"/>
		<polygon class="st1" points="79.9,78.5 79.9,70.7 78.6,70.7 76.8,72.1 76.8,73 77.8,73 78.5,72.3 78.5,78.5 		"/>
		<path class="st1" d="M81.5,75.8c0,1.5,1,2.8,2.8,2.9c1.7,0,2.8-1.3,2.8-2.9v-2.3c0-1.6-1-2.9-2.8-2.9c-1.7,0-2.8,1.3-2.8,2.9V75.8
			z M82.8,73.5c0-1,0.6-1.7,1.5-1.7c1,0,1.5,0.8,1.5,1.7v2.3c0,0.9-0.5,1.7-1.5,1.7c-1,0-1.5-0.8-1.5-1.7V73.5z"/>
		<polygon class="st1" points="87.9,72.1 87.9,73 88.9,73 89.6,72.3 89.6,78.5 91,78.5 91,70.7 89.7,70.7 		"/>
		<path class="st1" d="M100.8,75.8v-2.3c0-1.6-1-2.9-2.8-2.9c-1.7,0-2.8,1.3-2.8,2.9v2.3c0,1.5,1,2.8,2.8,2.9
			C99.7,78.7,100.8,77.4,100.8,75.8z M99.4,75.8c0,0.9-0.5,1.7-1.5,1.7c-1,0-1.5-0.8-1.5-1.7v-2.3c0-1,0.6-1.7,1.5-1.7
			c1,0,1.5,0.8,1.5,1.7V75.8z"/>
		<polygon class="st1" points="104.6,78.5 104.6,70.7 103.4,70.7 101.5,72.1 101.5,73 102.5,73 103.2,72.3 103.2,78.5 		"/>
		<polygon class="st1" points="107.5,72.3 107.5,78.5 108.9,78.5 108.9,70.7 107.7,70.7 105.8,72.1 105.8,73 106.8,73 		"/>
		<polygon class="st1" points="113.1,78.5 113.1,70.7 111.9,70.7 110.1,72.1 110.1,73 111,73 111.7,72.3 111.7,78.5 		"/>
		<path class="st1" d="M114.7,75.8c0,1.5,1,2.8,2.8,2.9c1.7,0,2.8-1.3,2.8-2.9v-2.3c0-1.6-1-2.9-2.8-2.9c-1.7,0-2.8,1.3-2.8,2.9
			V75.8z M116,73.5c0-1,0.6-1.7,1.5-1.7c1,0,1.5,0.8,1.5,1.7v2.3c0,0.9-0.5,1.7-1.5,1.7c-1,0-1.5-0.8-1.5-1.7V73.5z"/>
		<path class="st1" d="M124.4,70.7c-1.7,0-2.8,1.3-2.8,2.9v2.3c0,1.5,1,2.8,2.8,2.9c1.7,0,2.8-1.3,2.8-2.9v-2.3
			C127.2,72,126.2,70.7,124.4,70.7z M125.8,75.8c0,0.9-0.5,1.7-1.5,1.7c-1,0-1.5-0.8-1.5-1.7v-2.3c0-1,0.6-1.7,1.5-1.7
			c1,0,1.5,0.8,1.5,1.7V75.8z"/>
		<path class="st1" d="M134,75.8v-2.3c0-1.6-1-2.9-2.8-2.9c-1.7,0-2.8,1.3-2.8,2.9v2.3c0,1.5,1,2.8,2.8,2.9
			C132.9,78.7,134,77.4,134,75.8z M129.7,75.8v-2.3c0-1,0.6-1.7,1.5-1.7c1,0,1.5,0.8,1.5,1.7v2.3c0,0.9-0.5,1.7-1.5,1.7
			C130.2,77.6,129.7,76.8,129.7,75.8z"/>
		<path class="st1" d="M138,78.7c1.7,0,2.8-1.3,2.8-2.9v-2.3c0-1.6-1-2.9-2.8-2.9c-1.7,0-2.8,1.3-2.8,2.9v2.3
			C135.2,77.4,136.3,78.6,138,78.7z M136.5,73.5c0-1,0.6-1.7,1.5-1.7c1,0,1.5,0.8,1.5,1.7v2.3c0,0.9-0.5,1.7-1.5,1.7
			c-1,0-1.5-0.8-1.5-1.7V73.5z"/>
		<path class="st1" d="M147.4,70.7c-1.7,0-2.8,1.3-2.8,2.9v2.3c0,1.5,1,2.8,2.8,2.9c1.7,0,2.8-1.3,2.8-2.9v-2.3
			C150.3,72,149.2,70.7,147.4,70.7z M148.9,75.8c0,0.9-0.5,1.7-1.5,1.7c-1,0-1.5-0.8-1.5-1.7v-2.3c0-1,0.6-1.7,1.5-1.7
			c1,0,1.5,0.8,1.5,1.7V75.8z"/>
		<polygon class="st1" points="151,72.1 151,73 152,73 152.7,72.3 152.7,78.5 154.1,78.5 154.1,70.7 152.9,70.7 		"/>
		<polygon class="st1" points="156.9,72.3 156.9,78.5 158.4,78.5 158.4,70.7 157.1,70.7 155.3,72.1 155.3,73 156.2,73 		"/>
		<path class="st1" d="M162.8,70.7c-1.7,0-2.8,1.3-2.8,2.9v2.3c0,1.5,1,2.8,2.8,2.9c1.7,0,2.8-1.3,2.8-2.9v-2.3
			C165.6,72,164.5,70.7,162.8,70.7z M164.2,75.8c0,0.9-0.5,1.7-1.5,1.7c-1,0-1.5-0.8-1.5-1.7v-2.3c0-1,0.6-1.7,1.5-1.7
			c1,0,1.5,0.8,1.5,1.7V75.8z"/>
		<path class="st1" d="M1.5,83.3c0,2.2,0.1,4.4,0.3,6.6h0.6v-7.8H1.5C1.5,82.5,1.5,82.9,1.5,83.3z"/>
		<path class="st1" d="M6.8,82C5.1,82,4,83.2,4,84.8v2.3C4,88.7,5,90,6.8,90c1.7,0,2.8-1.3,2.8-2.9v-2.3C9.6,83.2,8.6,82,6.8,82z
			 M8.2,87.1c0,1-0.5,1.7-1.5,1.7s-1.5-0.8-1.5-1.7v-2.3c0-1,0.6-1.7,1.5-1.7c1,0,1.5,0.8,1.5,1.7V87.1z"/>
		<polygon class="st1" points="13.5,89.9 13.5,82.1 12.3,82.1 10.4,83.5 10.4,84.3 11.4,84.3 12.1,83.6 12.1,89.9 		"/>
		<path class="st1" d="M23.2,87.1v-2.3c0-1.6-1-2.9-2.8-2.9c-1.7,0-2.8,1.3-2.8,2.9v2.3c0,1.6,1,2.9,2.8,2.9
			C22.2,90,23.2,88.7,23.2,87.1z M18.9,87.1v-2.3c0-1,0.6-1.7,1.5-1.7c1,0,1.5,0.8,1.5,1.7v2.3c0,1-0.5,1.7-1.5,1.7
			C19.4,88.9,18.9,88.1,18.9,87.1z"/>
		<polygon class="st1" points="27.1,89.9 27.1,82.1 25.9,82.1 24,83.5 24,84.3 25,84.3 25.7,83.6 25.7,89.9 		"/>
		<polygon class="st1" points="31.3,89.9 31.3,82.1 30.1,82.1 28.3,83.5 28.3,84.3 29.2,84.3 29.9,83.6 29.9,89.9 		"/>
		<polygon class="st1" points="35.6,89.9 35.6,82.1 34.4,82.1 32.6,83.5 32.6,84.3 33.5,84.3 34.2,83.6 34.2,89.9 		"/>
		<polygon class="st1" points="36.8,84.3 37.8,84.3 38.5,83.6 38.5,89.9 39.9,89.9 39.9,82.1 38.7,82.1 36.8,83.5 		"/>
		<path class="st1" d="M41.5,84.8v2.3c0,1.6,1,2.9,2.8,2.9c1.7,0,2.8-1.3,2.8-2.9v-2.3c0-1.6-1-2.9-2.8-2.9
			C42.6,82,41.5,83.2,41.5,84.8z M42.8,84.8c0-1,0.6-1.7,1.5-1.7c1,0,1.5,0.8,1.5,1.7v2.3c0,1-0.5,1.7-1.5,1.7c-1,0-1.5-0.8-1.5-1.7
			V84.8z"/>
		<path class="st1" d="M53.9,87.1v-2.3c0-1.6-1-2.9-2.8-2.9c-1.7,0-2.8,1.3-2.8,2.9v2.3c0,1.6,1,2.9,2.8,2.9
			C52.8,90,53.9,88.7,53.9,87.1z M52.5,87.1c0,1-0.5,1.7-1.5,1.7c-1,0-1.5-0.8-1.5-1.7v-2.3c0-1,0.6-1.7,1.5-1.7
			c1,0,1.5,0.8,1.5,1.7V87.1z"/>
		<path class="st1" d="M55.1,84.8v2.3c0,1.6,1,2.9,2.8,2.9c1.7,0,2.8-1.3,2.8-2.9v-2.3c0-1.6-1-2.9-2.8-2.9
			C56.2,82,55.1,83.2,55.1,84.8z M56.5,84.8c0-1,0.6-1.7,1.5-1.7c1,0,1.5,0.8,1.5,1.7v2.3c0,1-0.5,1.7-1.5,1.7c-1,0-1.5-0.8-1.5-1.7
			V84.8z"/>
		<path class="st1" d="M70.1,87.1v-2.3c0-1.6-1-2.9-2.8-2.9c-1.7,0-2.8,1.3-2.8,2.9v2.3c0,1.6,1,2.9,2.8,2.9
			C69,90,70.1,88.7,70.1,87.1z M68.8,87.1c0,1-0.5,1.7-1.5,1.7c-1,0-1.5-0.8-1.5-1.7v-2.3c0-1,0.6-1.7,1.5-1.7c1,0,1.5,0.8,1.5,1.7
			V87.1z"/>
		<polygon class="st1" points="70.9,84.3 71.9,84.3 72.6,83.6 72.6,89.9 74,89.9 74,82.1 72.8,82.1 70.9,83.5 		"/>
		<polygon class="st1" points="78.3,89.9 78.3,82.1 77.1,82.1 75.2,83.5 75.2,84.3 76.2,84.3 76.9,83.6 76.9,89.9 		"/>
		<path class="st1" d="M85.5,87.1v-2.3c0-1.6-1-2.9-2.8-2.9c-1.7,0-2.8,1.3-2.8,2.9v2.3c0,1.6,1,2.9,2.8,2.9
			C84.4,90,85.5,88.7,85.5,87.1z M81.1,87.1v-2.3c0-1,0.6-1.7,1.5-1.7c1,0,1.5,0.8,1.5,1.7v2.3c0,1-0.5,1.7-1.5,1.7
			C81.6,88.9,81.1,88.1,81.1,87.1z"/>
		<path class="st1" d="M92.3,87.1v-2.3c0-1.6-1-2.9-2.8-2.9c-1.7,0-2.8,1.3-2.8,2.9v2.3c0,1.6,1,2.9,2.8,2.9
			C91.2,90,92.3,88.7,92.3,87.1z M88,87.1v-2.3c0-1,0.6-1.7,1.5-1.7c1,0,1.5,0.8,1.5,1.7v2.3c0,1-0.5,1.7-1.5,1.7
			C88.5,88.9,88,88.1,88,87.1z"/>
		<path class="st1" d="M99.1,84.8c0-1.6-1-2.9-2.8-2.9c-1.7,0-2.8,1.3-2.8,2.9v2.3c0,1.6,1,2.9,2.8,2.9c1.7,0,2.8-1.3,2.8-2.9V84.8z
			 M97.8,87.1c0,1-0.5,1.7-1.5,1.7s-1.5-0.8-1.5-1.7v-2.3c0-1,0.6-1.7,1.5-1.7c1,0,1.5,0.8,1.5,1.7V87.1z"/>
		<path class="st1" d="M105.9,84.8c0-1.6-1-2.9-2.8-2.9c-1.7,0-2.8,1.3-2.8,2.9v2.3c0,1.6,1.1,2.9,2.8,2.9c1.7,0,2.8-1.3,2.8-2.9
			V84.8z M104.6,87.1c0,1-0.5,1.7-1.5,1.7s-1.5-0.8-1.5-1.7v-2.3c0-1,0.6-1.7,1.5-1.7c1,0,1.5,0.8,1.5,1.7V87.1z"/>
		<polygon class="st1" points="109.8,82.1 108.6,82.1 106.8,83.5 106.8,84.3 107.7,84.3 108.4,83.6 108.4,89.9 109.8,89.9 		"/>
		<path class="st1" d="M116.8,90c1.7,0,2.8-1.3,2.8-2.9v-2.3c0-1.6-1-2.9-2.8-2.9c-1.7,0-2.8,1.3-2.8,2.9v2.3
			C114,88.7,115.1,90,116.8,90z M115.3,84.8c0-1,0.6-1.7,1.5-1.7c1,0,1.5,0.8,1.5,1.7v2.3c0,1-0.5,1.7-1.5,1.7s-1.5-0.8-1.5-1.7
			V84.8z"/>
		<polygon class="st1" points="122.1,83.6 122.1,89.9 123.5,89.9 123.5,82.1 122.3,82.1 120.4,83.5 120.4,84.3 121.4,84.3 		"/>
		<polygon class="st1" points="127.7,89.9 127.7,82.1 126.5,82.1 124.7,83.5 124.7,84.3 125.6,84.3 126.3,83.6 126.3,89.9 		"/>
		<path class="st1" d="M132.1,82c-1.7,0-2.8,1.3-2.8,2.9v2.3c0,1.6,1,2.9,2.8,2.9c1.7,0,2.8-1.3,2.8-2.9v-2.3
			C135,83.2,133.9,82,132.1,82z M133.6,87.1c0,1-0.5,1.7-1.5,1.7s-1.5-0.8-1.5-1.7v-2.3c0-1,0.6-1.7,1.5-1.7c1,0,1.5,0.8,1.5,1.7
			V87.1z"/>
		<polygon class="st1" points="138.8,89.9 138.8,82.1 137.6,82.1 135.8,83.5 135.8,84.3 136.7,84.3 137.4,83.6 137.4,89.9 		"/>
		<polygon class="st1" points="140,84.3 140.9,84.3 141.6,83.6 141.6,89.9 143,89.9 143,82.1 141.8,82.1 140,83.5 		"/>
		<path class="st1" d="M150.3,84.8c0-1.6-1-2.9-2.8-2.9c-1.7,0-2.8,1.3-2.8,2.9v2.3c0,1.6,1,2.9,2.8,2.9c1.7,0,2.8-1.3,2.8-2.9V84.8
			z M148.9,87.1c0,1-0.5,1.7-1.5,1.7s-1.5-0.8-1.5-1.7v-2.3c0-1,0.6-1.7,1.5-1.7c1,0,1.5,0.8,1.5,1.7V87.1z"/>
		<polygon class="st1" points="154.1,89.9 154.1,82.1 152.9,82.1 151.1,83.5 151.1,84.3 152,84.3 152.7,83.6 152.7,89.9 		"/>
		<path class="st1" d="M161.1,82c-1.7,0-2.8,1.3-2.8,2.9v2.3c0,1.6,1.1,2.9,2.8,2.9s2.8-1.3,2.8-2.9v-2.3
			C163.9,83.2,162.9,82,161.1,82z M162.6,87.1c0,1-0.5,1.7-1.5,1.7s-1.5-0.8-1.5-1.7v-2.3c0-1,0.6-1.7,1.5-1.7c1,0,1.5,0.8,1.5,1.7
			V87.1z"/>
		<path class="st1" d="M166.5,83.3c0-0.4,0-0.8,0-1.2l-1.8,1.3v0.8h1l0.7-0.6v4.3C166.5,86.4,166.5,84.8,166.5,83.3z"/>
		<path class="st1" d="M6.5,101.3c1.7,0,2.8-1.3,2.8-2.9v-2.3c0-1.6-1-2.9-2.8-2.9c-1.7,0-2.8,1.3-2.8,2.9v2.3
			C3.7,100.1,4.8,101.3,6.5,101.3z M5,96.2c0-1,0.6-1.7,1.5-1.7c1,0,1.5,0.8,1.5,1.7v2.3c0,1-0.5,1.7-1.5,1.7S5,99.4,5,98.5V96.2z"
			/>
		<polygon class="st1" points="13.2,101.2 13.2,93.4 12,93.4 10.2,94.8 10.2,95.6 11.1,95.6 11.8,95 11.8,101.2 		"/>
		<path class="st1" d="M17.6,101.3c1.7,0,2.8-1.3,2.8-2.9v-2.3c0-1.6-1-2.9-2.8-2.9c-1.7,0-2.8,1.3-2.8,2.9v2.3
			C14.8,100.1,15.8,101.3,17.6,101.3z M16.1,96.2c0-1,0.6-1.7,1.5-1.7c1,0,1.5,0.8,1.5,1.7v2.3c0,1-0.5,1.7-1.5,1.7
			s-1.5-0.8-1.5-1.7V96.2z"/>
		<path class="st1" d="M21.6,96.2v2.3c0,1.6,1,2.9,2.8,2.9c1.7,0,2.8-1.3,2.8-2.9v-2.3c0-1.6-1-2.9-2.8-2.9
			C22.7,93.3,21.6,94.6,21.6,96.2z M22.9,96.2c0-1,0.6-1.7,1.5-1.7c1,0,1.5,0.8,1.5,1.7v2.3c0,1-0.5,1.7-1.5,1.7s-1.5-0.8-1.5-1.7
			V96.2z"/>
		<path class="st1" d="M31.3,101.3c1.7,0,2.8-1.3,2.8-2.9v-2.3c0-1.6-1-2.9-2.8-2.9c-1.7,0-2.8,1.3-2.8,2.9v2.3
			C28.5,100.1,29.5,101.3,31.3,101.3z M29.8,96.2c0-1,0.6-1.7,1.5-1.7c1,0,1.5,0.8,1.5,1.7v2.3c0,1-0.5,1.7-1.5,1.7
			c-1,0-1.5-0.8-1.5-1.7V96.2z"/>
		<polygon class="st1" points="38,101.2 38,93.4 36.8,93.4 34.9,94.8 34.9,95.6 35.9,95.6 36.6,95 36.6,101.2 		"/>
		<path class="st1" d="M42.4,101.3c1.7,0,2.8-1.3,2.8-2.9v-2.3c0-1.6-1-2.9-2.8-2.9c-1.7,0-2.8,1.3-2.8,2.9v2.3
			C39.6,100.1,40.6,101.3,42.4,101.3z M40.9,96.2c0-1,0.6-1.7,1.5-1.7c1,0,1.5,0.8,1.5,1.7v2.3c0,1-0.5,1.7-1.5,1.7
			c-1,0-1.5-0.8-1.5-1.7V96.2z"/>
		<polygon class="st1" points="49.1,101.2 49.1,93.4 47.9,93.4 46,94.8 46,95.6 47,95.6 47.7,95 47.7,101.2 		"/>
		<path class="st1" d="M58.8,98.5v-2.3c0-1.6-1-2.9-2.8-2.9c-1.7,0-2.8,1.3-2.8,2.9v2.3c0,1.6,1,2.9,2.8,2.9
			C57.7,101.3,58.8,100.1,58.8,98.5z M54.5,98.5v-2.3c0-1,0.6-1.7,1.5-1.7c1,0,1.5,0.8,1.5,1.7v2.3c0,1-0.4,1.7-1.5,1.7
			C55,100.2,54.5,99.4,54.5,98.5z"/>
		<polygon class="st1" points="59.6,95.6 60.6,95.6 61.3,95 61.3,101.2 62.7,101.2 62.7,93.4 61.5,93.4 59.6,94.8 		"/>
		<polygon class="st1" points="66.9,101.2 66.9,93.4 65.7,93.4 63.9,94.8 63.9,95.6 64.8,95.6 65.5,95 65.5,101.2 		"/>
		<polygon class="st1" points="71.2,93.4 70,93.4 68.1,94.8 68.1,95.6 69.1,95.6 69.8,95 69.8,101.2 71.2,101.2 		"/>
		<polygon class="st1" points="75.5,101.2 75.5,93.4 74.3,93.4 72.4,94.8 72.4,95.6 73.4,95.6 74.1,95 74.1,101.2 		"/>
		<path class="st1" d="M79.9,101.3c1.7,0,2.8-1.3,2.8-2.9v-2.3c0-1.6-1-2.9-2.8-2.9c-1.7,0-2.8,1.3-2.8,2.9v2.3
			C77.1,100.1,78.1,101.3,79.9,101.3z M78.3,96.2c0-1,0.6-1.7,1.5-1.7c1,0,1.5,0.8,1.5,1.7v2.3c0,1-0.5,1.7-1.5,1.7
			s-1.5-0.8-1.5-1.7V96.2z"/>
		<path class="st1" d="M86.7,101.3c1.7,0,2.8-1.3,2.8-2.9v-2.3c0-1.6-1-2.9-2.8-2.9c-1.7,0-2.8,1.3-2.8,2.9v2.3
			C83.9,100.1,84.9,101.3,86.7,101.3z M85.2,96.2c0-1,0.6-1.7,1.5-1.7c1,0,1.5,0.8,1.5,1.7v2.3c0,1-0.5,1.7-1.5,1.7
			s-1.5-0.8-1.5-1.7V96.2z"/>
		<path class="st1" d="M96.3,98.5v-2.3c0-1.6-1-2.9-2.8-2.9c-1.7,0-2.8,1.3-2.8,2.9v2.3c0,1.6,1,2.9,2.8,2.9
			C95.2,101.3,96.3,100.1,96.3,98.5z M92,98.5v-2.3c0-1,0.6-1.7,1.5-1.7c1,0,1.5,0.8,1.5,1.7v2.3c0,1-0.5,1.7-1.5,1.7
			C92.5,100.2,92,99.4,92,98.5z"/>
		<path class="st1" d="M105.7,96.2c0-1.6-1-2.9-2.8-2.9c-1.7,0-2.8,1.3-2.8,2.9v2.3c0,1.6,1,2.9,2.8,2.9c1.7,0,2.8-1.3,2.8-2.9V96.2
			z M104.3,98.5c0,1-0.5,1.7-1.5,1.7c-1,0-1.5-0.8-1.5-1.7v-2.3c0-1,0.6-1.7,1.5-1.7c1,0,1.5,0.8,1.5,1.7V98.5z"/>
		<polygon class="st1" points="109.6,101.2 109.6,93.4 108.4,93.4 106.5,94.8 106.5,95.6 107.5,95.6 108.2,95 108.2,101.2 		"/>
		<polygon class="st1" points="113.8,101.2 113.8,93.4 112.6,93.4 110.8,94.8 110.8,95.6 111.7,95.6 112.4,95 112.4,101.2 		"/>
		<path class="st1" d="M121.1,98.5v-2.3c0-1.6-1-2.9-2.8-2.9c-1.7,0-2.8,1.3-2.8,2.9v2.3c0,1.6,1,2.9,2.8,2.9
			C120,101.3,121.1,100.1,121.1,98.5z M119.7,98.5c0,1-0.5,1.7-1.5,1.7s-1.5-0.8-1.5-1.7v-2.3c0-1,0.6-1.7,1.5-1.7
			c1,0,1.5,0.8,1.5,1.7V98.5z"/>
		<path class="st1" d="M125.1,101.3c1.7,0,2.8-1.3,2.8-2.9v-2.3c0-1.6-1-2.9-2.8-2.9c-1.7,0-2.8,1.3-2.8,2.9v2.3
			C122.3,100.1,123.3,101.3,125.1,101.3z M123.6,96.2c0-1,0.6-1.7,1.5-1.7c1,0,1.5,0.8,1.5,1.7v2.3c0,1-0.5,1.7-1.5,1.7
			c-1,0-1.5-0.8-1.5-1.7V96.2z"/>
		<path class="st1" d="M134.8,98.5v-2.3c0-1.6-1-2.9-2.8-2.9c-1.7,0-2.8,1.3-2.8,2.9v2.3c0,1.6,1,2.9,2.8,2.9
			C133.7,101.3,134.8,100.1,134.8,98.5z M133.4,98.5c0,1-0.5,1.7-1.5,1.7s-1.5-0.8-1.5-1.7v-2.3c0-1,0.6-1.7,1.5-1.7
			c1,0,1.5,0.8,1.5,1.7V98.5z"/>
		<path class="st1" d="M138.8,101.3c1.7,0,2.8-1.3,2.8-2.9v-2.3c0-1.6-1-2.9-2.8-2.9c-1.7,0-2.8,1.3-2.8,2.9v2.3
			C136,100.1,137,101.3,138.8,101.3z M137.2,96.2c0-1,0.6-1.7,1.5-1.7c1,0,1.5,0.8,1.5,1.7v2.3c0,1-0.5,1.7-1.5,1.7
			s-1.5-0.8-1.5-1.7V96.2z"/>
		<polygon class="st1" points="145.4,101.2 145.4,93.4 144.2,93.4 142.3,94.8 142.3,95.6 143.3,95.6 144,95 144,101.2 		"/>
		<path class="st1" d="M152.4,93.3c-1.7,0-2.8,1.3-2.8,2.9v2.3c0,1.6,1,2.9,2.8,2.9c1.7,0,2.8-1.3,2.8-2.9v-2.3
			C155.2,94.6,154.2,93.3,152.4,93.3z M153.8,98.5c0,1-0.5,1.7-1.5,1.7s-1.5-0.8-1.5-1.7v-2.3c0-1,0.6-1.7,1.5-1.7
			c1,0,1.5,0.8,1.5,1.7V98.5z"/>
		<polygon class="st1" points="159.1,101.2 159.1,93.4 157.8,93.4 156,94.8 156,95.6 156.9,95.6 157.7,95 157.7,101.2 		"/>
		<polygon class="st1" points="163.3,101.2 163.3,93.4 162.1,93.4 160.3,94.8 160.3,95.6 161.2,95.6 161.9,95 161.9,101.2 		"/>
		<path class="st1" d="M4.4,104.7L4.4,104.7c0,0.4,0.1,0.8,0.2,1.2c0.8,0.1,1.2,0.8,1.2,1.7v2.2c0.2,0.6,0.4,1.3,0.7,1.9
			c0,0,0,0,0,0.1c0.4-0.5,0.7-1.2,0.7-1.9v-2.3C7.2,105.9,6.2,104.7,4.4,104.7z"/>
		<polygon class="st1" points="8,106.2 8,107 9,107 9.7,106.3 9.7,112.6 11.1,112.6 11.1,104.8 9.9,104.8 		"/>
		<path class="st1" d="M20.8,109.8v-2.3c0-1.6-1-2.9-2.8-2.9c-1.7,0-2.8,1.3-2.8,2.9v2.3c0,1.6,1,2.9,2.8,2.9
			C19.7,112.7,20.8,111.4,20.8,109.8z M16.5,109.8v-2.3c0-1,0.6-1.7,1.5-1.7c1,0,1.5,0.8,1.5,1.7v2.3c0,1-0.5,1.7-1.5,1.7
			S16.5,110.8,16.5,109.8z"/>
		<polygon class="st1" points="24.7,112.6 24.7,104.8 23.5,104.8 21.6,106.2 21.6,107 22.6,107 23.3,106.3 23.3,112.6 		"/>
		<polygon class="st1" points="28.9,112.6 28.9,104.8 27.8,104.8 25.9,106.2 25.9,107 26.9,107 27.5,106.4 27.5,112.6 		"/>
		<path class="st1" d="M36.2,107.5c0-1.6-1-2.9-2.8-2.9c-1.7,0-2.8,1.3-2.8,2.9v2.3c0,1.6,1,2.9,2.8,2.9c1.7,0,2.8-1.3,2.8-2.9
			V107.5z M34.8,109.8c0,1-0.5,1.7-1.5,1.7c-1,0-1.5-0.8-1.5-1.7v-2.3c0-1,0.6-1.7,1.5-1.7c1,0,1.5,0.8,1.5,1.7V109.8z"/>
		<polygon class="st1" points="40,112.6 40,104.8 38.8,104.8 36.9,106.2 36.9,107 37.9,107 38.6,106.3 38.6,112.6 		"/>
		<polygon class="st1" points="44.3,112.6 44.3,104.8 43.1,104.8 41.2,106.2 41.2,107 42.2,107 42.9,106.3 42.9,112.6 		"/>
		<path class="st1" d="M51.5,109.8v-2.3c0-1.6-1-2.9-2.8-2.9c-1.7,0-2.8,1.3-2.8,2.9v2.3c0,1.6,1,2.9,2.8,2.9
			C50.4,112.7,51.5,111.4,51.5,109.8z M47.2,109.8v-2.3c0-1,0.6-1.7,1.5-1.7c1,0,1.5,0.8,1.5,1.7v2.3c0,1-0.5,1.7-1.5,1.7
			C47.7,111.6,47.2,110.8,47.2,109.8z"/>
		<polygon class="st1" points="55.4,112.6 55.4,104.8 54.2,104.8 52.3,106.2 52.3,107 53.3,107 54,106.3 54,112.6 		"/>
		<path class="st1" d="M65.1,109.8v-2.3c0-1.6-1-2.9-2.8-2.9c-1.7,0-2.8,1.3-2.8,2.9v2.3c0,1.6,1,2.9,2.8,2.9
			C64,112.7,65.1,111.4,65.1,109.8z M60.9,109.8v-2.3c0-1,0.6-1.7,1.5-1.7c1,0,1.5,0.8,1.5,1.7v2.3c0,1-0.5,1.7-1.5,1.7
			C61.4,111.6,60.9,110.8,60.9,109.8z"/>
		<polygon class="st1" points="67.6,106.3 67.6,112.6 69,112.6 69,104.8 67.8,104.8 66,106.2 66,107 66.9,107 		"/>
		<polygon class="st1" points="73.3,112.6 73.3,104.8 72.1,104.8 70.2,106.2 70.2,107 71.2,107 71.9,106.3 71.9,112.6 		"/>
		<polygon class="st1" points="77.5,112.6 77.5,104.8 76.3,104.8 74.4,106.2 74.4,107 75.4,107 76.1,106.3 76.1,112.6 		"/>
		<path class="st1" d="M82,112.7c1.7,0,2.8-1.3,2.8-2.9v-2.3c0-1.6-1-2.9-2.8-2.9c-1.7,0-2.8,1.3-2.8,2.9v2.3
			C79.2,111.4,80.2,112.7,82,112.7z M80.4,107.5c0-1,0.6-1.7,1.5-1.7c1,0,1.5,0.8,1.5,1.7v2.3c0,1-0.5,1.7-1.5,1.7
			c-1,0-1.5-0.8-1.5-1.7V107.5z"/>
		<path class="st1" d="M91.6,107.5c0-1.6-1-2.9-2.8-2.9c-1.7,0-2.8,1.3-2.8,2.9v2.3c0,1.6,1,2.9,2.8,2.9c1.7,0,2.8-1.3,2.8-2.9
			V107.5z M90.2,109.8c0,1-0.5,1.7-1.5,1.7c-1,0-1.5-0.8-1.5-1.7v-2.3c0-1,0.6-1.7,1.5-1.7c1,0,1.5,0.8,1.5,1.7V109.8z"/>
		<path class="st1" d="M95.6,112.7c1.7,0,2.8-1.3,2.8-2.9v-2.3c0-1.6-1-2.9-2.8-2.9c-1.7,0-2.8,1.3-2.8,2.9v2.3
			C92.8,111.4,93.8,112.7,95.6,112.7z M94.1,107.5c0-1,0.6-1.7,1.5-1.7c1,0,1.5,0.8,1.5,1.7v2.3c0,1-0.4,1.7-1.5,1.7
			c-1,0-1.5-0.8-1.5-1.7V107.5z"/>
		<path class="st1" d="M105.2,107.5c0-1.6-1-2.9-2.8-2.9c-1.7,0-2.8,1.3-2.8,2.9v2.3c0,1.6,1,2.9,2.8,2.9c1.7,0,2.8-1.3,2.8-2.9
			V107.5z M103.9,109.8c0,1-0.5,1.7-1.5,1.7s-1.5-0.8-1.5-1.7v-2.3c0-1,0.6-1.7,1.5-1.7c1,0,1.5,0.8,1.5,1.7V109.8z"/>
		<path class="st1" d="M114.6,109.8v-2.3c0-1.6-1-2.9-2.8-2.9c-1.7,0-2.8,1.3-2.8,2.9v2.3c0,1.6,1,2.9,2.8,2.9
			C113.5,112.7,114.6,111.4,114.6,109.8z M113.3,109.8c0,1-0.5,1.7-1.5,1.7c-1,0-1.5-0.8-1.5-1.7v-2.3c0-1,0.6-1.7,1.5-1.7
			c1,0,1.5,0.8,1.5,1.7V109.8z"/>
		<polygon class="st1" points="118.5,112.6 118.5,104.8 117.3,104.8 115.4,106.2 115.4,107 116.4,107 117.1,106.3 117.1,112.6 		"/>
		<polygon class="st1" points="122.8,112.6 122.8,104.8 121.6,104.8 119.7,106.2 119.7,107 120.7,107 121.4,106.3 121.4,112.6 		"/>
		<path class="st1" d="M130,109.8v-2.3c0-1.6-1-2.9-2.8-2.9c-1.7,0-2.8,1.3-2.8,2.9v2.3c0,1.6,1,2.9,2.8,2.9
			C128.9,112.7,130,111.4,130,109.8z M128.6,109.8c0,1-0.4,1.7-1.5,1.7c-1,0-1.5-0.8-1.5-1.7v-2.3c0-1,0.6-1.7,1.5-1.7
			c1,0,1.5,0.8,1.5,1.7V109.8z"/>
		<polygon class="st1" points="133.9,112.6 133.9,104.8 132.7,104.8 130.8,106.2 130.8,107 131.8,107 132.5,106.3 132.5,112.6 		"/>
		<polygon class="st1" points="136.7,106.3 136.7,112.6 138.1,112.6 138.1,104.8 136.9,104.8 135,106.2 135,107 136,107 		"/>
		<path class="st1" d="M142.5,112.7c1.7,0,2.8-1.3,2.8-2.9v-2.3c0-1.6-1-2.9-2.8-2.9c-1.7,0-2.8,1.3-2.8,2.9v2.3
			C139.7,111.4,140.8,112.7,142.5,112.7z M141,107.5c0-1,0.6-1.7,1.5-1.7c1,0,1.5,0.8,1.5,1.7v2.3c0,1-0.5,1.7-1.5,1.7
			s-1.5-0.8-1.5-1.7V107.5z"/>
		<path class="st1" d="M152.2,109.8v-2.3c0-1.6-1-2.9-2.8-2.9c-1.7,0-2.8,1.3-2.8,2.9v2.3c0,1.6,1,2.9,2.8,2.9
			C151.1,112.7,152.2,111.4,152.2,109.8z M150.8,109.8c0,1-0.5,1.7-1.5,1.7s-1.5-0.8-1.5-1.7v-2.3c0-1,0.6-1.7,1.5-1.7
			c1,0,1.5,0.8,1.5,1.7V109.8z"/>
		<path class="st1" d="M158.7,104.7c-1.7,0-2.8,1.3-2.8,2.9v2.3c0,1.6,1,2.9,2.8,2.9c1.7,0,2.8-1.3,2.8-2.9v-2.3
			C161.5,105.9,160.5,104.7,158.7,104.7z M160.1,109.8c0,1-0.4,1.7-1.5,1.7c-1,0-1.5-0.8-1.5-1.7v-2.3c0-1,0.6-1.7,1.5-1.7
			c1,0,1.5,0.8,1.5,1.7V109.8z"/>
		<path class="st1" d="M162.4,107h0.7c0.2-0.5,0.3-1.1,0.5-1.7l-1.2,0.9V107z"/>
		<path class="st1" d="M8.6,116.9l-0.9,0.7v0.8h1l0.4-0.4l0.3-0.3v0.9c0.4,1,0.9,1.9,1.4,2.8v-5.3H9.6L8.6,116.9z"/>
		<polygon class="st1" points="12,117.5 12,118.3 13,118.3 13.7,117.7 13.7,123.9 15.1,123.9 15.1,116.1 13.9,116.1 		"/>
		<path class="st1" d="M22.3,121.2v-2.3c0-1.6-1-2.9-2.8-2.9c-1.7,0-2.8,1.3-2.8,2.9v2.3c0,1.5,1,2.9,2.8,2.9
			C21.2,124,22.3,122.8,22.3,121.2z M17.9,121.2v-2.3c0-1,0.6-1.7,1.5-1.7c1,0,1.5,0.8,1.5,1.7v2.3c0,0.9-0.5,1.7-1.5,1.7
			C18.5,122.9,17.9,122.1,17.9,121.2z"/>
		<path class="st1" d="M29.1,121.2v-2.3c0-1.6-1-2.9-2.8-2.9c-1.7,0-2.8,1.3-2.8,2.9v2.3c0,1.5,1,2.9,2.8,2.9
			C28,124,29.1,122.8,29.1,121.2z M27.8,121.2c0,0.9-0.5,1.7-1.5,1.7c-1,0-1.5-0.8-1.5-1.7v-2.3c0-1,0.6-1.7,1.5-1.7
			c1,0,1.5,0.8,1.5,1.7V121.2z"/>
		<path class="st1" d="M33.1,124c1.7,0,2.8-1.3,2.8-2.9v-2.3c0-1.6-1-2.9-2.8-2.9c-1.7,0-2.8,1.3-2.8,2.9v2.3
			C30.3,122.7,31.3,124,33.1,124z M31.7,118.9c0-1,0.6-1.7,1.5-1.7c1,0,1.5,0.8,1.5,1.7v2.3c0,0.9-0.5,1.7-1.5,1.7
			c-1,0-1.5-0.8-1.5-1.7V118.9z"/>
		<path class="st1" d="M42.8,121.2v-2.3c0-1.6-1-2.9-2.8-2.9c-1.7,0-2.8,1.3-2.8,2.9v2.3c0,1.5,1,2.9,2.8,2.9
			C41.7,124,42.8,122.8,42.8,121.2z M38.5,121.2v-2.3c0-1,0.6-1.7,1.5-1.7c1,0,1.5,0.8,1.5,1.7v2.3c0,0.9-0.5,1.7-1.5,1.7
			C39,122.9,38.5,122.1,38.5,121.2z"/>
		<polygon class="st1" points="46.6,116.1 45.4,116.1 43.6,117.5 43.6,118.3 44.5,118.3 45.2,117.7 45.2,123.9 46.6,123.9 		"/>
		<path class="st1" d="M56.4,121.2v-2.3c0-1.6-1-2.9-2.8-2.9c-1.7,0-2.8,1.3-2.8,2.9v2.3c0,1.5,1.1,2.9,2.8,2.9
			S56.4,122.8,56.4,121.2z M55.1,121.2c0,0.9-0.5,1.7-1.5,1.7c-1,0-1.5-0.8-1.5-1.7v-2.3c0-1,0.6-1.7,1.5-1.7c1,0,1.5,0.8,1.5,1.7
			V121.2z"/>
		<polygon class="st1" points="60.3,123.9 60.3,116.1 59.1,116.1 57.2,117.5 57.2,118.3 58.2,118.3 58.9,117.7 58.9,123.9 		"/>
		<polygon class="st1" points="64.6,123.9 64.6,116.1 63.3,116.1 61.5,117.5 61.5,118.3 62.5,118.3 63.2,117.7 63.2,123.9 		"/>
		<path class="st1" d="M69,124c1.7,0,2.8-1.3,2.8-2.9v-2.3c0-1.6-1-2.9-2.8-2.9c-1.7,0-2.8,1.3-2.8,2.9v2.3
			C66.2,122.7,67.2,124,69,124z M67.5,118.9c0-1,0.6-1.7,1.5-1.7c1,0,1.5,0.8,1.5,1.7v2.3c0,0.9-0.5,1.7-1.5,1.7
			c-1,0-1.5-0.8-1.5-1.7V118.9z"/>
		<polygon class="st1" points="75.7,116.1 74.4,116.1 72.6,117.5 72.6,118.3 73.5,118.3 74.3,117.7 74.3,123.9 75.7,123.9 		"/>
		<polygon class="st1" points="79.9,123.9 79.9,116.1 78.6,116.1 76.8,117.5 76.8,118.3 77.8,118.3 78.5,117.7 78.5,123.9 		"/>
		<path class="st1" d="M84.3,124c1.7,0,2.8-1.3,2.8-2.9v-2.3c0-1.6-1-2.9-2.8-2.9c-1.7,0-2.8,1.3-2.8,2.9v2.3
			C81.5,122.7,82.5,124,84.3,124z M82.8,118.9c0-1,0.6-1.7,1.5-1.7c1,0,1.5,0.8,1.5,1.7v2.3c0,0.9-0.5,1.7-1.5,1.7
			c-1,0-1.5-0.8-1.5-1.7V118.9z"/>
		<polygon class="st1" points="91,123.9 91,116.1 89.7,116.1 87.9,117.5 87.9,118.3 88.9,118.3 89.6,117.7 89.6,123.9 		"/>
		<path class="st1" d="M100.8,121.2v-2.3c0-1.6-1-2.9-2.8-2.9c-1.7,0-2.8,1.3-2.8,2.9v2.3c0,1.5,1,2.9,2.8,2.9
			C99.7,124,100.8,122.8,100.8,121.2z M99.4,121.2c0,0.9-0.5,1.7-1.5,1.7c-1,0-1.5-0.8-1.5-1.7v-2.3c0-1,0.6-1.7,1.5-1.7
			c1,0,1.5,0.8,1.5,1.7V121.2z"/>
		<polygon class="st1" points="104.6,123.9 104.6,116.1 103.4,116.1 101.5,117.5 101.5,118.3 102.5,118.3 103.2,117.7 103.2,123.9 
					"/>
		<polygon class="st1" points="107.5,117.7 107.5,123.9 108.9,123.9 108.9,116.1 107.7,116.1 105.8,117.5 105.8,118.3 106.8,118.3 
					"/>
		<polygon class="st1" points="113.1,123.9 113.1,116.1 111.9,116.1 110.1,117.5 110.1,118.3 111,118.3 111.7,117.7 111.7,123.9 		
			"/>
		<path class="st1" d="M117.5,124c1.7,0,2.8-1.3,2.8-2.9v-2.3c0-1.6-1-2.9-2.8-2.9c-1.7,0-2.8,1.3-2.8,2.9v2.3
			C114.7,122.7,115.8,124,117.5,124z M116,118.9c0-1,0.6-1.7,1.5-1.7c1,0,1.5,0.8,1.5,1.7v2.3c0,0.9-0.5,1.7-1.5,1.7
			c-1,0-1.5-0.8-1.5-1.7V118.9z"/>
		<path class="st1" d="M127.2,121.2v-2.3c0-1.6-1-2.9-2.8-2.9c-1.7,0-2.8,1.3-2.8,2.9v2.3c0,1.5,1,2.9,2.8,2.9
			C126.1,124,127.2,122.8,127.2,121.2z M122.9,121.2v-2.3c0-1,0.6-1.7,1.5-1.7c1,0,1.5,0.8,1.5,1.7v2.3c0,0.9-0.5,1.7-1.5,1.7
			C123.4,122.9,122.9,122.1,122.9,121.2z"/>
		<path class="st1" d="M131.2,124c1.7,0,2.8-1.3,2.8-2.9v-2.3c0-1.6-1-2.9-2.8-2.9c-1.7,0-2.8,1.3-2.8,2.9v2.3
			C128.4,122.7,129.4,124,131.2,124z M129.7,118.9c0-1,0.6-1.7,1.5-1.7c1,0,1.5,0.8,1.5,1.7v2.3c0,0.9-0.5,1.7-1.5,1.7
			c-1,0-1.5-0.8-1.5-1.7V118.9z"/>
		<path class="st1" d="M138,124c1.7,0,2.8-1.3,2.8-2.9v-2.3c0-1.6-1-2.9-2.8-2.9c-1.7,0-2.8,1.3-2.8,2.9v2.3
			C135.2,122.7,136.3,124,138,124z M136.5,118.9c0-1,0.6-1.7,1.5-1.7c1,0,1.5,0.8,1.5,1.7v2.3c0,0.9-0.5,1.7-1.5,1.7
			c-1,0-1.5-0.8-1.5-1.7V118.9z"/>
		<path class="st1" d="M147.4,124c1.7,0,2.8-1.3,2.8-2.9v-2.3c0-1.6-1-2.9-2.8-2.9c-1.7,0-2.8,1.3-2.8,2.9v2.3
			C144.6,122.7,145.7,124,147.4,124z M145.9,118.9c0-1,0.6-1.7,1.5-1.7c1,0,1.5,0.8,1.5,1.7v2.3c0,0.9-0.5,1.7-1.5,1.7
			c-1,0-1.5-0.8-1.5-1.7V118.9z"/>
		<polygon class="st1" points="151,117.5 151,118.3 152,118.3 152.7,117.7 152.7,123.9 154.1,123.9 154.1,116.1 152.9,116.1 		"/>
		<path class="st1" d="M155.3,117.5v0.8h1l0.7-0.6v4.2c0.5-0.9,1-1.8,1.4-2.8v-3h-1.2L155.3,117.5z"/>
		<path class="st1" d="M23.2,130.2c0-1.6-1-2.9-2.8-2.9c-1.7,0-2.8,1.3-2.8,2.9v2.3c0,1.4,0.8,2.6,2.3,2.8c0.2,0,0.3,0,0.5,0
			c1.7,0,2.8-1.3,2.8-2.9V130.2z M21.8,132.5c0,1-0.5,1.7-1.5,1.7c-1,0-1.5-0.8-1.5-1.7v-2.3c0-1,0.6-1.7,1.5-1.7
			c1,0,1.5,0.8,1.5,1.7V132.5z"/>
		<polygon class="st1" points="27.1,135.2 27.1,127.4 25.9,127.4 24,128.8 24,129.6 25,129.6 25.7,129 25.7,135.2 		"/>
		<polygon class="st1" points="29.9,129 29.9,135.2 31.3,135.2 31.3,127.4 30.1,127.4 28.3,128.8 28.3,129.6 29.2,129.6 		"/>
		<polygon class="st1" points="35.6,135.2 35.6,127.4 34.4,127.4 32.6,128.8 32.6,129.6 33.5,129.6 34.2,129 34.2,135.2 		"/>
		<polygon class="st1" points="39.9,135.2 39.9,127.4 38.7,127.4 36.8,128.8 36.8,129.6 37.8,129.6 38.5,129 38.5,135.2 		"/>
		<path class="st1" d="M44.3,135.3c1.7,0,2.8-1.3,2.8-2.9v-2.3c0-1.6-1-2.9-2.8-2.9c-1.7,0-2.8,1.3-2.8,2.9v2.3
			C41.5,134.1,42.5,135.3,44.3,135.3z M42.8,130.2c0-1,0.6-1.7,1.5-1.7c1,0,1.5,0.8,1.5,1.7v2.3c0,1-0.5,1.7-1.5,1.7
			c-1,0-1.5-0.8-1.5-1.7V130.2z"/>
		<path class="st1" d="M53.9,132.5v-2.3c0-1.6-1-2.9-2.8-2.9c-1.7,0-2.8,1.3-2.8,2.9v2.3c0,1.6,1,2.9,2.8,2.9
			C52.8,135.3,53.9,134.1,53.9,132.5z M49.6,132.5v-2.3c0-1,0.6-1.7,1.5-1.7c1,0,1.5,0.8,1.5,1.7v2.3c0,1-0.5,1.7-1.5,1.7
			C50.1,134.2,49.6,133.4,49.6,132.5z"/>
		<path class="st1" d="M57.9,135.3c1.7,0,2.8-1.3,2.8-2.9v-2.3c0-1.6-1-2.9-2.8-2.9c-1.7,0-2.8,1.3-2.8,2.9v2.3
			C55.1,134.1,56.1,135.3,57.9,135.3z M56.5,130.2c0-1,0.6-1.7,1.5-1.7c1,0,1.5,0.8,1.5,1.7v2.3c0,1-0.5,1.7-1.5,1.7
			c-1,0-1.5-0.8-1.5-1.7V130.2z"/>
		<path class="st1" d="M67.3,135.3c1.7,0,2.8-1.3,2.8-2.9v-2.3c0-1.6-1-2.9-2.8-2.9c-1.7,0-2.8,1.3-2.8,2.9v2.3
			C64.5,134.1,65.5,135.3,67.3,135.3z M65.8,130.2c0-1,0.6-1.7,1.5-1.7c1,0,1.5,0.8,1.5,1.7v2.3c0,1-0.5,1.7-1.5,1.7
			c-1,0-1.5-0.8-1.5-1.7V130.2z"/>
		<polygon class="st1" points="72.6,129 72.6,135.2 74,135.2 74,127.4 72.8,127.4 70.9,128.8 70.9,129.6 71.9,129.6 		"/>
		<polygon class="st1" points="78.3,135.2 78.3,127.4 77.1,127.4 75.2,128.8 75.2,129.6 76.2,129.6 76.9,129 76.9,135.2 		"/>
		<path class="st1" d="M85.5,132.5v-2.3c0-1.6-1-2.9-2.8-2.9c-1.7,0-2.8,1.3-2.8,2.9v2.3c0,1.6,1,2.9,2.8,2.9
			C84.4,135.3,85.5,134.1,85.5,132.5z M81.1,132.5v-2.3c0-1,0.6-1.7,1.5-1.7c1,0,1.5,0.8,1.5,1.7v2.3c0,1-0.5,1.7-1.5,1.7
			C81.6,134.2,81.1,133.4,81.1,132.5z"/>
		<path class="st1" d="M92.3,132.5v-2.3c0-1.6-1-2.9-2.8-2.9c-1.7,0-2.8,1.3-2.8,2.9v2.3c0,1.6,1,2.9,2.8,2.9
			C91.2,135.3,92.3,134.1,92.3,132.5z M88,132.5v-2.3c0-1,0.6-1.7,1.5-1.7c1,0,1.5,0.8,1.5,1.7v2.3c0,1-0.5,1.7-1.5,1.7
			C88.5,134.2,88,133.4,88,132.5z"/>
		<path class="st1" d="M99.1,132.5v-2.3c0-1.6-1-2.9-2.8-2.9c-1.7,0-2.8,1.3-2.8,2.9v2.3c0,1.6,1,2.9,2.8,2.9
			C98,135.3,99.1,134.1,99.1,132.5z M94.8,132.5v-2.3c0-1,0.6-1.7,1.5-1.7c1,0,1.5,0.8,1.5,1.7v2.3c0,1-0.5,1.7-1.5,1.7
			S94.8,133.4,94.8,132.5z"/>
		<path class="st1" d="M103.1,135.3c1.7,0,2.8-1.3,2.8-2.9v-2.3c0-1.6-1-2.9-2.8-2.9c-1.7,0-2.8,1.3-2.8,2.9v2.3
			C100.3,134.1,101.4,135.3,103.1,135.3z M101.7,130.2c0-1,0.6-1.7,1.5-1.7c1,0,1.5,0.8,1.5,1.7v2.3c0,1-0.5,1.7-1.5,1.7
			s-1.5-0.8-1.5-1.7V130.2z"/>
		<polygon class="st1" points="109.8,127.4 108.6,127.4 106.8,128.8 106.8,129.6 107.7,129.6 108.4,129 108.4,135.2 109.8,135.2 		
			"/>
		<path class="st1" d="M119.6,132.5v-2.3c0-1.6-1-2.9-2.8-2.9c-1.7,0-2.8,1.3-2.8,2.9v2.3c0,1.6,1.1,2.9,2.8,2.9
			C118.5,135.3,119.6,134.1,119.6,132.5z M115.3,132.5v-2.3c0-1,0.6-1.7,1.5-1.7c1,0,1.5,0.8,1.5,1.7v2.3c0,1-0.5,1.7-1.5,1.7
			S115.3,133.4,115.3,132.5z"/>
		<polygon class="st1" points="123.5,135.2 123.5,127.4 122.3,127.4 120.4,128.8 120.4,129.6 121.4,129.6 122.1,129 122.1,135.2 		
			"/>
		<polygon class="st1" points="127.7,135.2 127.7,127.4 126.5,127.4 124.7,128.8 124.7,129.6 125.6,129.6 126.3,129 126.3,135.2 		
			"/>
		<path class="st1" d="M132.1,127.3c-1.7,0-2.8,1.3-2.8,2.9v2.3c0,1.6,1,2.9,2.8,2.9c1.7,0,2.8-1.3,2.8-2.9v-2.3
			C135,128.6,133.9,127.3,132.1,127.3z M133.6,132.5c0,1-0.5,1.7-1.5,1.7s-1.5-0.8-1.5-1.7v-2.3c0-1,0.6-1.7,1.5-1.7
			c1,0,1.5,0.8,1.5,1.7V132.5z"/>
		<polygon class="st1" points="137.4,129 137.4,135.2 138.8,135.2 138.8,127.4 137.6,127.4 135.8,128.8 135.8,129.6 136.7,129.6 		
			"/>
		<polygon class="st1" points="143,135.2 143,127.4 141.8,127.4 140,128.8 140,129.6 140.9,129.6 141.6,129 141.6,135.2 		"/>
		<path class="st1" d="M147.5,127.3c-1.7,0-2.8,1.3-2.8,2.9v2.3c0,1.6,1,2.9,2.8,2.9c0.2,0,0.4,0,0.6-0.1h0c1.4-0.2,2.2-1.4,2.2-2.8
			v-2.3C150.3,128.6,149.3,127.3,147.5,127.3z M148.9,132.5c0,1-0.5,1.7-1.5,1.7s-1.5-0.8-1.5-1.7v-2.3c0-1,0.6-1.7,1.5-1.7
			c1,0,1.5,0.8,1.5,1.7V132.5z"/>
		<path class="st1" d="M151.1,128.8v0.8h1l0.7-0.6c0.1-0.1,0.2-0.3,0.3-0.4c0.2-0.4,0.5-0.7,0.7-1.1c0,0,0,0,0-0.1h-0.8L151.1,128.8
			z"/>
		<path class="st1" d="M24.5,138.6c-0.5,0-1,0.1-1.4,0.3c0.3,0.3,0.6,0.6,0.8,0.9c0.1,0,0.3-0.1,0.4-0.1c1,0,1.5,0.8,1.5,1.7v0.3
			c0.5,0.5,0.9,0.9,1.4,1.4v-1.7C27.3,139.9,26.2,138.6,24.5,138.6z"/>
		<path class="st1" d="M31.3,138.6c-1.7,0-2.8,1.3-2.8,2.9v2.3c0,0.2,0,0.4,0,0.6c0.2,1.3,1.1,2.3,2.7,2.3c0,0,0.1,0,0.1,0
			c1.7,0,2.8-1.3,2.8-2.9v-2.3C34.1,139.9,33.1,138.6,31.3,138.6z M32.7,143.8c0,1-0.5,1.7-1.5,1.7c-1,0-1.5-0.8-1.5-1.7v-2.3
			c0-1,0.6-1.7,1.5-1.7c1,0,1.5,0.8,1.5,1.7V143.8z"/>
		<polygon class="st1" points="38,146.6 38,138.8 36.8,138.8 34.9,140.2 34.9,140.9 35.9,140.9 36.6,140.3 36.6,146.6 		"/>
		<path class="st1" d="M42.4,138.6c-1.7,0-2.8,1.3-2.8,2.9v2.3c0,1.6,1,2.9,2.8,2.9c1.7,0,2.8-1.3,2.8-2.9v-2.3
			C45.2,139.9,44.2,138.6,42.4,138.6z M43.8,143.8c0,1-0.5,1.7-1.5,1.7c-1,0-1.5-0.8-1.5-1.7v-2.3c0-1,0.6-1.7,1.5-1.7
			c1,0,1.5,0.8,1.5,1.7V143.8z"/>
		<polygon class="st1" points="49.1,146.6 49.1,138.8 47.9,138.8 46,140.2 46,140.9 47,140.9 47.7,140.3 47.7,146.6 		"/>
		<path class="st1" d="M58.8,141.5c0-1.6-1-2.9-2.8-2.9c-1.7,0-2.8,1.3-2.8,2.9v2.3c0,1.6,1,2.9,2.8,2.9c1.7,0,2.8-1.3,2.8-2.9
			V141.5z M57.4,143.8c0,1-0.4,1.7-1.5,1.7c-1,0-1.5-0.8-1.5-1.7v-2.3c0-1,0.6-1.7,1.5-1.7c1,0,1.5,0.8,1.5,1.7V143.8z"/>
		<polygon class="st1" points="62.7,146.6 62.7,138.8 61.5,138.8 59.6,140.2 59.6,140.9 60.6,140.9 61.3,140.3 61.3,146.6 		"/>
		<polygon class="st1" points="66.9,146.6 66.9,138.8 65.7,138.8 63.9,140.2 63.9,140.9 64.8,140.9 65.5,140.3 65.5,146.6 		"/>
		<polygon class="st1" points="71.2,138.8 70,138.8 68.1,140.2 68.1,140.9 69.1,140.9 69.8,140.3 69.8,146.6 71.2,146.6 		"/>
		<polygon class="st1" points="75.5,146.6 75.5,138.8 74.3,138.8 72.4,140.2 72.4,140.9 73.4,140.9 74.1,140.3 74.1,146.6 		"/>
		<path class="st1" d="M79.9,146.7c1.7,0,2.8-1.3,2.8-2.9v-2.3c0-1.6-1-2.9-2.8-2.9c-1.7,0-2.8,1.3-2.8,2.9v2.3
			C77.1,145.4,78.1,146.7,79.9,146.7z M78.3,141.5c0-1,0.6-1.7,1.5-1.7c1,0,1.5,0.8,1.5,1.7v2.3c0,1-0.5,1.7-1.5,1.7
			s-1.5-0.8-1.5-1.7V141.5z"/>
		<path class="st1" d="M86.7,146.7c1.7,0,2.8-1.3,2.8-2.9v-2.3c0-1.6-1-2.9-2.8-2.9c-1.7,0-2.8,1.3-2.8,2.9v2.3
			C83.9,145.4,84.9,146.7,86.7,146.7z M85.2,141.5c0-1,0.6-1.7,1.5-1.7c1,0,1.5,0.8,1.5,1.7v2.3c0,1-0.5,1.7-1.5,1.7
			s-1.5-0.8-1.5-1.7V141.5z"/>
		<path class="st1" d="M93.5,146.7c1.7,0,2.8-1.3,2.8-2.9v-2.3c0-1.6-1-2.9-2.8-2.9c-1.7,0-2.8,1.3-2.8,2.9v2.3
			C90.7,145.4,91.7,146.7,93.5,146.7z M92,141.5c0-1,0.6-1.7,1.5-1.7c1,0,1.5,0.8,1.5,1.7v2.3c0,1-0.5,1.7-1.5,1.7
			c-1,0-1.5-0.8-1.5-1.7V141.5z"/>
		<path class="st1" d="M102.9,138.6c-1.7,0-2.8,1.3-2.8,2.9v2.3c0,1.6,1,2.9,2.8,2.9c1.7,0,2.8-1.3,2.8-2.9v-2.3
			C105.7,139.9,104.7,138.6,102.9,138.6z M104.3,143.8c0,1-0.5,1.7-1.5,1.7c-1,0-1.5-0.8-1.5-1.7v-2.3c0-1,0.6-1.7,1.5-1.7
			c1,0,1.5,0.8,1.5,1.7V143.8z"/>
		<polygon class="st1" points="109.6,146.6 109.6,138.8 108.4,138.8 106.5,140.2 106.5,140.9 107.5,140.9 108.2,140.3 108.2,146.6 
					"/>
		<polygon class="st1" points="113.8,146.6 113.8,138.8 112.6,138.8 110.8,140.2 110.8,140.9 111.7,140.9 112.4,140.3 112.4,146.6 
					"/>
		<path class="st1" d="M115.4,141.5v2.3c0,1.6,1,2.9,2.8,2.9c1.7,0,2.8-1.3,2.8-2.9v-2.3c0-1.6-1-2.9-2.8-2.9
			C116.5,138.6,115.4,139.9,115.4,141.5z M119.7,141.5v2.3c0,1-0.5,1.7-1.5,1.7s-1.5-0.8-1.5-1.7v-2.3c0-1,0.6-1.7,1.5-1.7
			C119.3,139.8,119.7,140.6,119.7,141.5z"/>
		<path class="st1" d="M127.9,143.8v-2.3c0-1.6-1-2.9-2.8-2.9c-1.7,0-2.8,1.3-2.8,2.9v2.3c0,1.6,1,2.9,2.8,2.9
			C126.8,146.7,127.9,145.4,127.9,143.8z M123.6,143.8v-2.3c0-1,0.6-1.7,1.5-1.7c1,0,1.5,0.8,1.5,1.7v2.3c0,1-0.5,1.7-1.5,1.7
			C124.1,145.5,123.6,144.8,123.6,143.8z"/>
		<path class="st1" d="M132,138.6c-1.7,0-2.8,1.3-2.8,2.9v2.3c0,1.6,1,2.9,2.8,2.9c1.7,0,2.8-1.3,2.8-2.9v-2.3
			C134.8,139.9,133.7,138.6,132,138.6z M133.4,143.8c0,1-0.5,1.7-1.5,1.7s-1.5-0.8-1.5-1.7v-2.3c0-1,0.6-1.7,1.5-1.7
			c1,0,1.5,0.8,1.5,1.7V143.8z"/>
		<path class="st1" d="M138.8,138.6c-1.7,0-2.8,1.3-2.8,2.9v2.3c0,1.1,0.5,2,1.3,2.5c0.3-0.3,0.7-0.6,1-0.8c-0.7-0.2-1-0.9-1-1.7
			v-2.3c0-1,0.6-1.7,1.5-1.7c1,0,1.5,0.8,1.5,1.7v2.2c0.1-0.1,0.1-0.1,0.2-0.2c0.3-0.3,0.7-0.6,1-0.9c0,0,0.1-0.1,0.1-0.1
			c0.1-0.1,0.1-0.1,0.2-0.2v-0.9C141.6,139.9,140.6,138.6,138.8,138.6z"/>
		<path class="st1" d="M142.3,140.2v0.8h0.7c0.7-0.7,1.4-1.4,2-2.2h-0.9L142.3,140.2z"/>
		<polygon class="st1" points="27.5,151.7 27.6,151.7 27.5,151.7 		"/>
		<path class="st1" d="M37.3,151.3l-0.3,0.2v0.8h1l0.4-0.3l0.4-0.3v0.6c0.5,0.3,0.9,0.6,1.4,0.9v-3h-1.2L37.3,151.3z"/>
		<path class="st1" d="M41.2,151.5v0.8h1l0.7-0.6v3.2c0.5,0.3,0.9,0.5,1.4,0.8v-5.5h-1.2L41.2,151.5z"/>
		<path class="st1" d="M48.7,150c-1.7,0-2.8,1.3-2.8,2.9v2.3c0,0.6,0.1,1.1,0.4,1.5c0.4,0.8,1.3,1.3,2.4,1.3c0.1,0,0.2,0,0.3,0h0
			c1.6-0.1,2.5-1.4,2.5-2.9v-2.3C51.5,151.3,50.5,150,48.7,150z M50.1,155.2c0,1-0.5,1.7-1.5,1.7c-1,0-1.5-0.8-1.5-1.7v-2.3
			c0-1,0.6-1.7,1.5-1.7c1,0,1.5,0.8,1.5,1.7V155.2z"/>
		<polygon class="st1" points="52.3,151.5 52.3,152.3 53.3,152.3 54,151.7 54,157.9 55.4,157.9 55.4,150.1 54.2,150.1 		"/>
		<path class="st1" d="M62.3,150c-1.7,0-2.8,1.3-2.8,2.9v2.3c0,1.6,1,2.9,2.8,2.9c1.7,0,2.8-1.3,2.8-2.9v-2.3
			C65.1,151.3,64.1,150,62.3,150z M63.8,155.2c0,1-0.5,1.7-1.5,1.7c-1,0-1.5-0.8-1.5-1.7v-2.3c0-1,0.6-1.7,1.5-1.7
			c1,0,1.5,0.8,1.5,1.7V155.2z"/>
		<polygon class="st1" points="67.6,151.7 67.6,157.9 69,157.9 69,150.1 67.8,150.1 66,151.5 66,152.3 66.9,152.3 		"/>
		<polygon class="st1" points="73.3,157.9 73.3,150.1 72.1,150.1 70.2,151.5 70.2,152.3 71.2,152.3 71.9,151.7 71.9,157.9 		"/>
		<polygon class="st1" points="77.5,157.9 77.5,150.1 76.3,150.1 74.4,151.5 74.4,152.3 75.4,152.3 76.1,151.7 76.1,157.9 		"/>
		<path class="st1" d="M84.8,155.2v-2.3c0-1.6-1-2.9-2.8-2.9c-1.7,0-2.8,1.3-2.8,2.9v2.3c0,1.6,1,2.9,2.8,2.9
			C83.7,158,84.8,156.8,84.8,155.2z M80.4,155.2v-2.3c0-1,0.6-1.7,1.5-1.7c1,0,1.5,0.8,1.5,1.7v2.3c0,1-0.5,1.7-1.5,1.7
			C80.9,156.9,80.4,156.1,80.4,155.2z"/>
		<path class="st1" d="M88.8,150c-1.7,0-2.8,1.3-2.8,2.9v2.3c0,1.6,1,2.9,2.8,2.9c1.7,0,2.8-1.3,2.8-2.9v-2.3
			C91.6,151.3,90.6,150,88.8,150z M90.2,155.2c0,1-0.5,1.7-1.5,1.7c-1,0-1.5-0.8-1.5-1.7v-2.3c0-1,0.6-1.7,1.5-1.7
			c1,0,1.5,0.8,1.5,1.7V155.2z"/>
		<path class="st1" d="M98.4,155.2v-2.3c0-1.6-1-2.9-2.8-2.9c-1.7,0-2.8,1.3-2.8,2.9v2.3c0,1.6,1,2.9,2.8,2.9
			C97.3,158,98.4,156.8,98.4,155.2z M94.1,155.2v-2.3c0-1,0.6-1.7,1.5-1.7c1,0,1.5,0.8,1.5,1.7v2.3c0,1-0.4,1.7-1.5,1.7
			C94.6,156.9,94.1,156.1,94.1,155.2z"/>
		<path class="st1" d="M102.4,150c-1.7,0-2.8,1.3-2.8,2.9v2.3c0,1.6,1,2.9,2.8,2.9c1.7,0,2.8-1.3,2.8-2.9v-2.3
			C105.2,151.3,104.2,150,102.4,150z M103.9,155.2c0,1-0.5,1.7-1.5,1.7s-1.5-0.8-1.5-1.7v-2.3c0-1,0.6-1.7,1.5-1.7
			c1,0,1.5,0.8,1.5,1.7V155.2z"/>
		<path class="st1" d="M111.8,150c-1.7,0-2.8,1.3-2.8,2.9v2.3c0,1.6,1,2.9,2.8,2.9c1.7,0,2.8-1.3,2.8-2.9v-2.3
			C114.6,151.3,113.6,150,111.8,150z M113.3,155.2c0,1-0.5,1.7-1.5,1.7c-1,0-1.5-0.8-1.5-1.7v-2.3c0-1,0.6-1.7,1.5-1.7
			c1,0,1.5,0.8,1.5,1.7V155.2z"/>
		<polygon class="st1" points="115.4,151.5 115.4,152.3 116.4,152.3 117.1,151.7 117.1,157.9 118.5,157.9 118.5,150.1 117.3,150.1 
					"/>
		<path class="st1" d="M119.7,151.5v0.8h1l0.7-0.6v5.2c0.5-0.2,0.9-0.5,1.4-0.7v-6h-1.2L119.7,151.5z"/>
		<path class="st1" d="M127.2,150c-1.7,0-2.8,1.3-2.8,2.9v2.3c0,0,0,0.1,0,0.1c0.4-0.2,0.8-0.5,1.2-0.7c0,0,0,0,0,0v-1.7
			c0-1,0.6-1.7,1.5-1.7c1,0,1.4,0.7,1.5,1.6c0.4-0.3,0.9-0.6,1.3-0.8C129.5,150.8,128.6,150,127.2,150z"/>
		<path class="st1" d="M58.6,161.8c0.6,0.2,1.1,0.4,1.7,0.5v-0.9h-1.2L58.6,161.8z"/>
		<path class="st1" d="M61.7,162.8l-0.2,0.1v0.8h1l0.6-0.5l0.1-0.1v0.1c0.5,0.1,0.9,0.2,1.4,0.4v-2h-1.2L61.7,162.8z"/>
		<path class="st1" d="M69,161.3c-1.6,0-2.6,1.1-2.8,2.5c0.4,0.1,0.9,0.2,1.3,0.3c0-0.9,0.6-1.7,1.5-1.7c1,0,1.5,0.8,1.5,1.7v0.5
			c0.4,0.1,0.9,0.1,1.3,0.2v-0.7C71.8,162.6,70.7,161.3,69,161.3z"/>
		<path class="st1" d="M72.6,162.9v0.8h1l0.7-0.6v2.2c0.5,0.1,0.9,0.1,1.4,0.1v-3.9h-1.2L72.6,162.9z"/>
		<path class="st1" d="M76.8,162.9v0.8h1l0.7-0.6v2.6c0.5,0,0.9,0.1,1.4,0.1v-4.2h-1.2L76.8,162.9z"/>
		<path class="st1" d="M84.3,161.3c-1.7,0-2.8,1.3-2.8,2.9v1.6c0.3,0,0.6,0,0.9,0c0.1,0,0.2,0,0.4,0v-1.6c0-1,0.6-1.7,1.5-1.7
			c1,0,1.5,0.8,1.5,1.7v1.6c0.5,0,0.9,0,1.4,0v-1.5C87.1,162.6,86.1,161.3,84.3,161.3z"/>
		<path class="st1" d="M87.9,162.9v0.8h1l0.7-0.6v2.6c0.5,0,0.9-0.1,1.4-0.1v-4h-1.2L87.9,162.9z"/>
		<path class="st1" d="M98,161.3c-1.7,0-2.8,1.3-2.8,2.9v0.8c0.1,0,0.3,0,0.4-0.1c0.3,0,0.6-0.1,0.9-0.1v-0.7c0-1,0.6-1.7,1.5-1.7
			c1,0,1.5,0.8,1.5,1.7v0.2c0.4-0.1,0.8-0.1,1.1-0.2c0.1,0,0.2,0,0.3-0.1C100.7,162.6,99.7,161.3,98,161.3z"/>
		<path class="st1" d="M101.5,162.9v0.8h1l0.7-0.6v0.6c0.5-0.1,0.9-0.2,1.4-0.3v-1.7h-1.2L101.5,162.9z"/>
		<path class="st1" d="M105.8,162.9L105.8,162.9c1-0.3,2-0.6,3.1-0.9v-0.5h-1.2L105.8,162.9z"/>
	</g>
	<g>
		<path class="st2" d="M114.5,119.7H53.4c-2.2,0-4-1.8-4-4V71.4c0-2.2,1.8-4,4-4h61.1c2.2,0,4,1.8,4,4v44.4
			C118.6,117.9,116.8,119.7,114.5,119.7z"/>
		<path class="st2" d="M70.2,67.3h-8.6V54.9c0-12.4,10-22.4,22.4-22.4s22.4,10,22.4,22.4v12.4h-8.6V54.9c0-7.6-6.2-13.8-13.8-13.8
			c-7.6,0-13.8,6.2-13.8,13.8C70.2,54.9,70.2,67.3,70.2,67.3z"/>
		<g>
			<path class="st1" d="M78.5,105c-0.2,0-0.4-0.1-0.5-0.3c-0.1-0.1-0.1-0.4-0.1-0.6l3.8-12.6c-2-0.9-3.4-2.9-3.4-5.2
				c0-3.1,2.6-5.7,5.7-5.7c3.1,0,5.7,2.6,5.7,5.7c0,2.2-1.4,4.3-3.4,5.2l3.8,12.6c0.1,0.2,0,0.4-0.1,0.6c-0.1,0.2-0.3,0.3-0.5,0.3
				H78.5z"/>
			<path class="st1" d="M84,81.4c2.7,0,5,2.2,5,5c0,2.3-1.5,4.2-3.6,4.8l4,13.2H78.6l4-13.2c-2.1-0.6-3.6-2.6-3.6-4.8
				C79,83.6,81.2,81.4,84,81.4 M84,80.1c-3.4,0-6.3,2.8-6.3,6.3c0,2.4,1.3,4.5,3.3,5.5l-3.7,12.1c-0.1,0.4-0.1,0.8,0.2,1.1
				c0.3,0.3,0.6,0.5,1,0.5h11c0.4,0,0.8-0.2,1-0.5c0.3-0.3,0.3-0.8,0.2-1.1L87,92c2-1.1,3.3-3.2,3.3-5.5
				C90.3,82.9,87.4,80.1,84,80.1L84,80.1z"/>
		</g>
		<line class="st3" x1="50" y1="74.5" x2="118.2" y2="74.5"/>
		<line class="st3" x1="50" y1="113.1" x2="118.2" y2="113.1"/>
	</g>
</g>
</svg>
