<?xml version="1.0" encoding="utf-8"?>
<!-- Generator: Adobe Illustrator 24.0.0, SVG Export Plug-In . SVG Version: 6.00 Build 0)  -->
<svg version="1.1" id="Layer_1" xmlns="http://www.w3.org/2000/svg" xmlns:xlink="http://www.w3.org/1999/xlink" x="0px" y="0px"
	 viewBox="0 0 85.4 68.3" style="enable-background:new 0 0 85.4 68.3;" xml:space="preserve">
<g>
	
		<path style="fill:#F4EDED;stroke:#82342F;stroke-width:1.3718;stroke-linecap:round;stroke-linejoin:round;stroke-miterlimit:10;" d="
		M61.1,41.4h-57c-1.9,0-3.4-1.5-3.4-3.4v-34c0-1.9,1.5-3.4,3.4-3.4h57c1.9,0,3.4,1.5,3.4,3.4v34C64.5,39.9,63,41.4,61.1,41.4z"/>
	
		<line style="fill:none;stroke:#82342F;stroke-width:1.3718;stroke-linecap:round;stroke-linejoin:round;stroke-miterlimit:10;" x1="6.7" y1="36.7" x2="6.7" y2="10.9"/>
	
		<line style="fill:none;stroke:#82342F;stroke-width:1.3718;stroke-linecap:round;stroke-linejoin:round;stroke-miterlimit:10;" x1="58.5" y1="36.6" x2="58.5" y2="11.9"/>
	<path style="fill:none;stroke:#82342F;stroke-width:1.3718;stroke-linecap:round;stroke-linejoin:round;stroke-miterlimit:10;" d="
		M0.9,7.9l30.4,15.2c0.8,0.4,1.8,0.4,2.7,0l30-13.9"/>
	<path style="fill:none;stroke:#82342F;stroke-width:1.3718;stroke-linecap:round;stroke-linejoin:round;stroke-miterlimit:10;" d="
		M1.8,2.7l29.4,14.8c0.8,0.4,1.8,0.4,2.7,0l30-13.9"/>
	
		<path style="fill:#F4EDED;stroke:#82342F;stroke-width:1.5453;stroke-linecap:round;stroke-linejoin:round;stroke-miterlimit:10;" d="
		M84.6,50V39h-6.1c-0.3-0.9-0.6-1.7-1.1-2.5l4.3-4.3l-7.8-7.8l-4.3,4.3c-0.8-0.4-1.7-0.8-2.5-1.1v-6h-11v6c-0.9,0.3-1.8,0.7-2.6,1.1
		l-4.2-4.2l-7.8,7.8l4.2,4.2c-0.4,0.8-0.8,1.7-1.1,2.6h-5.9v11h5.9c0.3,0.9,0.7,1.8,1.1,2.6L41.6,57l7.8,7.8l4.2-4.2
		c0.8,0.4,1.7,0.8,2.6,1.1v5.9h11v-6c0.9-0.3,1.7-0.7,2.5-1.1l4.2,4.2l7.8-7.8l-4.3-4.3c0.4-0.8,0.8-1.7,1-2.5H84.6z"/>
	
		<circle style="fill:#FFFFFF;stroke:#82342F;stroke-width:1.5453;stroke-linecap:round;stroke-linejoin:round;stroke-miterlimit:10;" cx="61.6" cy="44.6" r="5.9"/>
</g>
</svg>
