<?xml version="1.0" encoding="utf-8"?>
<!-- Generator: Adobe Illustrator 24.0.0, SVG Export Plug-In . SVG Version: 6.00 Build 0)  -->
<svg version="1.1" id="Layer_1" xmlns="http://www.w3.org/2000/svg" xmlns:xlink="http://www.w3.org/1999/xlink" x="0px" y="0px"
	 viewBox="0 0 297 319.1" style="enable-background:new 0 0 297 319.1;" xml:space="preserve">
<style type="text/css">
	.st0{fill:none;stroke:#CCCCCC;stroke-width:4.3235;stroke-linecap:round;stroke-linejoin:round;}
	.st1{fill:none;stroke:#CCCCCC;stroke-width:4.3235;stroke-linecap:round;stroke-linejoin:round;stroke-dasharray:0.1025,18.4517;}
	.st2{fill:#FFFFFF;stroke:#09638A;stroke-width:3;stroke-miterlimit:10;}
	.st3{fill:#00ABE8;}
	.st4{fill:#28AAE1;}
	.st5{fill:#09638A;}
</style>
<g>
	<line class="st0" x1="147.6" y1="74.2" x2="147.6" y2="74.2"/>
	<line class="st1" x1="147.6" y1="92.7" x2="147.6" y2="211.9"/>
	<line class="st0" x1="147.6" y1="221.1" x2="147.6" y2="221.1"/>
</g>
<g>
	<path class="st2" d="M170.8,28.3v43.4c0,2-1.6,3.8-3.8,3.8h-37.5c-2,0-3.8-1.6-3.8-3.8v-52c0-2,1.6-3.8,3.8-3.8H161
		c1.3,0,2.3,0.5,3,1.6l2.5,3.4l3.6,5c0.2,0.2,0.2,0.4,0.4,0.7C170.8,27.2,170.8,27.7,170.8,28.3z"/>
	<path class="st2" d="M170.4,28.8h-7.5c-1.1,0-2.1-0.9-2.1-2.1V15.9"/>
	<path class="st3" d="M147.2,32.9c8.3,0.2,14.2,6.1,14.4,14.4c0,0.2-0.2,0.4-0.4,0.4h-2.8c-0.2,0-0.3-0.2-0.3-0.3
		c-0.2-5.9-5-10.7-10.9-10.9c-0.2,0-0.3-0.2-0.3-0.3v-2.8C146.9,33.1,147,32.9,147.2,32.9z"/>
	<path class="st4" d="M147.1,43.6c-0.1,0-0.2,0.1-0.2,0.2v2.1V46v1.4c0,0.1,0.1,0.3,0.3,0.3h1.5l0,0c0.6,0,1.6,0,2,0
		c0.1,0,0.2-0.1,0.2-0.2C150.8,45.4,149.2,43.7,147.1,43.6z"/>
	<path class="st5" d="M147.4,37.9c5.2,0,9.4,4.3,9.4,9.3c0,5.1-4.2,9.3-9.4,9.3s-9.4-4.3-9.4-9.3C138,42.1,142.2,37.9,147.4,37.9z
		 M147.4,51.7c2.4,0,4.4-2,4.4-4.6c0-2.5-2-4.5-4.4-4.5c-2.5,0-4.4,2-4.4,4.5C143,49.7,144.9,51.7,147.4,51.7z"/>
</g>
</svg>
