<?xml version="1.0" encoding="utf-8"?>
<!-- Generator: Adobe Illustrator 24.0.0, SVG Export Plug-In . SVG Version: 6.00 Build 0)  -->
<svg version="1.1" id="Layer_1" xmlns="http://www.w3.org/2000/svg" xmlns:xlink="http://www.w3.org/1999/xlink" x="0px" y="0px"
	 viewBox="0 0 297 326.1" style="enable-background:new 0 0 297 326.1;" xml:space="preserve">
<style type="text/css">
	.st0{fill:none;stroke:#CCCCCC;stroke-width:4.3235;stroke-linecap:round;stroke-linejoin:round;}
	.st1{fill:none;stroke:#CCCCCC;stroke-width:4.3235;stroke-linecap:round;stroke-linejoin:round;stroke-dasharray:0.1025,18.4517;}
	.st2{fill:#FFFFFF;stroke:#09638A;stroke-width:3;stroke-miterlimit:10;}
	.st3{fill:#00ABE8;}
	.st4{fill:#28AAE1;}
	.st5{fill:#09638A;}
</style>
<g>
	<g>
		<line class="st0" x1="147.6" y1="74.2" x2="147.6" y2="74.2"/>
		<line class="st1" x1="147.6" y1="92.7" x2="147.6" y2="211.9"/>
		<line class="st0" x1="147.6" y1="221.1" x2="147.6" y2="221.1"/>
	</g>
</g>
<g>
	<g>
		<path class="st2" d="M159.7,23.1v43.4c0,2-1.6,3.8-3.8,3.8h-37.5c-2,0-3.8-1.6-3.8-3.8v-52c0-2,1.6-3.8,3.8-3.8h31.5
			c1.3,0,2.3,0.5,3,1.6l2.5,3.4l3.6,5c0.2,0.2,0.2,0.4,0.4,0.7C159.7,22,159.7,22.5,159.7,23.1z"/>
		<path class="st2" d="M159.3,23.6h-7.5c-1.1,0-2.1-0.9-2.1-2.1V10.7"/>
	</g>
	<g>
		<path class="st3" d="M136.1,27.7c8.3,0.2,14.2,6.1,14.4,14.4c0,0.2-0.2,0.4-0.4,0.4h-2.8c-0.2,0-0.3-0.2-0.3-0.3
			c-0.2-5.9-5-10.7-10.9-10.9c-0.2,0-0.3-0.2-0.3-0.3v-2.8C135.8,27.9,135.9,27.7,136.1,27.7z"/>
		<path class="st4" d="M136,38.4c-0.1,0-0.2,0.1-0.2,0.2v2.1v0.1v1.4c0,0.1,0.1,0.3,0.3,0.3h1.5l0,0c0.6,0,1.6,0,2,0
			c0.1,0,0.2-0.1,0.2-0.2C139.7,40.2,138.1,38.5,136,38.4z"/>
		<path class="st5" d="M136.3,32.7c5.2,0,9.4,4.3,9.4,9.3c0,5.1-4.2,9.3-9.4,9.3s-9.4-4.3-9.4-9.3C126.9,36.9,131.1,32.7,136.3,32.7
			z M136.3,46.5c2.4,0,4.4-2,4.4-4.6c0-2.5-2-4.5-4.4-4.5c-2.5,0-4.4,2-4.4,4.5C131.9,44.5,133.8,46.5,136.3,46.5z"/>
	</g>
</g>
<g>
	<g>
		<path class="st2" d="M173.6,29.3v43.4c0,2-1.6,3.8-3.8,3.8h-37.5c-2,0-3.8-1.6-3.8-3.8v-52c0-2,1.6-3.8,3.8-3.8h31.5
			c1.3,0,2.3,0.5,3,1.6l2.5,3.4l3.6,5c0.2,0.2,0.2,0.4,0.4,0.7C173.6,28.2,173.6,28.8,173.6,29.3z"/>
		<path class="st2" d="M173.2,29.9h-7.5c-1.1,0-2.1-0.9-2.1-2.1V17"/>
	</g>
	<g>
		<path class="st3" d="M150,34c8.3,0.2,14.2,6.1,14.4,14.4c0,0.2-0.2,0.4-0.4,0.4h-2.8c-0.2,0-0.3-0.2-0.3-0.3
			c-0.2-5.9-5-10.7-10.9-10.9c-0.2,0-0.3-0.2-0.3-0.3v-2.8C149.7,34.1,149.8,34,150,34z"/>
		<path class="st4" d="M149.9,44.7c-0.1,0-0.2,0.1-0.2,0.2V47v0.1v1.4c0,0.1,0.1,0.3,0.3,0.3h1.5l0,0c0.6,0,1.6,0,2,0
			c0.1,0,0.2-0.1,0.2-0.2C153.6,46.4,152,44.8,149.9,44.7z"/>
		<path class="st5" d="M150.2,38.9c5.2,0,9.4,4.3,9.4,9.3c0,5.1-4.2,9.3-9.4,9.3s-9.4-4.3-9.4-9.3S145,38.9,150.2,38.9z M150.2,52.7
			c2.4,0,4.4-2,4.4-4.6c0-2.5-2-4.5-4.4-4.5c-2.5,0-4.4,2-4.4,4.5C145.8,50.7,147.7,52.7,150.2,52.7z"/>
	</g>
</g>
<g>
	<g>
		<path class="st2" d="M188.8,35.9v43.4c0,2-1.6,3.8-3.8,3.8h-37.5c-2,0-3.8-1.6-3.8-3.8v-52c0-2,1.6-3.8,3.8-3.8H179
			c1.3,0,2.3,0.5,3,1.6l2.5,3.4l3.6,5c0.2,0.2,0.2,0.4,0.4,0.7C188.8,34.8,188.8,35.3,188.8,35.9z"/>
		<path class="st2" d="M188.5,36.4H181c-1.1,0-2.1-0.9-2.1-2.1V23.5"/>
	</g>
	<g>
		<path class="st3" d="M165.3,40.5c8.3,0.2,14.2,6.1,14.4,14.4c0,0.2-0.2,0.4-0.4,0.4h-2.8c-0.2,0-0.3-0.2-0.3-0.3
			c-0.2-5.9-5-10.7-10.9-10.9c-0.2,0-0.3-0.2-0.3-0.3V41C164.9,40.7,165.1,40.5,165.3,40.5z"/>
		<path class="st4" d="M165.2,51.2c-0.1,0-0.2,0.1-0.2,0.2v2.1v0.1V55c0,0.1,0.1,0.3,0.3,0.3h1.5l0,0c0.6,0,1.6,0,2,0
			c0.1,0,0.2-0.1,0.2-0.2C168.9,53,167.2,51.3,165.2,51.2z"/>
		<path class="st5" d="M165.5,45.5c5.2,0,9.4,4.3,9.4,9.3c0,5.1-4.2,9.3-9.4,9.3s-9.4-4.3-9.4-9.3C156,49.7,160.2,45.5,165.5,45.5z
			 M165.5,59.3c2.4,0,4.4-2,4.4-4.6c0-2.5-2-4.5-4.4-4.5c-2.5,0-4.4,2-4.4,4.5C161,57.3,163,59.3,165.5,59.3z"/>
	</g>
</g>
</svg>
