<?xml version="1.0" encoding="utf-8"?>
<!-- Generator: Adobe Illustrator 24.0.0, SVG Export Plug-In . SVG Version: 6.00 Build 0)  -->
<svg version="1.1" id="Layer_1" xmlns="http://www.w3.org/2000/svg" xmlns:xlink="http://www.w3.org/1999/xlink" x="0px" y="0px"
	 viewBox="0 0 40.9 54.2" style="enable-background:new 0 0 40.9 54.2;" xml:space="preserve">
<path style="fill-rule:evenodd;clip-rule:evenodd;fill:#F4EDED;stroke:#82342F;stroke-width:1.3718;stroke-linecap:round;stroke-linejoin:round;stroke-miterlimit:10;" d="
	M37.9,53.5H3c-1.3,0-2.3-1-2.3-2.3V7.8l8-7.1h29.2c1.3,0,2.3,1,2.3,2.3v48.2C40.2,52.4,39.2,53.5,37.9,53.5"/>
<g>
	<path style="fill:#82342F;" d="M21.9,47.6H23v1.1h-1.1V47.6z"/>
	<path style="fill:#82342F;" d="M23.9,43.5h3.2v1H25v1.1h1.8v0.9H25v1.2h2.1v1h-3.2V43.5z"/>
	<path style="fill:#82342F;" d="M27.6,48.2l1.5-2.1l-1.4-2v-0.5h1l1.2,1.7l1.1-1.7h0.9V44l-1.4,2l1.5,2.1v0.5h-1l-1.2-1.8l-1.2,1.8
		h-0.9V48.2z"/>
	<path style="fill:#82342F;" d="M32.6,43.5h3.2v1h-2.1v1.1h1.8v0.9h-1.8v1.2h2.1v1h-3.2V43.5z"/>
</g>
<g id="oIb6hi_2_">
	<g>
		<path style="fill:#82342F;" d="M18,30.3c-0.2-0.2-0.5-0.3-0.7-0.4c-0.7-0.4-1.4-0.7-2.2-0.8c-0.7-0.1-1.4,0-2.1,0.1
			c-0.7,0.1-1.4,0.4-2.1,0.6c0,0-0.1,0-0.1,0c0.1-0.3,0.2-0.6,0.3-1c0.5-1.8,1-3.6,1.6-5.4c0,0,0.1-0.1,0.1-0.1
			c0.8-0.3,1.7-0.6,2.5-0.7c1.4-0.2,2.7,0,4,0.8c0.2,0.1,0.4,0.3,0.6,0.4c0.1,0,0.1,0.1,0.1,0.1C19.3,26,18.6,28.1,18,30.3
			C18,30.3,18,30.3,18,30.3z"/>
		<path style="fill:#82342F;" d="M23.1,16.9c0.3,0.2,0.6,0.4,0.9,0.5c1,0.5,2,0.8,3.2,0.7c1-0.1,2-0.4,3-0.8c0,0,0.1,0,0.1-0.1
			c-0.1,0.3-0.2,0.5-0.2,0.8c-0.5,1.8-1.1,3.7-1.6,5.5c0,0.1-0.1,0.1-0.2,0.2c-0.7,0.3-1.5,0.6-2.3,0.7c-1.5,0.3-2.8,0-4.1-0.7
			c-0.2-0.1-0.4-0.3-0.7-0.4c-0.1,0-0.1-0.1-0.1-0.1C21.8,21.2,22.4,19.1,23.1,16.9C23,17,23.1,16.9,23.1,16.9z"/>
		<path style="fill:#82342F;" d="M20.9,24.5c0.3,0.2,0.5,0.3,0.8,0.5c1.1,0.6,2.2,0.9,3.4,0.8c0.8-0.1,1.5-0.3,2.2-0.5
			c0.3-0.1,0.5-0.2,0.8-0.3c0,0,0,0.1,0,0.1c-0.6,2.1-1.2,4.1-1.8,6.2c0,0.1-0.1,0.1-0.1,0.1c-0.8,0.3-1.7,0.6-2.6,0.7
			c-1.3,0.2-2.6,0-3.8-0.7c-0.2-0.1-0.4-0.3-0.7-0.4c-0.1,0-0.1-0.1-0.1-0.1c0.6-1.9,1.1-3.8,1.7-5.8C20.8,24.8,20.8,24.7,20.9,24.5
			z"/>
		<path style="fill:#82342F;" d="M22.1,16.2c-0.6,2.1-1.2,4.3-1.9,6.4c-0.1,0-0.1-0.1-0.2-0.1c-0.6-0.4-1.2-0.8-2-1
			c-0.7-0.2-1.5-0.2-2.2-0.1c-0.9,0.1-1.8,0.4-2.7,0.8c0,0-0.1,0-0.1,0.1c0-0.1,0.1-0.2,0.1-0.3c0.6-2,1.2-4,1.7-6
			c0-0.1,0.1-0.1,0.1-0.2c0.7-0.3,1.4-0.5,2.1-0.6c0.9-0.2,1.8-0.2,2.7,0c0.6,0.2,1.2,0.4,1.8,0.8C21.7,16,21.9,16.1,22.1,16.2z"/>
	</g>
</g>
</svg>
